<ttFont>
<head>
    <!-- Most of this table will be recalculated by the compiler -->
    <tableVersion value="1.0"/>
    <fontRevision value="1.0"/>
    <checkSumAdjustment value="0x80d008eb"/>
    <magicNumber value="0x5f0f3cf5"/>
    <flags value="00000000 00011011"/>
    <unitsPerEm value="1000"/>
    <created value="Sat Dec  6 13:43:37 2025"/>
    <modified value="Sat Dec  6 13:49:06 2025"/>
    <xMin value="-57"/>
    <yMin value="-250"/>
    <xMax value="1183"/>
    <yMax value="750"/>
    <macStyle value="00000000 00000010"/>
    <lowestRecPPEM value="6"/>
    <fontDirectionHint value="2"/>
    <indexToLocFormat value="0"/>
    <glyphDataFormat value="0"/>
  </head>
    <TTGlyph name="A" xMin="36" yMin="0" xMax="765" yMax="714">
      <contour>
        <pt x="669" y="77" on="1"/>
        <pt x="672" y="65" on="0"/>
        <pt x="678" y="48" on="0"/>
        <pt x="693" y="37" on="0"/>
        <pt x="722" y="33" on="0"/>
        <pt x="748" y="33" on="1"/>
        <pt x="765" y="33" on="1"/>
        <pt x="759" y="0" on="1"/>
        <pt x="737" y="1" on="0"/>
        <pt x="708" y="2" on="0"/>
        <pt x="681" y="3" on="0"/>
        <pt x="650" y="3" on="0"/>
        <pt x="627" y="3" on="1"/>
        <pt x="607" y="3" on="0"/>
        <pt x="582" y="3" on="0"/>
        <pt x="555" y="2" on="0"/>
        <pt x="517" y="1" on="0"/>
        <pt x="485" y="0" on="1"/>
        <pt x="491" y="33" on="1"/>
        <pt x="500" y="33" on="0"/>
        <pt x="529" y="34" on="0"/>
        <pt x="556" y="40" on="0"/>
        <pt x="576" y="54" on="0"/>
        <pt x="576" y="66" on="1"/>
        <pt x="576" y="68" on="0"/>
        <pt x="570" y="97" on="0"/>
        <pt x="568" y="108" on="1"/>
        <pt x="542" y="229" on="1"/>
        <pt x="270" y="229" on="1"/>
        <pt x="206" y="110" on="1"/>
        <pt x="198" y="96" on="0"/>
        <pt x="193" y="84" on="0"/>
        <pt x="193" y="76" on="1"/>
        <pt x="193" y="61" on="0"/>
        <pt x="211" y="43" on="0"/>
        <pt x="233" y="34" on="0"/>
        <pt x="253" y="32" on="0"/>
        <pt x="256" y="32" on="1"/>
        <pt x="250" y="0" on="1"/>
        <pt x="218" y="2" on="0"/>
        <pt x="157" y="3" on="0"/>
        <pt x="139" y="3" on="1"/>
        <pt x="132" y="3" on="0"/>
        <pt x="107" y="3" on="0"/>
        <pt x="78" y="2" on="0"/>
        <pt x="48" y="1" on="0"/>
        <pt x="36" y="0" on="1"/>
        <pt x="41" y="33" on="1"/>
        <pt x="71" y="33" on="0"/>
        <pt x="114" y="46" on="0"/>
        <pt x="142" y="67" on="0"/>
        <pt x="160" y="92" on="0"/>
        <pt x="166" y="103" on="1"/>
        <pt x="489" y="696" on="1"/>
        <pt x="493" y="704" on="0"/>
        <pt x="504" y="714" on="0"/>
        <pt x="516" y="714" on="1"/>
        <pt x="530" y="714" on="0"/>
        <pt x="537" y="702" on="0"/>
        <pt x="539" y="690" on="1"/>
      </contour>
      <contour>
        <pt x="288" y="262" on="1"/>
        <pt x="535" y="262" on="1"/>
        <pt x="466" y="589" on="1"/>
      </contour>
    </TTGlyph>
    <TTGlyph name="AE" xMin="36" yMin="0" xMax="984" yMax="683">
      <contour>
        <pt x="203" y="102" on="1"/>
        <pt x="200" y="97" on="0"/>
        <pt x="194" y="84" on="0"/>
        <pt x="194" y="76" on="1"/>
        <pt x="194" y="62" on="0"/>
        <pt x="209" y="45" on="0"/>
        <pt x="229" y="36" on="0"/>
        <pt x="250" y="32" on="0"/>
        <pt x="256" y="32" on="1"/>
        <pt x="250" y="0" on="1"/>
        <pt x="218" y="2" on="0"/>
        <pt x="157" y="3" on="0"/>
        <pt x="139" y="3" on="1"/>
        <pt x="132" y="3" on="0"/>
        <pt x="107" y="3" on="0"/>
        <pt x="78" y="2" on="0"/>
        <pt x="48" y="1" on="0"/>
        <pt x="36" y="0" on="1"/>
        <pt x="37" y="3" on="0"/>
        <pt x="40" y="28" on="0"/>
        <pt x="41" y="33" on="1"/>
        <pt x="51" y="33" on="0"/>
        <pt x="83" y="36" on="0"/>
        <pt x="118" y="49" on="0"/>
        <pt x="154" y="77" on="0"/>
        <pt x="168" y="102" on="1"/>
        <pt x="474" y="649" on="1"/>
        <pt x="465" y="650" on="0"/>
        <pt x="445" y="650" on="0"/>
        <pt x="436" y="650" on="1"/>
        <pt x="391" y="650" on="1"/>
        <pt x="396" y="683" on="1"/>
        <pt x="984" y="683" on="1"/>
        <pt x="975" y="456" on="1"/>
        <pt x="944" y="456" on="1"/>
        <pt x="945" y="464" on="0"/>
        <pt x="945" y="490" on="0"/>
        <pt x="945" y="499" on="1"/>
        <pt x="945" y="535" on="0"/>
        <pt x="936" y="592" on="0"/>
        <pt x="904" y="630" on="0"/>
        <pt x="845" y="650" on="0"/>
        <pt x="794" y="650" on="1"/>
        <pt x="684" y="650" on="1"/>
        <pt x="651" y="650" on="0"/>
        <pt x="634" y="636" on="0"/>
        <pt x="631" y="616" on="1"/>
        <pt x="586" y="345" on="1"/>
        <pt x="677" y="345" on="1"/>
        <pt x="710" y="345" on="0"/>
        <pt x="754" y="356" on="0"/>
        <pt x="783" y="382" on="0"/>
        <pt x="799" y="428" on="0"/>
        <pt x="804" y="462" on="1"/>
        <pt x="835" y="462" on="1"/>
        <pt x="791" y="195" on="1"/>
        <pt x="760" y="195" on="1"/>
        <pt x="764" y="218" on="0"/>
        <pt x="765" y="244" on="0"/>
        <pt x="765" y="246" on="1"/>
        <pt x="765" y="263" on="0"/>
        <pt x="758" y="287" on="0"/>
        <pt x="738" y="304" on="0"/>
        <pt x="701" y="312" on="0"/>
        <pt x="671" y="312" on="1"/>
        <pt x="580" y="312" on="1"/>
        <pt x="541" y="76" on="1"/>
        <pt x="539" y="64" on="0"/>
        <pt x="538" y="57" on="0"/>
        <pt x="538" y="54" on="1"/>
        <pt x="538" y="41" on="0"/>
        <pt x="555" y="33" on="0"/>
        <pt x="582" y="33" on="1"/>
        <pt x="690" y="33" on="1"/>
        <pt x="753" y="33" on="0"/>
        <pt x="833" y="61" on="0"/>
        <pt x="886" y="118" on="0"/>
        <pt x="921" y="203" on="0"/>
        <pt x="940" y="260" on="1"/>
        <pt x="971" y="260" on="1"/>
        <pt x="884" y="0" on="1"/>
        <pt x="367" y="0" on="1"/>
        <pt x="368" y="5" on="0"/>
        <pt x="371" y="30" on="0"/>
        <pt x="372" y="33" on="1"/>
        <pt x="394" y="33" on="0"/>
        <pt x="423" y="34" on="0"/>
        <pt x="442" y="42" on="0"/>
        <pt x="452" y="57" on="0"/>
        <pt x="454" y="72" on="1"/>
        <pt x="494" y="312" on="1"/>
        <pt x="320" y="312" on="1"/>
      </contour>
      <contour>
        <pt x="339" y="345" on="1"/>
        <pt x="499" y="345" on="1"/>
        <pt x="543" y="605" on="1"/>
        <pt x="545" y="611" on="0"/>
        <pt x="545" y="616" on="0"/>
        <pt x="545" y="618" on="1"/>
        <pt x="545" y="633" on="0"/>
        <pt x="520" y="646" on="0"/>
        <pt x="508" y="646" on="1"/>
      </contour>
    </TTGlyph>
    <TTGlyph name="B" xMin="48" yMin="0" xMax="749" yMax="683">
      <contour>
        <pt x="541" y="683" on="1"/>
        <pt x="586" y="683" on="0"/>
        <pt x="662" y="660" on="0"/>
        <pt x="717" y="620" on="0"/>
        <pt x="749" y="565" on="0"/>
        <pt x="749" y="533" on="1"/>
        <pt x="749" y="504" on="0"/>
        <pt x="721" y="448" on="0"/>
        <pt x="668" y="401" on="0"/>
        <pt x="594" y="366" on="0"/>
        <pt x="549" y="357" on="1"/>
        <pt x="629" y="348" on="0"/>
        <pt x="724" y="264" on="0"/>
        <pt x="724" y="204" on="1"/>
        <pt x="724" y="166" on="0"/>
        <pt x="682" y="93" on="0"/>
        <pt x="610" y="35" on="0"/>
        <pt x="512" y="0" on="0"/>
        <pt x="456" y="0" on="1"/>
        <pt x="48" y="0" on="1"/>
        <pt x="54" y="33" on="1"/>
        <pt x="76" y="33" on="1"/>
        <pt x="102" y="33" on="0"/>
        <pt x="133" y="37" on="0"/>
        <pt x="151" y="46" on="0"/>
        <pt x="160" y="63" on="0"/>
        <pt x="162" y="76" on="1"/>
        <pt x="250" y="608" on="1"/>
        <pt x="252" y="618" on="0"/>
        <pt x="252" y="621" on="1"/>
        <pt x="252" y="629" on="0"/>
        <pt x="247" y="640" on="0"/>
        <pt x="232" y="647" on="0"/>
        <pt x="203" y="650" on="0"/>
        <pt x="179" y="650" on="1"/>
        <pt x="157" y="650" on="1"/>
        <pt x="162" y="683" on="1"/>
      </contour>
      <contour>
        <pt x="453" y="369" on="1"/>
        <pt x="496" y="369" on="0"/>
        <pt x="569" y="397" on="0"/>
        <pt x="622" y="444" on="0"/>
        <pt x="652" y="504" on="0"/>
        <pt x="652" y="535" on="1"/>
        <pt x="652" y="556" on="0"/>
        <pt x="638" y="598" on="0"/>
        <pt x="608" y="630" on="0"/>
        <pt x="562" y="650" on="0"/>
        <pt x="529" y="650" on="1"/>
        <pt x="390" y="650" on="1"/>
        <pt x="357" y="650" on="0"/>
        <pt x="340" y="636" on="0"/>
        <pt x="337" y="616" on="1"/>
        <pt x="296" y="369" on="1"/>
      </contour>
      <contour>
        <pt x="428" y="33" on="1"/>
        <pt x="469" y="33" on="0"/>
        <pt x="540" y="62" on="0"/>
        <pt x="593" y="110" on="0"/>
        <pt x="624" y="174" on="0"/>
        <pt x="624" y="210" on="1"/>
        <pt x="624" y="236" on="0"/>
        <pt x="608" y="283" on="0"/>
        <pt x="575" y="319" on="0"/>
        <pt x="527" y="341" on="0"/>
        <pt x="494" y="341" on="1"/>
        <pt x="291" y="341" on="1"/>
        <pt x="247" y="76" on="1"/>
        <pt x="245" y="64" on="0"/>
        <pt x="244" y="57" on="0"/>
        <pt x="244" y="54" on="1"/>
        <pt x="244" y="41" on="0"/>
        <pt x="261" y="33" on="0"/>
        <pt x="288" y="33" on="1"/>
      </contour>
    </TTGlyph>
    <TTGlyph name="C" xMin="111" yMin="-21" xMax="822" yMax="704">
      <contour>
        <pt x="780" y="437" on="1"/>
        <pt x="778" y="426" on="0"/>
        <pt x="773" y="417" on="0"/>
        <pt x="762" y="417" on="1"/>
        <pt x="750" y="417" on="0"/>
        <pt x="746" y="428" on="0"/>
        <pt x="746" y="442" on="1"/>
        <pt x="746" y="451" on="1"/>
        <pt x="746" y="494" on="0"/>
        <pt x="721" y="574" on="0"/>
        <pt x="671" y="635" on="0"/>
        <pt x="598" y="671" on="0"/>
        <pt x="551" y="671" on="1"/>
        <pt x="515" y="671" on="0"/>
        <pt x="445" y="652" on="0"/>
        <pt x="383" y="620" on="0"/>
        <pt x="331" y="578" on="0"/>
        <pt x="311" y="554" on="1"/>
        <pt x="275" y="510" on="0"/>
        <pt x="235" y="413" on="0"/>
        <pt x="216" y="328" on="0"/>
        <pt x="212" y="266" on="0"/>
        <pt x="212" y="256" on="1"/>
        <pt x="212" y="187" on="0"/>
        <pt x="255" y="93" on="0"/>
        <pt x="322" y="36" on="0"/>
        <pt x="402" y="12" on="0"/>
        <pt x="439" y="12" on="1"/>
        <pt x="473" y="12" on="0"/>
        <pt x="558" y="36" on="0"/>
        <pt x="637" y="90" on="0"/>
        <pt x="702" y="179" on="0"/>
        <pt x="716" y="243" on="1"/>
        <pt x="718" y="251" on="0"/>
        <pt x="729" y="253" on="0"/>
        <pt x="732" y="253" on="1"/>
        <pt x="735" y="253" on="0"/>
        <pt x="747" y="250" on="0"/>
        <pt x="747" y="240" on="1"/>
        <pt x="747" y="237" on="0"/>
        <pt x="740" y="202" on="0"/>
        <pt x="719" y="153" on="0"/>
        <pt x="681" y="96" on="0"/>
        <pt x="651" y="69" on="1"/>
        <pt x="594" y="18" on="0"/>
        <pt x="479" y="-21" on="0"/>
        <pt x="427" y="-21" on="1"/>
        <pt x="359" y="-21" on="0"/>
        <pt x="243" y="26" on="0"/>
        <pt x="159" y="108" on="0"/>
        <pt x="111" y="220" on="0"/>
        <pt x="111" y="285" on="1"/>
        <pt x="111" y="368" on="0"/>
        <pt x="183" y="520" on="0"/>
        <pt x="303" y="636" on="0"/>
        <pt x="459" y="704" on="0"/>
        <pt x="543" y="704" on="1"/>
        <pt x="595" y="704" on="0"/>
        <pt x="689" y="664" on="0"/>
        <pt x="727" y="616" on="1"/>
        <pt x="792" y="693" on="1"/>
        <pt x="799" y="701" on="0"/>
        <pt x="806" y="704" on="0"/>
        <pt x="809" y="704" on="1"/>
        <pt x="817" y="704" on="0"/>
        <pt x="822" y="695" on="0"/>
        <pt x="822" y="690" on="1"/>
        <pt x="822" y="689" on="0"/>
        <pt x="820" y="680" on="0"/>
        <pt x="820" y="678" on="1"/>
      </contour>
    </TTGlyph>
    <TTGlyph name="D" xMin="46" yMin="0" xMax="812" yMax="683">
      <contour>
        <pt x="540" y="683" on="1"/>
        <pt x="599" y="683" on="0"/>
        <pt x="698" y="641" on="0"/>
        <pt x="771" y="564" on="0"/>
        <pt x="812" y="459" on="0"/>
        <pt x="812" y="396" on="1"/>
        <pt x="812" y="315" on="0"/>
        <pt x="747" y="171" on="0"/>
        <pt x="639" y="63" on="0"/>
        <pt x="501" y="0" on="0"/>
        <pt x="427" y="0" on="1"/>
        <pt x="46" y="0" on="1"/>
        <pt x="52" y="33" on="1"/>
        <pt x="74" y="33" on="1"/>
        <pt x="100" y="33" on="0"/>
        <pt x="131" y="37" on="0"/>
        <pt x="149" y="46" on="0"/>
        <pt x="158" y="63" on="0"/>
        <pt x="160" y="76" on="1"/>
        <pt x="248" y="608" on="1"/>
        <pt x="250" y="618" on="0"/>
        <pt x="250" y="621" on="1"/>
        <pt x="250" y="629" on="0"/>
        <pt x="245" y="640" on="0"/>
        <pt x="230" y="647" on="0"/>
        <pt x="201" y="650" on="0"/>
        <pt x="177" y="650" on="1"/>
        <pt x="155" y="650" on="1"/>
        <pt x="160" y="683" on="1"/>
      </contour>
      <contour>
        <pt x="405" y="33" on="1"/>
        <pt x="448" y="33" on="0"/>
        <pt x="519" y="54" on="0"/>
        <pt x="574" y="85" on="0"/>
        <pt x="613" y="119" on="0"/>
        <pt x="624" y="132" on="1"/>
        <pt x="659" y="175" on="0"/>
        <pt x="696" y="276" on="0"/>
        <pt x="713" y="365" on="0"/>
        <pt x="716" y="429" on="0"/>
        <pt x="716" y="433" on="1"/>
        <pt x="716" y="494" on="0"/>
        <pt x="679" y="577" on="0"/>
        <pt x="619" y="628" on="0"/>
        <pt x="544" y="650" on="0"/>
        <pt x="507" y="650" on="1"/>
        <pt x="392" y="650" on="1"/>
        <pt x="359" y="650" on="0"/>
        <pt x="342" y="636" on="0"/>
        <pt x="339" y="616" on="1"/>
        <pt x="249" y="76" on="1"/>
        <pt x="247" y="64" on="0"/>
        <pt x="246" y="57" on="0"/>
        <pt x="246" y="54" on="1"/>
        <pt x="246" y="41" on="0"/>
        <pt x="263" y="33" on="0"/>
        <pt x="290" y="33" on="1"/>
      </contour>
    </TTGlyph>
    <TTGlyph name="E" xMin="44" yMin="0" xMax="747" yMax="680">
      <contour>
        <pt x="648" y="0" on="1"/>
        <pt x="44" y="0" on="1"/>
        <pt x="50" y="33" on="1"/>
        <pt x="72" y="33" on="1"/>
        <pt x="98" y="33" on="0"/>
        <pt x="129" y="37" on="0"/>
        <pt x="147" y="46" on="0"/>
        <pt x="156" y="63" on="0"/>
        <pt x="158" y="76" on="1"/>
        <pt x="244" y="595" on="1"/>
        <pt x="246" y="608" on="0"/>
        <pt x="247" y="615" on="0"/>
        <pt x="247" y="618" on="1"/>
        <pt x="247" y="626" on="0"/>
        <pt x="243" y="636" on="0"/>
        <pt x="229" y="644" on="0"/>
        <pt x="200" y="647" on="0"/>
        <pt x="174" y="647" on="1"/>
        <pt x="152" y="647" on="1"/>
        <pt x="158" y="680" on="1"/>
        <pt x="747" y="680" on="1"/>
        <pt x="739" y="453" on="1"/>
        <pt x="708" y="453" on="1"/>
        <pt x="708" y="464" on="0"/>
        <pt x="709" y="485" on="0"/>
        <pt x="709" y="495" on="1"/>
        <pt x="709" y="539" on="0"/>
        <pt x="691" y="598" on="0"/>
        <pt x="651" y="633" on="0"/>
        <pt x="584" y="647" on="0"/>
        <pt x="535" y="647" on="1"/>
        <pt x="393" y="647" on="1"/>
        <pt x="378" y="647" on="0"/>
        <pt x="358" y="645" on="0"/>
        <pt x="347" y="637" on="0"/>
        <pt x="341" y="623" on="0"/>
        <pt x="339" y="612" on="1"/>
        <pt x="299" y="370" on="1"/>
        <pt x="396" y="370" on="1"/>
        <pt x="430" y="370" on="0"/>
        <pt x="476" y="380" on="0"/>
        <pt x="506" y="406" on="0"/>
        <pt x="523" y="452" on="0"/>
        <pt x="528" y="487" on="1"/>
        <pt x="559" y="487" on="1"/>
        <pt x="515" y="220" on="1"/>
        <pt x="484" y="220" on="1"/>
        <pt x="488" y="242" on="0"/>
        <pt x="489" y="267" on="0"/>
        <pt x="489" y="269" on="1"/>
        <pt x="489" y="287" on="0"/>
        <pt x="481" y="312" on="0"/>
        <pt x="460" y="329" on="0"/>
        <pt x="421" y="337" on="0"/>
        <pt x="390" y="337" on="1"/>
        <pt x="293" y="337" on="1"/>
        <pt x="250" y="76" on="1"/>
        <pt x="248" y="64" on="0"/>
        <pt x="247" y="57" on="0"/>
        <pt x="247" y="54" on="1"/>
        <pt x="247" y="41" on="0"/>
        <pt x="264" y="33" on="0"/>
        <pt x="291" y="33" on="1"/>
        <pt x="439" y="33" on="1"/>
        <pt x="505" y="33" on="0"/>
        <pt x="591" y="61" on="0"/>
        <pt x="648" y="117" on="0"/>
        <pt x="685" y="203" on="0"/>
        <pt x="704" y="260" on="1"/>
        <pt x="735" y="260" on="1"/>
      </contour>
    </TTGlyph>
    <TTGlyph name="F" xMin="44" yMin="0" xMax="732" yMax="680">
      <contour>
        <pt x="250" y="75" on="1"/>
        <pt x="250" y="73" on="0"/>
        <pt x="248" y="65" on="0"/>
        <pt x="248" y="63" on="1"/>
        <pt x="248" y="46" on="0"/>
        <pt x="282" y="33" on="0"/>
        <pt x="336" y="33" on="1"/>
        <pt x="368" y="33" on="1"/>
        <pt x="363" y="0" on="1"/>
        <pt x="346" y="1" on="0"/>
        <pt x="304" y="2" on="0"/>
        <pt x="259" y="3" on="0"/>
        <pt x="216" y="3" on="0"/>
        <pt x="198" y="3" on="1"/>
        <pt x="173" y="3" on="0"/>
        <pt x="143" y="3" on="0"/>
        <pt x="114" y="2" on="0"/>
        <pt x="76" y="1" on="0"/>
        <pt x="44" y="0" on="1"/>
        <pt x="50" y="33" on="1"/>
        <pt x="72" y="33" on="1"/>
        <pt x="98" y="33" on="0"/>
        <pt x="129" y="37" on="0"/>
        <pt x="147" y="46" on="0"/>
        <pt x="156" y="63" on="0"/>
        <pt x="158" y="76" on="1"/>
        <pt x="244" y="595" on="1"/>
        <pt x="246" y="608" on="0"/>
        <pt x="247" y="615" on="0"/>
        <pt x="247" y="618" on="1"/>
        <pt x="247" y="626" on="0"/>
        <pt x="243" y="636" on="0"/>
        <pt x="229" y="644" on="0"/>
        <pt x="200" y="647" on="0"/>
        <pt x="174" y="647" on="1"/>
        <pt x="152" y="647" on="1"/>
        <pt x="158" y="680" on="1"/>
        <pt x="732" y="680" on="1"/>
        <pt x="724" y="453" on="1"/>
        <pt x="693" y="453" on="1"/>
        <pt x="693" y="464" on="0"/>
        <pt x="694" y="485" on="0"/>
        <pt x="694" y="496" on="1"/>
        <pt x="694" y="539" on="0"/>
        <pt x="678" y="597" on="0"/>
        <pt x="639" y="632" on="0"/>
        <pt x="574" y="647" on="0"/>
        <pt x="525" y="647" on="1"/>
        <pt x="393" y="647" on="1"/>
        <pt x="378" y="647" on="0"/>
        <pt x="358" y="645" on="0"/>
        <pt x="347" y="637" on="0"/>
        <pt x="341" y="623" on="0"/>
        <pt x="339" y="612" on="1"/>
        <pt x="297" y="357" on="1"/>
        <pt x="389" y="357" on="1"/>
        <pt x="422" y="357" on="0"/>
        <pt x="467" y="367" on="0"/>
        <pt x="497" y="393" on="0"/>
        <pt x="514" y="439" on="0"/>
        <pt x="519" y="474" on="1"/>
        <pt x="550" y="474" on="1"/>
        <pt x="506" y="207" on="1"/>
        <pt x="475" y="207" on="1"/>
        <pt x="479" y="230" on="0"/>
        <pt x="480" y="256" on="0"/>
        <pt x="480" y="257" on="1"/>
        <pt x="480" y="274" on="0"/>
        <pt x="473" y="300" on="0"/>
        <pt x="452" y="316" on="0"/>
        <pt x="414" y="324" on="0"/>
        <pt x="384" y="324" on="1"/>
        <pt x="291" y="324" on="1"/>
      </contour>
    </TTGlyph>
    <TTGlyph name="G" xMin="111" yMin="-21" xMax="828" yMax="704">
      <contour>
        <pt x="712" y="21" on="1"/>
        <pt x="710" y="11" on="0"/>
        <pt x="706" y="0" on="0"/>
        <pt x="698" y="0" on="1"/>
        <pt x="693" y="0" on="0"/>
        <pt x="677" y="14" on="0"/>
        <pt x="661" y="34" on="0"/>
        <pt x="647" y="55" on="0"/>
        <pt x="644" y="62" on="1"/>
        <pt x="626" y="38" on="0"/>
        <pt x="573" y="6" on="0"/>
        <pt x="514" y="-13" on="0"/>
        <pt x="454" y="-21" on="0"/>
        <pt x="430" y="-21" on="1"/>
        <pt x="359" y="-21" on="0"/>
        <pt x="241" y="27" on="0"/>
        <pt x="157" y="110" on="0"/>
        <pt x="111" y="222" on="0"/>
        <pt x="111" y="286" on="1"/>
        <pt x="111" y="368" on="0"/>
        <pt x="183" y="519" on="0"/>
        <pt x="303" y="635" on="0"/>
        <pt x="459" y="704" on="0"/>
        <pt x="543" y="704" on="1"/>
        <pt x="584" y="704" on="0"/>
        <pt x="644" y="685" on="0"/>
        <pt x="688" y="658" on="0"/>
        <pt x="716" y="630" on="0"/>
        <pt x="723" y="621" on="1"/>
        <pt x="728" y="618" on="0"/>
        <pt x="728" y="618" on="1"/>
        <pt x="729" y="618" on="0"/>
        <pt x="731" y="621" on="0"/>
        <pt x="736" y="626" on="1"/>
        <pt x="793" y="693" on="1"/>
        <pt x="800" y="701" on="0"/>
        <pt x="807" y="704" on="0"/>
        <pt x="810" y="704" on="1"/>
        <pt x="818" y="704" on="0"/>
        <pt x="823" y="695" on="0"/>
        <pt x="823" y="690" on="1"/>
        <pt x="823" y="689" on="0"/>
        <pt x="821" y="680" on="0"/>
        <pt x="821" y="678" on="1"/>
        <pt x="781" y="437" on="1"/>
        <pt x="779" y="426" on="0"/>
        <pt x="774" y="417" on="0"/>
        <pt x="763" y="417" on="1"/>
        <pt x="751" y="417" on="0"/>
        <pt x="747" y="428" on="0"/>
        <pt x="747" y="442" on="1"/>
        <pt x="747" y="451" on="1"/>
        <pt x="747" y="495" on="0"/>
        <pt x="721" y="574" on="0"/>
        <pt x="672" y="635" on="0"/>
        <pt x="599" y="671" on="0"/>
        <pt x="552" y="671" on="1"/>
        <pt x="514" y="671" on="0"/>
        <pt x="444" y="651" on="0"/>
        <pt x="384" y="620" on="0"/>
        <pt x="334" y="580" on="0"/>
        <pt x="317" y="560" on="1"/>
        <pt x="278" y="515" on="0"/>
        <pt x="235" y="413" on="0"/>
        <pt x="215" y="325" on="0"/>
        <pt x="212" y="263" on="0"/>
        <pt x="212" y="257" on="1"/>
        <pt x="212" y="190" on="0"/>
        <pt x="254" y="96" on="0"/>
        <pt x="321" y="38" on="0"/>
        <pt x="404" y="12" on="0"/>
        <pt x="445" y="12" on="1"/>
        <pt x="468" y="12" on="0"/>
        <pt x="530" y="22" on="0"/>
        <pt x="587" y="48" on="0"/>
        <pt x="631" y="91" on="0"/>
        <pt x="637" y="125" on="1"/>
        <pt x="638" y="130" on="0"/>
        <pt x="642" y="156" on="0"/>
        <pt x="647" y="185" on="0"/>
        <pt x="651" y="209" on="0"/>
        <pt x="651" y="212" on="1"/>
        <pt x="651" y="221" on="0"/>
        <pt x="644" y="232" on="0"/>
        <pt x="624" y="240" on="0"/>
        <pt x="588" y="243" on="0"/>
        <pt x="559" y="243" on="1"/>
        <pt x="524" y="243" on="1"/>
        <pt x="529" y="276" on="1"/>
        <pt x="544" y="275" on="0"/>
        <pt x="586" y="274" on="0"/>
        <pt x="632" y="273" on="0"/>
        <pt x="676" y="273" on="0"/>
        <pt x="692" y="273" on="1"/>
        <pt x="713" y="273" on="0"/>
        <pt x="747" y="273" on="0"/>
        <pt x="778" y="274" on="0"/>
        <pt x="809" y="275" on="0"/>
        <pt x="828" y="276" on="1"/>
        <pt x="822" y="243" on="1"/>
        <pt x="801" y="243" on="0"/>
        <pt x="772" y="242" on="0"/>
        <pt x="754" y="234" on="0"/>
        <pt x="744" y="219" on="0"/>
        <pt x="742" y="204" on="1"/>
      </contour>
    </TTGlyph>
    <TTGlyph name="Gamma" xMin="44" yMin="0" xMax="703" yMax="680">
      <contour>
        <pt x="250" y="75" on="1"/>
        <pt x="250" y="73" on="0"/>
        <pt x="248" y="65" on="0"/>
        <pt x="248" y="63" on="1"/>
        <pt x="248" y="46" on="0"/>
        <pt x="282" y="33" on="0"/>
        <pt x="336" y="33" on="1"/>
        <pt x="368" y="33" on="1"/>
        <pt x="363" y="0" on="1"/>
        <pt x="346" y="1" on="0"/>
        <pt x="304" y="2" on="0"/>
        <pt x="259" y="3" on="0"/>
        <pt x="216" y="3" on="0"/>
        <pt x="198" y="3" on="1"/>
        <pt x="173" y="3" on="0"/>
        <pt x="143" y="3" on="0"/>
        <pt x="114" y="2" on="0"/>
        <pt x="76" y="1" on="0"/>
        <pt x="44" y="0" on="1"/>
        <pt x="50" y="33" on="1"/>
        <pt x="72" y="33" on="1"/>
        <pt x="98" y="33" on="0"/>
        <pt x="129" y="37" on="0"/>
        <pt x="147" y="46" on="0"/>
        <pt x="156" y="63" on="0"/>
        <pt x="158" y="76" on="1"/>
        <pt x="244" y="595" on="1"/>
        <pt x="246" y="608" on="0"/>
        <pt x="247" y="615" on="0"/>
        <pt x="247" y="618" on="1"/>
        <pt x="247" y="626" on="0"/>
        <pt x="243" y="636" on="0"/>
        <pt x="229" y="644" on="0"/>
        <pt x="200" y="647" on="0"/>
        <pt x="174" y="647" on="1"/>
        <pt x="152" y="647" on="1"/>
        <pt x="158" y="680" on="1"/>
        <pt x="703" y="680" on="1"/>
        <pt x="695" y="453" on="1"/>
        <pt x="664" y="453" on="1"/>
        <pt x="664" y="464" on="0"/>
        <pt x="665" y="487" on="0"/>
        <pt x="665" y="498" on="1"/>
        <pt x="665" y="539" on="0"/>
        <pt x="651" y="595" on="0"/>
        <pt x="616" y="631" on="0"/>
        <pt x="555" y="647" on="0"/>
        <pt x="508" y="647" on="1"/>
        <pt x="393" y="647" on="1"/>
        <pt x="378" y="647" on="0"/>
        <pt x="358" y="645" on="0"/>
        <pt x="347" y="637" on="0"/>
        <pt x="341" y="623" on="0"/>
        <pt x="339" y="612" on="1"/>
      </contour>
    </TTGlyph>
    <TTGlyph name="H" xMin="44" yMin="0" xMax="864" yMax="683">
      <contour>
        <pt x="664" y="82" on="1"/>
        <pt x="662" y="70" on="0"/>
        <pt x="661" y="63" on="0"/>
        <pt x="661" y="61" on="1"/>
        <pt x="661" y="53" on="0"/>
        <pt x="666" y="42" on="0"/>
        <pt x="682" y="36" on="0"/>
        <pt x="710" y="33" on="0"/>
        <pt x="734" y="33" on="1"/>
        <pt x="756" y="33" on="1"/>
        <pt x="751" y="0" on="1"/>
        <pt x="719" y="1" on="0"/>
        <pt x="682" y="2" on="0"/>
        <pt x="654" y="3" on="0"/>
        <pt x="627" y="3" on="0"/>
        <pt x="604" y="3" on="1"/>
        <pt x="582" y="3" on="0"/>
        <pt x="554" y="3" on="0"/>
        <pt x="525" y="2" on="0"/>
        <pt x="489" y="1" on="0"/>
        <pt x="457" y="0" on="1"/>
        <pt x="463" y="33" on="1"/>
        <pt x="485" y="33" on="1"/>
        <pt x="512" y="33" on="0"/>
        <pt x="544" y="37" on="0"/>
        <pt x="561" y="47" on="0"/>
        <pt x="568" y="62" on="0"/>
        <pt x="570" y="74" on="1"/>
        <pt x="614" y="339" on="1"/>
        <pt x="294" y="339" on="1"/>
        <pt x="251" y="82" on="1"/>
        <pt x="249" y="70" on="0"/>
        <pt x="248" y="63" on="0"/>
        <pt x="248" y="61" on="1"/>
        <pt x="248" y="53" on="0"/>
        <pt x="253" y="42" on="0"/>
        <pt x="269" y="36" on="0"/>
        <pt x="297" y="33" on="0"/>
        <pt x="321" y="33" on="1"/>
        <pt x="343" y="33" on="1"/>
        <pt x="338" y="0" on="1"/>
        <pt x="306" y="1" on="0"/>
        <pt x="269" y="2" on="0"/>
        <pt x="241" y="3" on="0"/>
        <pt x="214" y="3" on="0"/>
        <pt x="191" y="3" on="1"/>
        <pt x="169" y="3" on="0"/>
        <pt x="141" y="3" on="0"/>
        <pt x="112" y="2" on="0"/>
        <pt x="76" y="1" on="0"/>
        <pt x="44" y="0" on="1"/>
        <pt x="50" y="33" on="1"/>
        <pt x="72" y="33" on="1"/>
        <pt x="98" y="33" on="0"/>
        <pt x="129" y="37" on="0"/>
        <pt x="147" y="46" on="0"/>
        <pt x="156" y="63" on="0"/>
        <pt x="158" y="76" on="1"/>
        <pt x="246" y="608" on="1"/>
        <pt x="248" y="618" on="0"/>
        <pt x="248" y="621" on="1"/>
        <pt x="248" y="629" on="0"/>
        <pt x="243" y="640" on="0"/>
        <pt x="228" y="647" on="0"/>
        <pt x="199" y="650" on="0"/>
        <pt x="175" y="650" on="1"/>
        <pt x="153" y="650" on="1"/>
        <pt x="158" y="683" on="1"/>
        <pt x="190" y="682" on="0"/>
        <pt x="227" y="681" on="0"/>
        <pt x="255" y="680" on="0"/>
        <pt x="283" y="680" on="0"/>
        <pt x="305" y="680" on="1"/>
        <pt x="327" y="680" on="0"/>
        <pt x="354" y="680" on="0"/>
        <pt x="382" y="681" on="0"/>
        <pt x="419" y="682" on="0"/>
        <pt x="451" y="683" on="1"/>
        <pt x="446" y="650" on="1"/>
        <pt x="424" y="650" on="1"/>
        <pt x="397" y="650" on="0"/>
        <pt x="365" y="646" on="0"/>
        <pt x="347" y="636" on="0"/>
        <pt x="340" y="619" on="0"/>
        <pt x="338" y="606" on="1"/>
        <pt x="299" y="372" on="1"/>
        <pt x="620" y="372" on="1"/>
        <pt x="659" y="608" on="1"/>
        <pt x="661" y="618" on="0"/>
        <pt x="661" y="621" on="1"/>
        <pt x="661" y="629" on="0"/>
        <pt x="656" y="640" on="0"/>
        <pt x="641" y="647" on="0"/>
        <pt x="612" y="650" on="0"/>
        <pt x="588" y="650" on="1"/>
        <pt x="566" y="650" on="1"/>
        <pt x="571" y="683" on="1"/>
        <pt x="603" y="682" on="0"/>
        <pt x="640" y="681" on="0"/>
        <pt x="668" y="680" on="0"/>
        <pt x="696" y="680" on="0"/>
        <pt x="718" y="680" on="1"/>
        <pt x="740" y="680" on="0"/>
        <pt x="767" y="680" on="0"/>
        <pt x="795" y="681" on="0"/>
        <pt x="832" y="682" on="0"/>
        <pt x="864" y="683" on="1"/>
        <pt x="859" y="650" on="1"/>
        <pt x="837" y="650" on="1"/>
        <pt x="810" y="650" on="0"/>
        <pt x="778" y="646" on="0"/>
        <pt x="760" y="636" on="0"/>
        <pt x="753" y="619" on="0"/>
        <pt x="751" y="606" on="1"/>
      </contour>
    </TTGlyph>
    <TTGlyph name="I" xMin="39" yMin="0" xMax="456" yMax="683">
      <contour>
        <pt x="250" y="75" on="1"/>
        <pt x="248" y="65" on="0"/>
        <pt x="248" y="62" on="1"/>
        <pt x="248" y="54" on="0"/>
        <pt x="253" y="43" on="0"/>
        <pt x="269" y="36" on="0"/>
        <pt x="299" y="33" on="0"/>
        <pt x="324" y="33" on="1"/>
        <pt x="348" y="33" on="1"/>
        <pt x="343" y="0" on="1"/>
        <pt x="312" y="1" on="0"/>
        <pt x="275" y="2" on="0"/>
        <pt x="247" y="3" on="0"/>
        <pt x="216" y="3" on="0"/>
        <pt x="191" y="3" on="1"/>
        <pt x="165" y="3" on="0"/>
        <pt x="133" y="3" on="0"/>
        <pt x="104" y="2" on="0"/>
        <pt x="69" y="1" on="0"/>
        <pt x="39" y="0" on="1"/>
        <pt x="45" y="33" on="1"/>
        <pt x="69" y="33" on="1"/>
        <pt x="96" y="33" on="0"/>
        <pt x="129" y="37" on="0"/>
        <pt x="148" y="47" on="0"/>
        <pt x="156" y="64" on="0"/>
        <pt x="158" y="77" on="1"/>
        <pt x="245" y="601" on="1"/>
        <pt x="247" y="613" on="0"/>
        <pt x="248" y="619" on="0"/>
        <pt x="248" y="621" on="1"/>
        <pt x="248" y="638" on="0"/>
        <pt x="219" y="650" on="0"/>
        <pt x="172" y="650" on="1"/>
        <pt x="148" y="650" on="1"/>
        <pt x="153" y="683" on="1"/>
        <pt x="185" y="682" on="0"/>
        <pt x="223" y="681" on="0"/>
        <pt x="252" y="680" on="0"/>
        <pt x="281" y="680" on="0"/>
        <pt x="305" y="680" on="1"/>
        <pt x="329" y="680" on="0"/>
        <pt x="358" y="680" on="0"/>
        <pt x="386" y="681" on="0"/>
        <pt x="424" y="682" on="0"/>
        <pt x="456" y="683" on="1"/>
        <pt x="451" y="650" on="1"/>
        <pt x="427" y="650" on="1"/>
        <pt x="400" y="650" on="0"/>
        <pt x="367" y="646" on="0"/>
        <pt x="348" y="636" on="0"/>
        <pt x="340" y="620" on="0"/>
        <pt x="338" y="607" on="1"/>
      </contour>
    </TTGlyph>
    <TTGlyph name="J" xMin="69" yMin="-21" xMax="601" yMax="683">
      <contour>
        <pt x="437" y="146" on="1"/>
        <pt x="431" y="109" on="0"/>
        <pt x="390" y="48" on="0"/>
        <pt x="330" y="4" on="0"/>
        <pt x="256" y="-21" on="0"/>
        <pt x="217" y="-21" on="1"/>
        <pt x="186" y="-21" on="0"/>
        <pt x="131" y="-4" on="0"/>
        <pt x="92" y="28" on="0"/>
        <pt x="69" y="71" on="0"/>
        <pt x="69" y="96" on="1"/>
        <pt x="69" y="121" on="0"/>
        <pt x="86" y="150" on="0"/>
        <pt x="107" y="165" on="0"/>
        <pt x="129" y="169" on="0"/>
        <pt x="133" y="169" on="1"/>
        <pt x="152" y="169" on="0"/>
        <pt x="182" y="144" on="0"/>
        <pt x="182" y="121" on="1"/>
        <pt x="182" y="121" on="0"/>
        <pt x="180" y="101" on="0"/>
        <pt x="167" y="78" on="0"/>
        <pt x="138" y="59" on="0"/>
        <pt x="112" y="59" on="1"/>
        <pt x="124" y="40" on="0"/>
        <pt x="156" y="18" on="0"/>
        <pt x="187" y="9" on="0"/>
        <pt x="212" y="7" on="0"/>
        <pt x="215" y="7" on="1"/>
        <pt x="237" y="7" on="0"/>
        <pt x="280" y="28" on="0"/>
        <pt x="316" y="66" on="0"/>
        <pt x="343" y="119" on="0"/>
        <pt x="348" y="150" on="1"/>
        <pt x="423" y="601" on="1"/>
        <pt x="426" y="618" on="0"/>
        <pt x="426" y="619" on="1"/>
        <pt x="426" y="637" on="0"/>
        <pt x="391" y="650" on="0"/>
        <pt x="334" y="650" on="1"/>
        <pt x="301" y="650" on="1"/>
        <pt x="302" y="655" on="0"/>
        <pt x="305" y="680" on="0"/>
        <pt x="306" y="683" on="1"/>
        <pt x="321" y="682" on="0"/>
        <pt x="363" y="681" on="0"/>
        <pt x="407" y="680" on="0"/>
        <pt x="450" y="680" on="0"/>
        <pt x="466" y="680" on="1"/>
        <pt x="501" y="680" on="0"/>
        <pt x="567" y="681" on="0"/>
        <pt x="601" y="683" on="1"/>
        <pt x="596" y="650" on="1"/>
        <pt x="574" y="650" on="0"/>
        <pt x="544" y="649" on="0"/>
        <pt x="526" y="641" on="0"/>
        <pt x="516" y="626" on="0"/>
        <pt x="514" y="611" on="1"/>
      </contour>
    </TTGlyph>
    <TTGlyph name="K" xMin="44" yMin="0" xMax="879" yMax="683">
      <contour>
        <pt x="690" y="76" on="1"/>
        <pt x="699" y="60" on="0"/>
        <pt x="720" y="42" on="0"/>
        <pt x="744" y="34" on="0"/>
        <pt x="771" y="33" on="0"/>
        <pt x="785" y="33" on="1"/>
        <pt x="779" y="0" on="1"/>
        <pt x="766" y="1" on="0"/>
        <pt x="733" y="2" on="0"/>
        <pt x="701" y="3" on="0"/>
        <pt x="671" y="3" on="0"/>
        <pt x="661" y="3" on="1"/>
        <pt x="643" y="3" on="0"/>
        <pt x="619" y="3" on="0"/>
        <pt x="593" y="2" on="0"/>
        <pt x="556" y="1" on="0"/>
        <pt x="524" y="0" on="1"/>
        <pt x="529" y="33" on="1"/>
        <pt x="536" y="33" on="0"/>
        <pt x="556" y="34" on="0"/>
        <pt x="575" y="40" on="0"/>
        <pt x="588" y="54" on="0"/>
        <pt x="588" y="66" on="1"/>
        <pt x="588" y="73" on="0"/>
        <pt x="583" y="84" on="0"/>
        <pt x="575" y="98" on="1"/>
        <pt x="426" y="362" on="1"/>
        <pt x="278" y="247" on="1"/>
        <pt x="276" y="231" on="0"/>
        <pt x="273" y="212" on="0"/>
        <pt x="270" y="196" on="0"/>
        <pt x="267" y="178" on="0"/>
        <pt x="264" y="163" on="1"/>
        <pt x="263" y="157" on="0"/>
        <pt x="258" y="126" on="0"/>
        <pt x="252" y="92" on="0"/>
        <pt x="248" y="64" on="0"/>
        <pt x="248" y="61" on="1"/>
        <pt x="248" y="53" on="0"/>
        <pt x="253" y="42" on="0"/>
        <pt x="269" y="36" on="0"/>
        <pt x="297" y="33" on="0"/>
        <pt x="321" y="33" on="1"/>
        <pt x="343" y="33" on="1"/>
        <pt x="338" y="0" on="1"/>
        <pt x="306" y="1" on="0"/>
        <pt x="269" y="2" on="0"/>
        <pt x="241" y="3" on="0"/>
        <pt x="214" y="3" on="0"/>
        <pt x="191" y="3" on="1"/>
        <pt x="169" y="3" on="0"/>
        <pt x="141" y="3" on="0"/>
        <pt x="112" y="2" on="0"/>
        <pt x="76" y="1" on="0"/>
        <pt x="44" y="0" on="1"/>
        <pt x="50" y="33" on="1"/>
        <pt x="72" y="33" on="1"/>
        <pt x="98" y="33" on="0"/>
        <pt x="129" y="37" on="0"/>
        <pt x="147" y="46" on="0"/>
        <pt x="156" y="63" on="0"/>
        <pt x="158" y="76" on="1"/>
        <pt x="246" y="608" on="1"/>
        <pt x="248" y="618" on="0"/>
        <pt x="248" y="621" on="1"/>
        <pt x="248" y="629" on="0"/>
        <pt x="243" y="640" on="0"/>
        <pt x="228" y="647" on="0"/>
        <pt x="199" y="650" on="0"/>
        <pt x="175" y="650" on="1"/>
        <pt x="153" y="650" on="1"/>
        <pt x="158" y="683" on="1"/>
        <pt x="190" y="682" on="0"/>
        <pt x="227" y="681" on="0"/>
        <pt x="255" y="680" on="0"/>
        <pt x="283" y="680" on="0"/>
        <pt x="305" y="680" on="1"/>
        <pt x="327" y="680" on="0"/>
        <pt x="354" y="680" on="0"/>
        <pt x="382" y="681" on="0"/>
        <pt x="419" y="682" on="0"/>
        <pt x="451" y="683" on="1"/>
        <pt x="446" y="650" on="1"/>
        <pt x="424" y="650" on="1"/>
        <pt x="397" y="650" on="0"/>
        <pt x="365" y="646" on="0"/>
        <pt x="347" y="636" on="0"/>
        <pt x="340" y="619" on="0"/>
        <pt x="338" y="606" on="1"/>
        <pt x="286" y="290" on="1"/>
        <pt x="668" y="585" on="1"/>
        <pt x="694" y="605" on="0"/>
        <pt x="694" y="625" on="1"/>
        <pt x="694" y="634" on="0"/>
        <pt x="685" y="645" on="0"/>
        <pt x="674" y="650" on="0"/>
        <pt x="663" y="651" on="0"/>
        <pt x="660" y="651" on="1"/>
        <pt x="666" y="683" on="1"/>
        <pt x="691" y="682" on="0"/>
        <pt x="720" y="681" on="0"/>
        <pt x="743" y="680" on="0"/>
        <pt x="767" y="680" on="0"/>
        <pt x="786" y="680" on="1"/>
        <pt x="806" y="680" on="0"/>
        <pt x="828" y="680" on="0"/>
        <pt x="846" y="681" on="0"/>
        <pt x="864" y="682" on="0"/>
        <pt x="879" y="683" on="1"/>
        <pt x="874" y="650" on="1"/>
        <pt x="861" y="650" on="0"/>
        <pt x="829" y="645" on="0"/>
        <pt x="791" y="633" on="0"/>
        <pt x="748" y="610" on="0"/>
        <pt x="724" y="591" on="1"/>
        <pt x="497" y="416" on="1"/>
      </contour>
    </TTGlyph>
    <TTGlyph name="L" xMin="44" yMin="0" xMax="662" yMax="683">
      <contour>
        <pt x="590" y="0" on="1"/>
        <pt x="44" y="0" on="1"/>
        <pt x="50" y="33" on="1"/>
        <pt x="72" y="33" on="1"/>
        <pt x="98" y="33" on="0"/>
        <pt x="129" y="37" on="0"/>
        <pt x="147" y="46" on="0"/>
        <pt x="156" y="63" on="0"/>
        <pt x="158" y="76" on="1"/>
        <pt x="246" y="608" on="1"/>
        <pt x="248" y="618" on="0"/>
        <pt x="248" y="621" on="1"/>
        <pt x="248" y="629" on="0"/>
        <pt x="243" y="640" on="0"/>
        <pt x="228" y="647" on="0"/>
        <pt x="199" y="650" on="0"/>
        <pt x="175" y="650" on="1"/>
        <pt x="153" y="650" on="1"/>
        <pt x="158" y="683" on="1"/>
        <pt x="190" y="682" on="0"/>
        <pt x="227" y="681" on="0"/>
        <pt x="256" y="680" on="0"/>
        <pt x="286" y="680" on="0"/>
        <pt x="311" y="680" on="1"/>
        <pt x="328" y="680" on="0"/>
        <pt x="372" y="680" on="0"/>
        <pt x="419" y="681" on="0"/>
        <pt x="462" y="682" on="0"/>
        <pt x="477" y="683" on="1"/>
        <pt x="471" y="650" on="1"/>
        <pt x="439" y="650" on="1"/>
        <pt x="407" y="650" on="0"/>
        <pt x="369" y="646" on="0"/>
        <pt x="348" y="636" on="0"/>
        <pt x="340" y="619" on="0"/>
        <pt x="338" y="606" on="1"/>
        <pt x="250" y="76" on="1"/>
        <pt x="248" y="64" on="0"/>
        <pt x="247" y="57" on="0"/>
        <pt x="247" y="54" on="1"/>
        <pt x="247" y="41" on="0"/>
        <pt x="264" y="33" on="0"/>
        <pt x="291" y="33" on="1"/>
        <pt x="384" y="33" on="1"/>
        <pt x="453" y="33" on="0"/>
        <pt x="541" y="76" on="0"/>
        <pt x="594" y="143" on="0"/>
        <pt x="621" y="223" on="0"/>
        <pt x="631" y="260" on="1"/>
        <pt x="662" y="260" on="1"/>
      </contour>
    </TTGlyph>
    <TTGlyph name="Lambda" xMin="35" yMin="0" xMax="706" yMax="714">
      <contour>
        <pt x="622" y="75" on="1"/>
        <pt x="625" y="59" on="0"/>
        <pt x="635" y="42" on="0"/>
        <pt x="653" y="34" on="0"/>
        <pt x="683" y="33" on="0"/>
        <pt x="706" y="33" on="1"/>
        <pt x="700" y="0" on="1"/>
        <pt x="668" y="2" on="0"/>
        <pt x="603" y="3" on="0"/>
        <pt x="574" y="3" on="1"/>
        <pt x="555" y="3" on="0"/>
        <pt x="530" y="3" on="0"/>
        <pt x="503" y="2" on="0"/>
        <pt x="466" y="1" on="0"/>
        <pt x="434" y="0" on="1"/>
        <pt x="439" y="33" on="1"/>
        <pt x="448" y="33" on="0"/>
        <pt x="478" y="34" on="0"/>
        <pt x="506" y="40" on="0"/>
        <pt x="526" y="54" on="0"/>
        <pt x="526" y="67" on="1"/>
        <pt x="526" y="69" on="0"/>
        <pt x="526" y="74" on="0"/>
        <pt x="524" y="80" on="1"/>
        <pt x="433" y="575" on="1"/>
        <pt x="189" y="103" on="1"/>
        <pt x="184" y="93" on="0"/>
        <pt x="180" y="84" on="0"/>
        <pt x="180" y="78" on="1"/>
        <pt x="180" y="62" on="0"/>
        <pt x="198" y="44" on="0"/>
        <pt x="220" y="35" on="0"/>
        <pt x="242" y="32" on="0"/>
        <pt x="245" y="32" on="1"/>
        <pt x="239" y="0" on="1"/>
        <pt x="207" y="2" on="0"/>
        <pt x="145" y="3" on="0"/>
        <pt x="131" y="3" on="1"/>
        <pt x="114" y="3" on="0"/>
        <pt x="58" y="2" on="0"/>
        <pt x="35" y="0" on="1"/>
        <pt x="41" y="33" on="1"/>
        <pt x="84" y="34" on="0"/>
        <pt x="136" y="69" on="0"/>
        <pt x="154" y="104" on="1"/>
        <pt x="459" y="695" on="1"/>
        <pt x="467" y="709" on="0"/>
        <pt x="482" y="714" on="0"/>
        <pt x="487" y="714" on="1"/>
        <pt x="500" y="714" on="0"/>
        <pt x="507" y="701" on="0"/>
        <pt x="509" y="689" on="1"/>
      </contour>
    </TTGlyph>
    <TTGlyph name="M" xMin="49" yMin="0" xMax="1036" yMax="683">
      <contour>
        <pt x="501" y="95" on="1"/>
        <pt x="827" y="662" on="1"/>
        <pt x="836" y="678" on="0"/>
        <pt x="853" y="683" on="0"/>
        <pt x="870" y="683" on="1"/>
        <pt x="1036" y="683" on="1"/>
        <pt x="1031" y="650" on="1"/>
        <pt x="1014" y="650" on="0"/>
        <pt x="972" y="649" on="0"/>
        <pt x="958" y="647" on="1"/>
        <pt x="937" y="643" on="0"/>
        <pt x="926" y="621" on="0"/>
        <pt x="923" y="604" on="1"/>
        <pt x="836" y="84" on="1"/>
        <pt x="834" y="72" on="0"/>
        <pt x="833" y="65" on="0"/>
        <pt x="833" y="61" on="1"/>
        <pt x="833" y="44" on="0"/>
        <pt x="855" y="37" on="0"/>
        <pt x="870" y="35" on="1"/>
        <pt x="883" y="33" on="0"/>
        <pt x="908" y="33" on="0"/>
        <pt x="928" y="33" on="1"/>
        <pt x="923" y="0" on="1"/>
        <pt x="893" y="1" on="0"/>
        <pt x="859" y="2" on="0"/>
        <pt x="832" y="3" on="0"/>
        <pt x="804" y="3" on="0"/>
        <pt x="781" y="3" on="1"/>
        <pt x="758" y="3" on="0"/>
        <pt x="730" y="3" on="0"/>
        <pt x="703" y="2" on="0"/>
        <pt x="669" y="1" on="0"/>
        <pt x="639" y="0" on="1"/>
        <pt x="645" y="33" on="1"/>
        <pt x="677" y="33" on="0"/>
        <pt x="716" y="34" on="0"/>
        <pt x="740" y="43" on="0"/>
        <pt x="750" y="61" on="0"/>
        <pt x="753" y="78" on="1"/>
        <pt x="848" y="645" on="1"/>
        <pt x="847" y="646" on="1"/>
        <pt x="487" y="23" on="1"/>
        <pt x="481" y="12" on="0"/>
        <pt x="471" y="0" on="0"/>
        <pt x="461" y="0" on="1"/>
        <pt x="450" y="0" on="0"/>
        <pt x="443" y="14" on="0"/>
        <pt x="441" y="24" on="1"/>
        <pt x="292" y="639" on="1"/>
        <pt x="291" y="639" on="1"/>
        <pt x="202" y="108" on="1"/>
        <pt x="200" y="97" on="0"/>
        <pt x="199" y="90" on="0"/>
        <pt x="199" y="87" on="1"/>
        <pt x="199" y="67" on="0"/>
        <pt x="221" y="45" on="0"/>
        <pt x="251" y="35" on="0"/>
        <pt x="281" y="33" on="0"/>
        <pt x="290" y="33" on="1"/>
        <pt x="285" y="0" on="1"/>
        <pt x="251" y="2" on="0"/>
        <pt x="189" y="3" on="0"/>
        <pt x="167" y="3" on="1"/>
        <pt x="139" y="3" on="0"/>
        <pt x="87" y="2" on="0"/>
        <pt x="49" y="0" on="1"/>
        <pt x="55" y="33" on="1"/>
        <pt x="93" y="33" on="0"/>
        <pt x="136" y="48" on="0"/>
        <pt x="158" y="71" on="0"/>
        <pt x="166" y="96" on="0"/>
        <pt x="167" y="105" on="1"/>
        <pt x="251" y="606" on="1"/>
        <pt x="253" y="616" on="0"/>
        <pt x="253" y="621" on="1"/>
        <pt x="253" y="638" on="0"/>
        <pt x="232" y="646" on="0"/>
        <pt x="216" y="648" on="1"/>
        <pt x="204" y="650" on="0"/>
        <pt x="177" y="650" on="0"/>
        <pt x="158" y="650" on="1"/>
        <pt x="163" y="683" on="1"/>
        <pt x="328" y="683" on="1"/>
        <pt x="339" y="683" on="0"/>
        <pt x="352" y="682" on="0"/>
        <pt x="359" y="677" on="0"/>
        <pt x="363" y="666" on="0"/>
        <pt x="365" y="657" on="1"/>
      </contour>
    </TTGlyph>
    <TTGlyph name="N" xMin="44" yMin="0" xMax="864" yMax="683">
      <contour>
        <pt x="640" y="148" on="1"/>
        <pt x="711" y="571" on="1"/>
        <pt x="713" y="584" on="0"/>
        <pt x="714" y="591" on="0"/>
        <pt x="714" y="596" on="1"/>
        <pt x="714" y="613" on="0"/>
        <pt x="699" y="634" on="0"/>
        <pt x="674" y="646" on="0"/>
        <pt x="641" y="650" on="0"/>
        <pt x="624" y="650" on="1"/>
        <pt x="630" y="683" on="1"/>
        <pt x="662" y="681" on="0"/>
        <pt x="725" y="680" on="0"/>
        <pt x="747" y="680" on="1"/>
        <pt x="776" y="680" on="0"/>
        <pt x="827" y="681" on="0"/>
        <pt x="864" y="683" on="1"/>
        <pt x="863" y="678" on="0"/>
        <pt x="860" y="653" on="0"/>
        <pt x="859" y="650" on="1"/>
        <pt x="803" y="650" on="0"/>
        <pt x="752" y="615" on="0"/>
        <pt x="747" y="581" on="1"/>
        <pt x="654" y="22" on="1"/>
        <pt x="652" y="11" on="0"/>
        <pt x="646" y="0" on="0"/>
        <pt x="635" y="0" on="1"/>
        <pt x="630" y="0" on="0"/>
        <pt x="621" y="4" on="0"/>
        <pt x="615" y="15" on="1"/>
        <pt x="292" y="602" on="1"/>
        <pt x="290" y="607" on="0"/>
        <pt x="284" y="614" on="0"/>
        <pt x="282" y="616" on="1"/>
        <pt x="197" y="106" on="1"/>
        <pt x="195" y="96" on="0"/>
        <pt x="194" y="89" on="0"/>
        <pt x="194" y="87" on="1"/>
        <pt x="194" y="67" on="0"/>
        <pt x="216" y="45" on="0"/>
        <pt x="246" y="35" on="0"/>
        <pt x="276" y="33" on="0"/>
        <pt x="285" y="33" on="1"/>
        <pt x="279" y="0" on="1"/>
        <pt x="247" y="2" on="0"/>
        <pt x="184" y="3" on="0"/>
        <pt x="162" y="3" on="1"/>
        <pt x="134" y="3" on="0"/>
        <pt x="82" y="2" on="0"/>
        <pt x="44" y="0" on="1"/>
        <pt x="50" y="33" on="1"/>
        <pt x="82" y="33" on="0"/>
        <pt x="123" y="44" on="0"/>
        <pt x="148" y="64" on="0"/>
        <pt x="160" y="89" on="0"/>
        <pt x="162" y="103" on="1"/>
        <pt x="251" y="640" on="1"/>
        <pt x="251" y="644" on="0"/>
        <pt x="231" y="648" on="0"/>
        <pt x="206" y="650" on="0"/>
        <pt x="183" y="650" on="0"/>
        <pt x="180" y="650" on="1"/>
        <pt x="153" y="650" on="1"/>
        <pt x="158" y="683" on="1"/>
        <pt x="322" y="683" on="1"/>
        <pt x="338" y="683" on="0"/>
        <pt x="347" y="680" on="0"/>
        <pt x="353" y="669" on="1"/>
      </contour>
    </TTGlyph>
    <TTGlyph name="O" xMin="110" yMin="-21" xMax="828" yMax="704">
      <contour>
        <pt x="828" y="400" on="1"/>
        <pt x="828" y="318" on="0"/>
        <pt x="759" y="165" on="0"/>
        <pt x="643" y="49" on="0"/>
        <pt x="491" y="-21" on="0"/>
        <pt x="409" y="-21" on="1"/>
        <pt x="343" y="-21" on="0"/>
        <pt x="233" y="25" on="0"/>
        <pt x="154" y="106" on="0"/>
        <pt x="110" y="215" on="0"/>
        <pt x="110" y="278" on="1"/>
        <pt x="110" y="359" on="0"/>
        <pt x="179" y="512" on="0"/>
        <pt x="294" y="632" on="0"/>
        <pt x="446" y="704" on="0"/>
        <pt x="530" y="704" on="1"/>
        <pt x="595" y="704" on="0"/>
        <pt x="705" y="658" on="0"/>
        <pt x="784" y="576" on="0"/>
        <pt x="828" y="465" on="0"/>
      </contour>
      <contour>
        <pt x="415" y="12" on="1"/>
        <pt x="481" y="12" on="0"/>
        <pt x="595" y="82" on="0"/>
        <pt x="680" y="200" on="0"/>
        <pt x="728" y="353" on="0"/>
        <pt x="728" y="435" on="1"/>
        <pt x="728" y="502" on="0"/>
        <pt x="690" y="593" on="0"/>
        <pt x="630" y="649" on="0"/>
        <pt x="558" y="673" on="0"/>
        <pt x="524" y="673" on="1"/>
        <pt x="466" y="673" on="0"/>
        <pt x="355" y="617" on="0"/>
        <pt x="268" y="510" on="0"/>
        <pt x="214" y="357" on="0"/>
        <pt x="214" y="261" on="1"/>
        <pt x="214" y="193" on="0"/>
        <pt x="250" y="98" on="0"/>
        <pt x="308" y="39" on="0"/>
        <pt x="380" y="12" on="0"/>
      </contour>
    </TTGlyph>
    <TTGlyph name="OE" xMin="124" yMin="-21" xMax="1102" yMax="704">
      <contour>
        <pt x="1002" y="0" on="1"/>
        <pt x="588" y="0" on="1"/>
        <pt x="580" y="0" on="0"/>
        <pt x="549" y="-2" on="0"/>
        <pt x="520" y="-8" on="1"/>
        <pt x="497" y="-13" on="0"/>
        <pt x="466" y="-18" on="0"/>
        <pt x="444" y="-20" on="0"/>
        <pt x="429" y="-21" on="0"/>
        <pt x="421" y="-21" on="1"/>
        <pt x="358" y="-21" on="0"/>
        <pt x="250" y="24" on="0"/>
        <pt x="170" y="103" on="0"/>
        <pt x="124" y="213" on="0"/>
        <pt x="124" y="278" on="1"/>
        <pt x="124" y="361" on="0"/>
        <pt x="194" y="514" on="0"/>
        <pt x="310" y="633" on="0"/>
        <pt x="461" y="704" on="0"/>
        <pt x="542" y="704" on="1"/>
        <pt x="549" y="704" on="0"/>
        <pt x="586" y="702" on="0"/>
        <pt x="622" y="694" on="1"/>
        <pt x="657" y="686" on="0"/>
        <pt x="692" y="683" on="0"/>
        <pt x="702" y="683" on="1"/>
        <pt x="1102" y="683" on="1"/>
        <pt x="1093" y="456" on="1"/>
        <pt x="1062" y="456" on="1"/>
        <pt x="1063" y="464" on="0"/>
        <pt x="1063" y="489" on="0"/>
        <pt x="1063" y="498" on="1"/>
        <pt x="1063" y="536" on="0"/>
        <pt x="1052" y="593" on="0"/>
        <pt x="1019" y="631" on="0"/>
        <pt x="957" y="650" on="0"/>
        <pt x="905" y="650" on="1"/>
        <pt x="781" y="650" on="1"/>
        <pt x="748" y="650" on="0"/>
        <pt x="731" y="636" on="0"/>
        <pt x="728" y="616" on="1"/>
        <pt x="687" y="371" on="1"/>
        <pt x="802" y="371" on="1"/>
        <pt x="839" y="371" on="0"/>
        <pt x="887" y="382" on="0"/>
        <pt x="919" y="408" on="0"/>
        <pt x="936" y="454" on="0"/>
        <pt x="941" y="488" on="1"/>
        <pt x="972" y="488" on="1"/>
        <pt x="928" y="221" on="1"/>
        <pt x="897" y="221" on="1"/>
        <pt x="901" y="242" on="0"/>
        <pt x="902" y="266" on="0"/>
        <pt x="902" y="268" on="1"/>
        <pt x="902" y="288" on="0"/>
        <pt x="892" y="314" on="0"/>
        <pt x="868" y="331" on="0"/>
        <pt x="828" y="338" on="0"/>
        <pt x="797" y="338" on="1"/>
        <pt x="682" y="338" on="1"/>
        <pt x="638" y="76" on="1"/>
        <pt x="636" y="64" on="0"/>
        <pt x="635" y="57" on="0"/>
        <pt x="635" y="54" on="1"/>
        <pt x="635" y="41" on="0"/>
        <pt x="652" y="33" on="0"/>
        <pt x="679" y="33" on="1"/>
        <pt x="803" y="33" on="1"/>
        <pt x="867" y="33" on="0"/>
        <pt x="949" y="61" on="0"/>
        <pt x="1003" y="117" on="0"/>
        <pt x="1039" y="203" on="0"/>
        <pt x="1058" y="260" on="1"/>
        <pt x="1089" y="260" on="1"/>
      </contour>
      <contour>
        <pt x="628" y="500" on="1"/>
        <pt x="634" y="536" on="0"/>
        <pt x="636" y="580" on="0"/>
        <pt x="636" y="586" on="1"/>
        <pt x="636" y="603" on="0"/>
        <pt x="632" y="635" on="0"/>
        <pt x="614" y="661" on="0"/>
        <pt x="576" y="676" on="0"/>
        <pt x="541" y="676" on="1"/>
        <pt x="482" y="676" on="0"/>
        <pt x="369" y="613" on="0"/>
        <pt x="280" y="505" on="0"/>
        <pt x="226" y="359" on="0"/>
        <pt x="226" y="276" on="1"/>
        <pt x="226" y="222" on="0"/>
        <pt x="253" y="124" on="0"/>
        <pt x="306" y="51" on="0"/>
        <pt x="382" y="7" on="0"/>
        <pt x="430" y="7" on="1"/>
        <pt x="462" y="7" on="0"/>
        <pt x="508" y="21" on="0"/>
        <pt x="542" y="59" on="0"/>
        <pt x="566" y="128" on="0"/>
        <pt x="575" y="182" on="1"/>
      </contour>
    </TTGlyph>
    <TTGlyph name="Oslash" xMin="110" yMin="-58" xMax="828" yMax="741">
      <contour>
        <pt x="738" y="624" on="1"/>
        <pt x="747" y="615" on="0"/>
        <pt x="777" y="579" on="0"/>
        <pt x="806" y="524" on="0"/>
        <pt x="828" y="448" on="0"/>
        <pt x="828" y="400" on="1"/>
        <pt x="828" y="318" on="0"/>
        <pt x="759" y="165" on="0"/>
        <pt x="643" y="49" on="0"/>
        <pt x="491" y="-21" on="0"/>
        <pt x="409" y="-21" on="1"/>
        <pt x="358" y="-21" on="0"/>
        <pt x="263" y="9" on="0"/>
        <pt x="222" y="40" on="1"/>
        <pt x="135" y="-58" on="1"/>
        <pt x="114" y="-40" on="1"/>
        <pt x="200" y="58" on="1"/>
        <pt x="191" y="67" on="0"/>
        <pt x="161" y="103" on="0"/>
        <pt x="132" y="157" on="0"/>
        <pt x="110" y="231" on="0"/>
        <pt x="110" y="278" on="1"/>
        <pt x="110" y="359" on="0"/>
        <pt x="179" y="512" on="0"/>
        <pt x="294" y="632" on="0"/>
        <pt x="446" y="704" on="0"/>
        <pt x="530" y="704" on="1"/>
        <pt x="538" y="704" on="0"/>
        <pt x="574" y="702" on="0"/>
        <pt x="625" y="691" on="0"/>
        <pt x="686" y="666" on="0"/>
        <pt x="717" y="643" on="1"/>
        <pt x="803" y="741" on="1"/>
        <pt x="825" y="723" on="1"/>
      </contour>
      <contour>
        <pt x="685" y="608" on="1"/>
        <pt x="683" y="611" on="0"/>
        <pt x="661" y="633" on="0"/>
        <pt x="621" y="657" on="0"/>
        <pt x="563" y="676" on="0"/>
        <pt x="525" y="676" on="1"/>
        <pt x="498" y="676" on="0"/>
        <pt x="440" y="664" on="0"/>
        <pt x="381" y="637" on="0"/>
        <pt x="323" y="593" on="0"/>
        <pt x="297" y="562" on="1"/>
        <pt x="266" y="525" on="0"/>
        <pt x="228" y="433" on="0"/>
        <pt x="207" y="344" on="0"/>
        <pt x="199" y="267" on="0"/>
        <pt x="199" y="243" on="1"/>
        <pt x="199" y="220" on="0"/>
        <pt x="208" y="143" on="0"/>
        <pt x="235" y="98" on="1"/>
      </contour>
      <contour>
        <pt x="253" y="74" on="1"/>
        <pt x="264" y="63" on="0"/>
        <pt x="293" y="39" on="0"/>
        <pt x="333" y="20" on="0"/>
        <pt x="383" y="7" on="0"/>
        <pt x="414" y="7" on="1"/>
        <pt x="473" y="7" on="0"/>
        <pt x="600" y="65" on="0"/>
        <pt x="651" y="131" on="1"/>
        <pt x="682" y="172" on="0"/>
        <pt x="717" y="270" on="0"/>
        <pt x="735" y="359" on="0"/>
        <pt x="740" y="427" on="0"/>
        <pt x="740" y="437" on="1"/>
        <pt x="740" y="442" on="0"/>
        <pt x="739" y="474" on="0"/>
        <pt x="732" y="516" on="0"/>
        <pt x="716" y="564" on="0"/>
        <pt x="702" y="584" on="1"/>
      </contour>
    </TTGlyph>
    <TTGlyph name="P" xMin="46" yMin="0" xMax="748" yMax="683">
      <contour>
        <pt x="253" y="82" on="1"/>
        <pt x="251" y="70" on="0"/>
        <pt x="250" y="63" on="0"/>
        <pt x="250" y="61" on="1"/>
        <pt x="250" y="53" on="0"/>
        <pt x="255" y="42" on="0"/>
        <pt x="271" y="36" on="0"/>
        <pt x="299" y="33" on="0"/>
        <pt x="323" y="33" on="1"/>
        <pt x="345" y="33" on="1"/>
        <pt x="340" y="0" on="1"/>
        <pt x="308" y="1" on="0"/>
        <pt x="271" y="2" on="0"/>
        <pt x="243" y="3" on="0"/>
        <pt x="216" y="3" on="0"/>
        <pt x="193" y="3" on="1"/>
        <pt x="171" y="3" on="0"/>
        <pt x="143" y="3" on="0"/>
        <pt x="114" y="2" on="0"/>
        <pt x="78" y="1" on="0"/>
        <pt x="46" y="0" on="1"/>
        <pt x="52" y="33" on="1"/>
        <pt x="74" y="33" on="1"/>
        <pt x="100" y="33" on="0"/>
        <pt x="131" y="37" on="0"/>
        <pt x="149" y="46" on="0"/>
        <pt x="158" y="63" on="0"/>
        <pt x="160" y="76" on="1"/>
        <pt x="248" y="608" on="1"/>
        <pt x="250" y="618" on="0"/>
        <pt x="250" y="621" on="1"/>
        <pt x="250" y="629" on="0"/>
        <pt x="245" y="640" on="0"/>
        <pt x="230" y="647" on="0"/>
        <pt x="201" y="650" on="0"/>
        <pt x="177" y="650" on="1"/>
        <pt x="155" y="650" on="1"/>
        <pt x="160" y="683" on="1"/>
        <pt x="527" y="683" on="1"/>
        <pt x="577" y="683" on="0"/>
        <pt x="659" y="656" on="0"/>
        <pt x="717" y="611" on="0"/>
        <pt x="748" y="552" on="0"/>
        <pt x="748" y="519" on="1"/>
        <pt x="748" y="477" on="0"/>
        <pt x="700" y="402" on="0"/>
        <pt x="623" y="345" on="0"/>
        <pt x="524" y="312" on="0"/>
        <pt x="473" y="312" on="1"/>
        <pt x="291" y="312" on="1"/>
      </contour>
      <contour>
        <pt x="293" y="342" on="1"/>
        <pt x="445" y="342" on="1"/>
        <pt x="479" y="342" on="0"/>
        <pt x="530" y="353" on="0"/>
        <pt x="567" y="369" on="0"/>
        <pt x="589" y="385" on="0"/>
        <pt x="594" y="390" on="1"/>
        <pt x="614" y="410" on="0"/>
        <pt x="635" y="460" on="0"/>
        <pt x="644" y="505" on="0"/>
        <pt x="646" y="538" on="0"/>
        <pt x="646" y="540" on="1"/>
        <pt x="646" y="572" on="0"/>
        <pt x="622" y="615" on="0"/>
        <pt x="581" y="640" on="0"/>
        <pt x="526" y="650" on="0"/>
        <pt x="496" y="650" on="1"/>
        <pt x="392" y="650" on="1"/>
        <pt x="359" y="650" on="0"/>
        <pt x="342" y="636" on="0"/>
        <pt x="339" y="616" on="1"/>
      </contour>
    </TTGlyph>
    <TTGlyph name="Phi" xMin="114" yMin="0" xMax="766" yMax="683">
      <contour>
        <pt x="514" y="547" on="1"/>
        <pt x="569" y="543" on="0"/>
        <pt x="662" y="511" on="0"/>
        <pt x="729" y="462" on="0"/>
        <pt x="766" y="399" on="0"/>
        <pt x="766" y="363" on="1"/>
        <pt x="766" y="318" on="0"/>
        <pt x="709" y="238" on="0"/>
        <pt x="618" y="177" on="0"/>
        <pt x="504" y="140" on="0"/>
        <pt x="446" y="137" on="1"/>
        <pt x="441" y="112" on="0"/>
        <pt x="436" y="83" on="0"/>
        <pt x="433" y="68" on="0"/>
        <pt x="433" y="63" on="0"/>
        <pt x="433" y="63" on="1"/>
        <pt x="433" y="46" on="0"/>
        <pt x="467" y="33" on="0"/>
        <pt x="521" y="33" on="1"/>
        <pt x="553" y="33" on="1"/>
        <pt x="548" y="0" on="1"/>
        <pt x="510" y="2" on="0"/>
        <pt x="419" y="3" on="0"/>
        <pt x="380" y="3" on="1"/>
        <pt x="362" y="3" on="0"/>
        <pt x="317" y="3" on="0"/>
        <pt x="271" y="2" on="0"/>
        <pt x="228" y="1" on="0"/>
        <pt x="211" y="0" on="1"/>
        <pt x="217" y="33" on="1"/>
        <pt x="249" y="33" on="1"/>
        <pt x="284" y="33" on="0"/>
        <pt x="323" y="38" on="0"/>
        <pt x="343" y="51" on="0"/>
        <pt x="349" y="73" on="0"/>
        <pt x="352" y="91" on="1"/>
        <pt x="360" y="137" on="1"/>
        <pt x="305" y="142" on="0"/>
        <pt x="214" y="174" on="0"/>
        <pt x="150" y="223" on="0"/>
        <pt x="114" y="286" on="0"/>
        <pt x="114" y="320" on="1"/>
        <pt x="114" y="359" on="0"/>
        <pt x="161" y="435" on="0"/>
        <pt x="244" y="497" on="0"/>
        <pt x="359" y="540" on="0"/>
        <pt x="428" y="546" on="1"/>
        <pt x="440" y="619" on="1"/>
        <pt x="440" y="637" on="0"/>
        <pt x="405" y="650" on="0"/>
        <pt x="352" y="650" on="1"/>
        <pt x="320" y="650" on="1"/>
        <pt x="321" y="655" on="0"/>
        <pt x="324" y="680" on="0"/>
        <pt x="325" y="683" on="1"/>
        <pt x="363" y="681" on="0"/>
        <pt x="453" y="680" on="0"/>
        <pt x="493" y="680" on="1"/>
        <pt x="511" y="680" on="0"/>
        <pt x="556" y="680" on="0"/>
        <pt x="602" y="681" on="0"/>
        <pt x="645" y="682" on="0"/>
        <pt x="662" y="683" on="1"/>
        <pt x="656" y="650" on="1"/>
        <pt x="624" y="650" on="1"/>
        <pt x="589" y="650" on="0"/>
        <pt x="550" y="645" on="0"/>
        <pt x="531" y="633" on="0"/>
        <pt x="524" y="611" on="0"/>
        <pt x="521" y="594" on="1"/>
      </contour>
      <contour>
        <pt x="423" y="518" on="1"/>
        <pt x="380" y="513" on="0"/>
        <pt x="304" y="483" on="0"/>
        <pt x="247" y="431" on="0"/>
        <pt x="214" y="355" on="0"/>
        <pt x="214" y="305" on="1"/>
        <pt x="214" y="239" on="0"/>
        <pt x="256" y="206" on="1"/>
        <pt x="263" y="200" on="0"/>
        <pt x="314" y="171" on="0"/>
        <pt x="364" y="166" on="1"/>
      </contour>
      <contour>
        <pt x="450" y="165" on="1"/>
        <pt x="514" y="170" on="0"/>
        <pt x="597" y="214" on="0"/>
        <pt x="646" y="275" on="0"/>
        <pt x="666" y="346" on="0"/>
        <pt x="666" y="378" on="1"/>
        <pt x="666" y="414" on="0"/>
        <pt x="641" y="465" on="0"/>
        <pt x="597" y="498" on="0"/>
        <pt x="541" y="515" on="0"/>
        <pt x="509" y="518" on="1"/>
      </contour>
    </TTGlyph>
    <TTGlyph name="Pi" xMin="44" yMin="0" xMax="864" yMax="680">
      <contour>
        <pt x="664" y="82" on="1"/>
        <pt x="662" y="70" on="0"/>
        <pt x="661" y="63" on="0"/>
        <pt x="661" y="61" on="1"/>
        <pt x="661" y="53" on="0"/>
        <pt x="666" y="42" on="0"/>
        <pt x="682" y="36" on="0"/>
        <pt x="710" y="33" on="0"/>
        <pt x="734" y="33" on="1"/>
        <pt x="756" y="33" on="1"/>
        <pt x="751" y="0" on="1"/>
        <pt x="719" y="1" on="0"/>
        <pt x="682" y="2" on="0"/>
        <pt x="654" y="3" on="0"/>
        <pt x="627" y="3" on="0"/>
        <pt x="604" y="3" on="1"/>
        <pt x="582" y="3" on="0"/>
        <pt x="554" y="3" on="0"/>
        <pt x="525" y="2" on="0"/>
        <pt x="489" y="1" on="0"/>
        <pt x="457" y="0" on="1"/>
        <pt x="463" y="33" on="1"/>
        <pt x="485" y="33" on="1"/>
        <pt x="514" y="33" on="0"/>
        <pt x="547" y="38" on="0"/>
        <pt x="563" y="48" on="0"/>
        <pt x="568" y="65" on="0"/>
        <pt x="570" y="77" on="1"/>
        <pt x="666" y="647" on="1"/>
        <pt x="345" y="647" on="1"/>
        <pt x="251" y="82" on="1"/>
        <pt x="249" y="70" on="0"/>
        <pt x="248" y="63" on="0"/>
        <pt x="248" y="61" on="1"/>
        <pt x="248" y="53" on="0"/>
        <pt x="253" y="42" on="0"/>
        <pt x="269" y="36" on="0"/>
        <pt x="297" y="33" on="0"/>
        <pt x="321" y="33" on="1"/>
        <pt x="343" y="33" on="1"/>
        <pt x="338" y="0" on="1"/>
        <pt x="306" y="1" on="0"/>
        <pt x="269" y="2" on="0"/>
        <pt x="241" y="3" on="0"/>
        <pt x="214" y="3" on="0"/>
        <pt x="191" y="3" on="1"/>
        <pt x="169" y="3" on="0"/>
        <pt x="141" y="3" on="0"/>
        <pt x="112" y="2" on="0"/>
        <pt x="76" y="1" on="0"/>
        <pt x="44" y="0" on="1"/>
        <pt x="50" y="33" on="1"/>
        <pt x="72" y="33" on="1"/>
        <pt x="98" y="33" on="0"/>
        <pt x="129" y="37" on="0"/>
        <pt x="147" y="46" on="0"/>
        <pt x="156" y="63" on="0"/>
        <pt x="158" y="76" on="1"/>
        <pt x="244" y="595" on="1"/>
        <pt x="246" y="608" on="0"/>
        <pt x="247" y="615" on="0"/>
        <pt x="247" y="618" on="1"/>
        <pt x="247" y="626" on="0"/>
        <pt x="243" y="636" on="0"/>
        <pt x="229" y="644" on="0"/>
        <pt x="200" y="647" on="0"/>
        <pt x="174" y="647" on="1"/>
        <pt x="152" y="647" on="1"/>
        <pt x="158" y="680" on="1"/>
        <pt x="864" y="680" on="1"/>
        <pt x="863" y="677" on="0"/>
        <pt x="860" y="652" on="0"/>
        <pt x="859" y="647" on="1"/>
        <pt x="836" y="647" on="1"/>
        <pt x="809" y="647" on="0"/>
        <pt x="777" y="643" on="0"/>
        <pt x="760" y="633" on="0"/>
        <pt x="753" y="617" on="0"/>
        <pt x="751" y="605" on="1"/>
      </contour>
    </TTGlyph>
    <TTGlyph name="Psi" xMin="150" yMin="0" xMax="856" yMax="683">
      <contour>
        <pt x="480" y="168" on="1"/>
        <pt x="537" y="180" on="0"/>
        <pt x="608" y="241" on="0"/>
        <pt x="650" y="315" on="0"/>
        <pt x="669" y="389" on="0"/>
        <pt x="674" y="414" on="1"/>
        <pt x="679" y="443" on="0"/>
        <pt x="697" y="495" on="0"/>
        <pt x="726" y="533" on="0"/>
        <pt x="766" y="555" on="0"/>
        <pt x="793" y="555" on="1"/>
        <pt x="828" y="555" on="1"/>
        <pt x="840" y="555" on="0"/>
        <pt x="856" y="552" on="0"/>
        <pt x="856" y="541" on="1"/>
        <pt x="856" y="534" on="0"/>
        <pt x="848" y="528" on="0"/>
        <pt x="845" y="527" on="1"/>
        <pt x="821" y="524" on="0"/>
        <pt x="790" y="499" on="0"/>
        <pt x="771" y="463" on="0"/>
        <pt x="761" y="420" on="0"/>
        <pt x="757" y="400" on="1"/>
        <pt x="736" y="289" on="0"/>
        <pt x="596" y="149" on="0"/>
        <pt x="475" y="137" on="1"/>
        <pt x="463" y="63" on="1"/>
        <pt x="463" y="46" on="0"/>
        <pt x="497" y="33" on="0"/>
        <pt x="551" y="33" on="1"/>
        <pt x="583" y="33" on="1"/>
        <pt x="578" y="0" on="1"/>
        <pt x="540" y="2" on="0"/>
        <pt x="449" y="3" on="0"/>
        <pt x="410" y="3" on="1"/>
        <pt x="392" y="3" on="0"/>
        <pt x="347" y="3" on="0"/>
        <pt x="301" y="2" on="0"/>
        <pt x="258" y="1" on="0"/>
        <pt x="241" y="0" on="1"/>
        <pt x="247" y="33" on="1"/>
        <pt x="279" y="33" on="1"/>
        <pt x="314" y="33" on="0"/>
        <pt x="353" y="38" on="0"/>
        <pt x="373" y="51" on="0"/>
        <pt x="379" y="73" on="0"/>
        <pt x="382" y="91" on="1"/>
        <pt x="390" y="137" on="1"/>
        <pt x="347" y="142" on="0"/>
        <pt x="277" y="173" on="0"/>
        <pt x="226" y="225" on="0"/>
        <pt x="198" y="300" on="0"/>
        <pt x="198" y="350" on="1"/>
        <pt x="198" y="358" on="0"/>
        <pt x="199" y="390" on="0"/>
        <pt x="204" y="416" on="1"/>
        <pt x="206" y="430" on="0"/>
        <pt x="207" y="448" on="0"/>
        <pt x="207" y="453" on="1"/>
        <pt x="207" y="479" on="0"/>
        <pt x="198" y="508" on="0"/>
        <pt x="184" y="522" on="0"/>
        <pt x="169" y="526" on="0"/>
        <pt x="163" y="527" on="1"/>
        <pt x="153" y="529" on="0"/>
        <pt x="150" y="540" on="0"/>
        <pt x="150" y="541" on="1"/>
        <pt x="150" y="552" on="0"/>
        <pt x="166" y="555" on="0"/>
        <pt x="178" y="555" on="1"/>
        <pt x="212" y="555" on="1"/>
        <pt x="221" y="555" on="0"/>
        <pt x="248" y="552" on="0"/>
        <pt x="274" y="533" on="0"/>
        <pt x="292" y="491" on="0"/>
        <pt x="292" y="453" on="1"/>
        <pt x="292" y="446" on="0"/>
        <pt x="291" y="423" on="0"/>
        <pt x="288" y="406" on="1"/>
        <pt x="283" y="377" on="0"/>
        <pt x="281" y="334" on="0"/>
        <pt x="281" y="333" on="1"/>
        <pt x="281" y="305" on="0"/>
        <pt x="292" y="252" on="0"/>
        <pt x="318" y="207" on="0"/>
        <pt x="362" y="174" on="0"/>
        <pt x="395" y="167" on="1"/>
        <pt x="467" y="601" on="1"/>
        <pt x="470" y="618" on="0"/>
        <pt x="470" y="619" on="1"/>
        <pt x="470" y="637" on="0"/>
        <pt x="435" y="650" on="0"/>
        <pt x="382" y="650" on="1"/>
        <pt x="350" y="650" on="1"/>
        <pt x="351" y="655" on="0"/>
        <pt x="354" y="680" on="0"/>
        <pt x="355" y="683" on="1"/>
        <pt x="393" y="681" on="0"/>
        <pt x="483" y="680" on="0"/>
        <pt x="523" y="680" on="1"/>
        <pt x="541" y="680" on="0"/>
        <pt x="586" y="680" on="0"/>
        <pt x="632" y="681" on="0"/>
        <pt x="675" y="682" on="0"/>
        <pt x="692" y="683" on="1"/>
        <pt x="686" y="650" on="1"/>
        <pt x="654" y="650" on="1"/>
        <pt x="622" y="650" on="0"/>
        <pt x="584" y="646" on="0"/>
        <pt x="563" y="636" on="0"/>
        <pt x="555" y="619" on="0"/>
        <pt x="553" y="606" on="1"/>
      </contour>
    </TTGlyph>
    <TTGlyph name="Q" xMin="110" yMin="-194" xMax="828" yMax="704">
      <contour>
        <pt x="551" y="7" on="1"/>
        <pt x="565" y="-44" on="0"/>
        <pt x="598" y="-90" on="0"/>
        <pt x="633" y="-90" on="1"/>
        <pt x="643" y="-90" on="0"/>
        <pt x="675" y="-83" on="0"/>
        <pt x="708" y="-63" on="0"/>
        <pt x="737" y="-27" on="0"/>
        <pt x="744" y="2" on="1"/>
        <pt x="745" y="3" on="0"/>
        <pt x="750" y="14" on="0"/>
        <pt x="758" y="14" on="1"/>
        <pt x="763" y="14" on="0"/>
        <pt x="772" y="7" on="0"/>
        <pt x="772" y="-1" on="1"/>
        <pt x="772" y="-6" on="0"/>
        <pt x="765" y="-38" on="0"/>
        <pt x="750" y="-80" on="0"/>
        <pt x="726" y="-128" on="0"/>
        <pt x="690" y="-168" on="0"/>
        <pt x="643" y="-194" on="0"/>
        <pt x="612" y="-194" on="1"/>
        <pt x="576" y="-194" on="0"/>
        <pt x="536" y="-161" on="0"/>
        <pt x="516" y="-109" on="0"/>
        <pt x="511" y="-42" on="0"/>
        <pt x="509" y="-7" on="1"/>
        <pt x="476" y="-16" on="0"/>
        <pt x="424" y="-21" on="0"/>
        <pt x="409" y="-21" on="1"/>
        <pt x="343" y="-21" on="0"/>
        <pt x="233" y="25" on="0"/>
        <pt x="154" y="106" on="0"/>
        <pt x="110" y="215" on="0"/>
        <pt x="110" y="278" on="1"/>
        <pt x="110" y="359" on="0"/>
        <pt x="179" y="512" on="0"/>
        <pt x="294" y="632" on="0"/>
        <pt x="446" y="704" on="0"/>
        <pt x="530" y="704" on="1"/>
        <pt x="595" y="704" on="0"/>
        <pt x="705" y="658" on="0"/>
        <pt x="784" y="576" on="0"/>
        <pt x="828" y="465" on="0"/>
        <pt x="828" y="400" on="1"/>
        <pt x="828" y="349" on="0"/>
        <pt x="796" y="236" on="0"/>
        <pt x="728" y="130" on="0"/>
        <pt x="623" y="37" on="0"/>
      </contour>
      <contour>
        <pt x="341" y="24" on="1"/>
        <pt x="338" y="32" on="0"/>
        <pt x="335" y="41" on="0"/>
        <pt x="335" y="55" on="1"/>
        <pt x="335" y="74" on="0"/>
        <pt x="351" y="108" on="0"/>
        <pt x="379" y="135" on="0"/>
        <pt x="415" y="151" on="0"/>
        <pt x="436" y="151" on="1"/>
        <pt x="463" y="151" on="0"/>
        <pt x="500" y="129" on="0"/>
        <pt x="523" y="96" on="0"/>
        <pt x="536" y="60" on="0"/>
        <pt x="540" y="46" on="1"/>
        <pt x="590" y="73" on="0"/>
        <pt x="661" y="161" on="0"/>
        <pt x="707" y="264" on="0"/>
        <pt x="729" y="375" on="0"/>
        <pt x="729" y="426" on="1"/>
        <pt x="729" y="492" on="0"/>
        <pt x="693" y="586" on="0"/>
        <pt x="634" y="645" on="0"/>
        <pt x="561" y="673" on="0"/>
        <pt x="524" y="673" on="1"/>
        <pt x="461" y="673" on="0"/>
        <pt x="346" y="608" on="0"/>
        <pt x="260" y="494" on="0"/>
        <pt x="209" y="341" on="0"/>
        <pt x="209" y="254" on="1"/>
        <pt x="209" y="160" on="0"/>
        <pt x="282" y="47" on="0"/>
      </contour>
      <contour>
        <pt x="507" y="30" on="1"/>
        <pt x="503" y="81" on="0"/>
        <pt x="467" y="123" on="0"/>
        <pt x="437" y="123" on="1"/>
        <pt x="421" y="123" on="0"/>
        <pt x="394" y="111" on="0"/>
        <pt x="374" y="91" on="0"/>
        <pt x="363" y="67" on="0"/>
        <pt x="363" y="55" on="1"/>
        <pt x="363" y="38" on="0"/>
        <pt x="376" y="20" on="0"/>
        <pt x="394" y="11" on="0"/>
        <pt x="411" y="10" on="0"/>
        <pt x="415" y="10" on="1"/>
        <pt x="421" y="10" on="0"/>
        <pt x="474" y="15" on="0"/>
      </contour>
    </TTGlyph>
    <TTGlyph name="R" xMin="46" yMin="-21" xMax="794" yMax="683">
      <contour>
        <pt x="530" y="340" on="1"/>
        <pt x="568" y="327" on="0"/>
        <pt x="610" y="289" on="0"/>
        <pt x="629" y="251" on="0"/>
        <pt x="632" y="217" on="0"/>
        <pt x="632" y="208" on="1"/>
        <pt x="632" y="202" on="0"/>
        <pt x="631" y="172" on="0"/>
        <pt x="630" y="137" on="0"/>
        <pt x="629" y="105" on="0"/>
        <pt x="629" y="99" on="1"/>
        <pt x="629" y="51" on="0"/>
        <pt x="649" y="7" on="0"/>
        <pt x="678" y="7" on="1"/>
        <pt x="708" y="7" on="0"/>
        <pt x="753" y="56" on="0"/>
        <pt x="761" y="88" on="1"/>
        <pt x="764" y="100" on="0"/>
        <pt x="770" y="110" on="0"/>
        <pt x="779" y="110" on="1"/>
        <pt x="785" y="110" on="0"/>
        <pt x="794" y="103" on="0"/>
        <pt x="794" y="95" on="1"/>
        <pt x="794" y="88" on="0"/>
        <pt x="782" y="50" on="0"/>
        <pt x="754" y="10" on="0"/>
        <pt x="708" y="-21" on="0"/>
        <pt x="674" y="-21" on="1"/>
        <pt x="646" y="-21" on="0"/>
        <pt x="591" y="-8" on="0"/>
        <pt x="549" y="21" on="0"/>
        <pt x="523" y="67" on="0"/>
        <pt x="523" y="99" on="1"/>
        <pt x="523" y="108" on="0"/>
        <pt x="528" y="138" on="0"/>
        <pt x="531" y="157" on="1"/>
        <pt x="535" y="181" on="0"/>
        <pt x="540" y="208" on="0"/>
        <pt x="542" y="223" on="0"/>
        <pt x="542" y="229" on="0"/>
        <pt x="542" y="230" on="1"/>
        <pt x="542" y="246" on="0"/>
        <pt x="529" y="280" on="0"/>
        <pt x="500" y="309" on="0"/>
        <pt x="453" y="328" on="0"/>
        <pt x="419" y="328" on="1"/>
        <pt x="291" y="328" on="1"/>
        <pt x="250" y="82" on="1"/>
        <pt x="248" y="70" on="0"/>
        <pt x="247" y="63" on="0"/>
        <pt x="247" y="61" on="1"/>
        <pt x="247" y="53" on="0"/>
        <pt x="252" y="42" on="0"/>
        <pt x="268" y="36" on="0"/>
        <pt x="296" y="33" on="0"/>
        <pt x="320" y="33" on="1"/>
        <pt x="342" y="33" on="1"/>
        <pt x="337" y="0" on="1"/>
        <pt x="305" y="1" on="0"/>
        <pt x="268" y="2" on="0"/>
        <pt x="241" y="3" on="0"/>
        <pt x="214" y="3" on="0"/>
        <pt x="192" y="3" on="1"/>
        <pt x="170" y="3" on="0"/>
        <pt x="143" y="3" on="0"/>
        <pt x="115" y="2" on="0"/>
        <pt x="78" y="1" on="0"/>
        <pt x="46" y="0" on="1"/>
        <pt x="52" y="33" on="1"/>
        <pt x="74" y="33" on="1"/>
        <pt x="100" y="33" on="0"/>
        <pt x="131" y="37" on="0"/>
        <pt x="149" y="46" on="0"/>
        <pt x="158" y="63" on="0"/>
        <pt x="160" y="76" on="1"/>
        <pt x="248" y="608" on="1"/>
        <pt x="250" y="618" on="0"/>
        <pt x="250" y="621" on="1"/>
        <pt x="250" y="629" on="0"/>
        <pt x="245" y="640" on="0"/>
        <pt x="230" y="647" on="0"/>
        <pt x="201" y="650" on="0"/>
        <pt x="177" y="650" on="1"/>
        <pt x="155" y="650" on="1"/>
        <pt x="160" y="683" on="1"/>
        <pt x="486" y="683" on="1"/>
        <pt x="536" y="683" on="0"/>
        <pt x="626" y="660" on="0"/>
        <pt x="693" y="617" on="0"/>
        <pt x="733" y="558" on="0"/>
        <pt x="733" y="522" on="1"/>
        <pt x="733" y="486" on="0"/>
        <pt x="695" y="426" on="0"/>
        <pt x="636" y="380" on="0"/>
        <pt x="564" y="348" on="0"/>
      </contour>
      <contour>
        <pt x="418" y="356" on="1"/>
        <pt x="462" y="356" on="0"/>
        <pt x="539" y="375" on="0"/>
        <pt x="597" y="418" on="0"/>
        <pt x="631" y="487" on="0"/>
        <pt x="631" y="537" on="1"/>
        <pt x="631" y="579" on="0"/>
        <pt x="591" y="625" on="0"/>
        <pt x="531" y="646" on="0"/>
        <pt x="461" y="650" on="0"/>
        <pt x="430" y="650" on="1"/>
        <pt x="414" y="650" on="0"/>
        <pt x="374" y="650" on="0"/>
        <pt x="366" y="649" on="1"/>
        <pt x="349" y="646" on="0"/>
        <pt x="341" y="628" on="0"/>
        <pt x="339" y="616" on="1"/>
        <pt x="296" y="356" on="1"/>
      </contour>
    </TTGlyph>
    <TTGlyph name="S" xMin="58" yMin="-21" xMax="615" yMax="704">
      <contour>
        <pt x="437" y="385" on="1"/>
        <pt x="458" y="380" on="0"/>
        <pt x="503" y="354" on="0"/>
        <pt x="540" y="312" on="0"/>
        <pt x="564" y="254" on="0"/>
        <pt x="564" y="217" on="1"/>
        <pt x="564" y="173" on="0"/>
        <pt x="527" y="88" on="0"/>
        <pt x="461" y="20" on="0"/>
        <pt x="371" y="-21" on="0"/>
        <pt x="319" y="-21" on="1"/>
        <pt x="307" y="-21" on="0"/>
        <pt x="262" y="-18" on="0"/>
        <pt x="209" y="-4" on="0"/>
        <pt x="154" y="24" on="0"/>
        <pt x="133" y="49" on="1"/>
        <pt x="87" y="-9" on="1"/>
        <pt x="81" y="-17" on="0"/>
        <pt x="76" y="-21" on="0"/>
        <pt x="71" y="-21" on="1"/>
        <pt x="61" y="-21" on="0"/>
        <pt x="58" y="-10" on="0"/>
        <pt x="58" y="-9" on="1"/>
        <pt x="93" y="206" on="1"/>
        <pt x="95" y="217" on="0"/>
        <pt x="100" y="227" on="0"/>
        <pt x="110" y="227" on="1"/>
        <pt x="113" y="227" on="0"/>
        <pt x="126" y="223" on="0"/>
        <pt x="126" y="214" on="1"/>
        <pt x="126" y="213" on="0"/>
        <pt x="122" y="185" on="0"/>
        <pt x="122" y="173" on="1"/>
        <pt x="122" y="127" on="0"/>
        <pt x="157" y="66" on="0"/>
        <pt x="214" y="28" on="0"/>
        <pt x="285" y="12" on="0"/>
        <pt x="320" y="12" on="1"/>
        <pt x="358" y="12" on="0"/>
        <pt x="423" y="42" on="0"/>
        <pt x="469" y="90" on="0"/>
        <pt x="495" y="150" on="0"/>
        <pt x="495" y="179" on="1"/>
        <pt x="495" y="209" on="0"/>
        <pt x="474" y="251" on="0"/>
        <pt x="463" y="262" on="1"/>
        <pt x="454" y="271" on="0"/>
        <pt x="439" y="281" on="0"/>
        <pt x="416" y="290" on="0"/>
        <pt x="382" y="299" on="0"/>
        <pt x="354" y="305" on="1"/>
        <pt x="341" y="308" on="0"/>
        <pt x="308" y="316" on="0"/>
        <pt x="278" y="324" on="0"/>
        <pt x="254" y="330" on="0"/>
        <pt x="249" y="332" on="1"/>
        <pt x="205" y="348" on="0"/>
        <pt x="142" y="427" on="0"/>
        <pt x="142" y="484" on="1"/>
        <pt x="142" y="526" on="0"/>
        <pt x="180" y="606" on="0"/>
        <pt x="246" y="667" on="0"/>
        <pt x="333" y="704" on="0"/>
        <pt x="382" y="704" on="1"/>
        <pt x="391" y="704" on="0"/>
        <pt x="428" y="701" on="0"/>
        <pt x="473" y="688" on="0"/>
        <pt x="521" y="660" on="0"/>
        <pt x="540" y="634" on="1"/>
        <pt x="586" y="692" on="1"/>
        <pt x="593" y="700" on="0"/>
        <pt x="597" y="704" on="0"/>
        <pt x="602" y="704" on="1"/>
        <pt x="610" y="704" on="0"/>
        <pt x="615" y="695" on="0"/>
        <pt x="615" y="690" on="1"/>
        <pt x="580" y="477" on="1"/>
        <pt x="578" y="465" on="0"/>
        <pt x="572" y="456" on="0"/>
        <pt x="563" y="456" on="1"/>
        <pt x="560" y="456" on="0"/>
        <pt x="548" y="459" on="0"/>
        <pt x="547" y="468" on="1"/>
        <pt x="548" y="493" on="1"/>
        <pt x="548" y="519" on="0"/>
        <pt x="536" y="582" on="0"/>
        <pt x="500" y="637" on="0"/>
        <pt x="435" y="674" on="0"/>
        <pt x="381" y="674" on="1"/>
        <pt x="346" y="674" on="0"/>
        <pt x="284" y="648" on="0"/>
        <pt x="238" y="606" on="0"/>
        <pt x="211" y="552" on="0"/>
        <pt x="211" y="523" on="1"/>
        <pt x="211" y="500" on="0"/>
        <pt x="227" y="464" on="0"/>
        <pt x="252" y="438" on="0"/>
        <pt x="283" y="421" on="0"/>
        <pt x="298" y="418" on="1"/>
      </contour>
    </TTGlyph>
    <TTGlyph name="Sigma" xMin="62" yMin="0" xMax="792" yMax="683">
      <contour>
        <pt x="138" y="45" on="1"/>
        <pt x="428" y="45" on="1"/>
        <pt x="490" y="45" on="0"/>
        <pt x="582" y="58" on="0"/>
        <pt x="650" y="100" on="0"/>
        <pt x="698" y="176" on="0"/>
        <pt x="716" y="239" on="1"/>
        <pt x="747" y="239" on="1"/>
        <pt x="678" y="0" on="1"/>
        <pt x="90" y="0" on="1"/>
        <pt x="79" y="0" on="0"/>
        <pt x="62" y="3" on="0"/>
        <pt x="62" y="14" on="1"/>
        <pt x="62" y="18" on="0"/>
        <pt x="66" y="23" on="0"/>
        <pt x="74" y="31" on="1"/>
        <pt x="372" y="301" on="1"/>
        <pt x="170" y="659" on="1"/>
        <pt x="170" y="677" on="0"/>
        <pt x="182" y="683" on="0"/>
        <pt x="199" y="683" on="1"/>
        <pt x="792" y="683" on="1"/>
        <pt x="783" y="456" on="1"/>
        <pt x="752" y="456" on="1"/>
        <pt x="752" y="489" on="1"/>
        <pt x="752" y="542" on="0"/>
        <pt x="723" y="606" on="0"/>
        <pt x="667" y="640" on="0"/>
        <pt x="585" y="650" on="0"/>
        <pt x="532" y="650" on="1"/>
        <pt x="287" y="650" on="1"/>
        <pt x="453" y="355" on="1"/>
        <pt x="457" y="348" on="0"/>
        <pt x="458" y="344" on="0"/>
        <pt x="458" y="342" on="1"/>
        <pt x="458" y="339" on="0"/>
        <pt x="455" y="331" on="0"/>
        <pt x="446" y="323" on="1"/>
      </contour>
    </TTGlyph>
    <TTGlyph name="T" xMin="113" yMin="0" xMax="821" yMax="676">
      <contour>
        <pt x="443" y="82" on="1"/>
        <pt x="440" y="66" on="0"/>
        <pt x="440" y="64" on="1"/>
        <pt x="440" y="52" on="0"/>
        <pt x="456" y="40" on="0"/>
        <pt x="483" y="34" on="0"/>
        <pt x="519" y="33" on="0"/>
        <pt x="538" y="33" on="1"/>
        <pt x="577" y="33" on="1"/>
        <pt x="571" y="0" on="1"/>
        <pt x="557" y="1" on="0"/>
        <pt x="507" y="2" on="0"/>
        <pt x="452" y="3" on="0"/>
        <pt x="399" y="3" on="0"/>
        <pt x="383" y="3" on="1"/>
        <pt x="367" y="3" on="0"/>
        <pt x="315" y="3" on="0"/>
        <pt x="259" y="2" on="0"/>
        <pt x="209" y="1" on="0"/>
        <pt x="195" y="0" on="1"/>
        <pt x="200" y="33" on="1"/>
        <pt x="239" y="33" on="1"/>
        <pt x="274" y="33" on="0"/>
        <pt x="316" y="37" on="0"/>
        <pt x="339" y="47" on="0"/>
        <pt x="348" y="64" on="0"/>
        <pt x="350" y="77" on="1"/>
        <pt x="437" y="601" on="1"/>
        <pt x="439" y="613" on="0"/>
        <pt x="440" y="620" on="0"/>
        <pt x="440" y="622" on="1"/>
        <pt x="440" y="635" on="0"/>
        <pt x="425" y="641" on="0"/>
        <pt x="414" y="643" on="1"/>
        <pt x="366" y="643" on="1"/>
        <pt x="308" y="643" on="0"/>
        <pt x="236" y="629" on="0"/>
        <pt x="189" y="588" on="0"/>
        <pt x="160" y="512" on="0"/>
        <pt x="144" y="449" on="1"/>
        <pt x="113" y="449" on="1"/>
        <pt x="171" y="676" on="1"/>
        <pt x="821" y="676" on="1"/>
        <pt x="803" y="449" on="1"/>
        <pt x="772" y="449" on="1"/>
        <pt x="772" y="457" on="0"/>
        <pt x="774" y="477" on="0"/>
        <pt x="775" y="498" on="0"/>
        <pt x="776" y="517" on="0"/>
        <pt x="776" y="522" on="1"/>
        <pt x="776" y="563" on="0"/>
        <pt x="759" y="611" on="0"/>
        <pt x="720" y="636" on="0"/>
        <pt x="658" y="643" on="0"/>
        <pt x="614" y="643" on="1"/>
        <pt x="600" y="643" on="0"/>
        <pt x="563" y="643" on="0"/>
        <pt x="556" y="641" on="1"/>
        <pt x="545" y="639" on="0"/>
        <pt x="533" y="625" on="0"/>
        <pt x="530" y="607" on="1"/>
      </contour>
    </TTGlyph>
    <TTGlyph name="Theta" xMin="110" yMin="-21" xMax="828" yMax="704">
      <contour>
        <pt x="828" y="400" on="1"/>
        <pt x="828" y="318" on="0"/>
        <pt x="759" y="165" on="0"/>
        <pt x="643" y="49" on="0"/>
        <pt x="491" y="-21" on="0"/>
        <pt x="409" y="-21" on="1"/>
        <pt x="343" y="-21" on="0"/>
        <pt x="233" y="25" on="0"/>
        <pt x="154" y="106" on="0"/>
        <pt x="110" y="215" on="0"/>
        <pt x="110" y="278" on="1"/>
        <pt x="110" y="359" on="0"/>
        <pt x="179" y="512" on="0"/>
        <pt x="294" y="632" on="0"/>
        <pt x="446" y="704" on="0"/>
        <pt x="530" y="704" on="1"/>
        <pt x="595" y="704" on="0"/>
        <pt x="705" y="658" on="0"/>
        <pt x="784" y="576" on="0"/>
        <pt x="828" y="465" on="0"/>
      </contour>
      <contour>
        <pt x="414" y="9" on="1"/>
        <pt x="478" y="9" on="0"/>
        <pt x="593" y="72" on="0"/>
        <pt x="681" y="183" on="0"/>
        <pt x="733" y="336" on="0"/>
        <pt x="733" y="425" on="1"/>
        <pt x="733" y="492" on="0"/>
        <pt x="696" y="587" on="0"/>
        <pt x="637" y="648" on="0"/>
        <pt x="563" y="676" on="0"/>
        <pt x="525" y="676" on="1"/>
        <pt x="460" y="676" on="0"/>
        <pt x="343" y="609" on="0"/>
        <pt x="256" y="494" on="0"/>
        <pt x="205" y="341" on="0"/>
        <pt x="205" y="255" on="1"/>
        <pt x="205" y="190" on="0"/>
        <pt x="242" y="97" on="0"/>
        <pt x="301" y="37" on="0"/>
        <pt x="376" y="9" on="0"/>
      </contour>
      <contour>
        <pt x="654" y="269" on="1"/>
        <pt x="623" y="269" on="1"/>
        <pt x="628" y="303" on="1"/>
        <pt x="297" y="303" on="1"/>
        <pt x="292" y="269" on="1"/>
        <pt x="261" y="269" on="1"/>
        <pt x="285" y="416" on="1"/>
        <pt x="316" y="416" on="1"/>
        <pt x="311" y="382" on="1"/>
        <pt x="642" y="382" on="1"/>
        <pt x="647" y="416" on="1"/>
        <pt x="678" y="416" on="1"/>
      </contour>
    </TTGlyph>
    <TTGlyph name="U" xMin="153" yMin="-21" xMax="864" yMax="683">
      <contour>
        <pt x="688" y="224" on="1"/>
        <pt x="681" y="178" on="0"/>
        <pt x="631" y="90" on="0"/>
        <pt x="557" y="21" on="0"/>
        <pt x="463" y="-21" on="0"/>
        <pt x="410" y="-21" on="1"/>
        <pt x="361" y="-21" on="0"/>
        <pt x="277" y="11" on="0"/>
        <pt x="215" y="67" on="0"/>
        <pt x="180" y="146" on="0"/>
        <pt x="180" y="192" on="1"/>
        <pt x="180" y="203" on="0"/>
        <pt x="181" y="216" on="0"/>
        <pt x="183" y="228" on="1"/>
        <pt x="246" y="608" on="1"/>
        <pt x="248" y="618" on="0"/>
        <pt x="248" y="621" on="1"/>
        <pt x="248" y="629" on="0"/>
        <pt x="243" y="640" on="0"/>
        <pt x="228" y="647" on="0"/>
        <pt x="199" y="650" on="0"/>
        <pt x="175" y="650" on="1"/>
        <pt x="153" y="650" on="1"/>
        <pt x="158" y="683" on="1"/>
        <pt x="190" y="682" on="0"/>
        <pt x="227" y="681" on="0"/>
        <pt x="255" y="680" on="0"/>
        <pt x="283" y="680" on="0"/>
        <pt x="305" y="680" on="1"/>
        <pt x="327" y="680" on="0"/>
        <pt x="354" y="680" on="0"/>
        <pt x="382" y="681" on="0"/>
        <pt x="419" y="682" on="0"/>
        <pt x="451" y="683" on="1"/>
        <pt x="446" y="650" on="1"/>
        <pt x="424" y="650" on="1"/>
        <pt x="397" y="650" on="0"/>
        <pt x="365" y="646" on="0"/>
        <pt x="347" y="636" on="0"/>
        <pt x="340" y="619" on="0"/>
        <pt x="338" y="606" on="1"/>
        <pt x="274" y="219" on="1"/>
        <pt x="272" y="205" on="0"/>
        <pt x="269" y="184" on="0"/>
        <pt x="269" y="167" on="1"/>
        <pt x="269" y="124" on="0"/>
        <pt x="295" y="65" on="0"/>
        <pt x="337" y="28" on="0"/>
        <pt x="388" y="12" on="0"/>
        <pt x="413" y="12" on="1"/>
        <pt x="455" y="12" on="0"/>
        <pt x="536" y="46" on="0"/>
        <pt x="602" y="104" on="0"/>
        <pt x="648" y="184" on="0"/>
        <pt x="655" y="229" on="1"/>
        <pt x="712" y="571" on="1"/>
        <pt x="714" y="584" on="0"/>
        <pt x="715" y="591" on="0"/>
        <pt x="715" y="596" on="1"/>
        <pt x="715" y="613" on="0"/>
        <pt x="700" y="634" on="0"/>
        <pt x="675" y="646" on="0"/>
        <pt x="642" y="650" on="0"/>
        <pt x="625" y="650" on="1"/>
        <pt x="631" y="683" on="1"/>
        <pt x="663" y="681" on="0"/>
        <pt x="726" y="680" on="0"/>
        <pt x="747" y="680" on="1"/>
        <pt x="776" y="680" on="0"/>
        <pt x="827" y="681" on="0"/>
        <pt x="864" y="683" on="1"/>
        <pt x="863" y="678" on="0"/>
        <pt x="860" y="653" on="0"/>
        <pt x="859" y="650" on="1"/>
        <pt x="805" y="650" on="0"/>
        <pt x="753" y="616" on="0"/>
        <pt x="747" y="581" on="1"/>
      </contour>
    </TTGlyph>
    <TTGlyph name="Upsilon" xMin="150" yMin="0" xMax="860" yMax="704">
      <contour>
        <pt x="417" y="304" on="1"/>
        <pt x="422" y="329" on="0"/>
        <pt x="427" y="364" on="0"/>
        <pt x="431" y="392" on="0"/>
        <pt x="432" y="418" on="0"/>
        <pt x="432" y="433" on="1"/>
        <pt x="432" y="466" on="0"/>
        <pt x="421" y="535" on="0"/>
        <pt x="391" y="590" on="0"/>
        <pt x="340" y="626" on="0"/>
        <pt x="301" y="626" on="1"/>
        <pt x="285" y="626" on="0"/>
        <pt x="248" y="618" on="0"/>
        <pt x="215" y="600" on="0"/>
        <pt x="190" y="572" on="0"/>
        <pt x="184" y="553" on="1"/>
        <pt x="182" y="545" on="0"/>
        <pt x="175" y="532" on="0"/>
        <pt x="164" y="532" on="1"/>
        <pt x="150" y="532" on="0"/>
        <pt x="150" y="545" on="1"/>
        <pt x="150" y="559" on="0"/>
        <pt x="170" y="612" on="0"/>
        <pt x="212" y="664" on="0"/>
        <pt x="274" y="704" on="0"/>
        <pt x="316" y="704" on="1"/>
        <pt x="349" y="704" on="0"/>
        <pt x="410" y="679" on="0"/>
        <pt x="457" y="622" on="0"/>
        <pt x="487" y="530" on="0"/>
        <pt x="488" y="464" on="1"/>
        <pt x="488" y="463" on="0"/>
        <pt x="489" y="462" on="0"/>
        <pt x="489" y="460" on="1"/>
        <pt x="489" y="459" on="0"/>
        <pt x="490" y="458" on="1"/>
        <pt x="491" y="458" on="1"/>
        <pt x="508" y="509" on="0"/>
        <pt x="557" y="598" on="0"/>
        <pt x="622" y="665" on="0"/>
        <pt x="699" y="704" on="0"/>
        <pt x="744" y="704" on="1"/>
        <pt x="774" y="704" on="0"/>
        <pt x="818" y="681" on="0"/>
        <pt x="846" y="644" on="0"/>
        <pt x="860" y="599" on="0"/>
        <pt x="860" y="576" on="1"/>
        <pt x="860" y="553" on="0"/>
        <pt x="851" y="532" on="0"/>
        <pt x="838" y="532" on="1"/>
        <pt x="831" y="532" on="0"/>
        <pt x="824" y="539" on="0"/>
        <pt x="823" y="548" on="0"/>
        <pt x="825" y="556" on="0"/>
        <pt x="825" y="557" on="1"/>
        <pt x="824" y="580" on="0"/>
        <pt x="801" y="608" on="0"/>
        <pt x="771" y="622" on="0"/>
        <pt x="741" y="626" on="0"/>
        <pt x="732" y="626" on="1"/>
        <pt x="691" y="626" on="0"/>
        <pt x="621" y="583" on="0"/>
        <pt x="566" y="507" on="0"/>
        <pt x="527" y="402" on="0"/>
        <pt x="516" y="340" on="1"/>
        <pt x="515" y="333" on="0"/>
        <pt x="507" y="287" on="0"/>
        <pt x="497" y="227" on="0"/>
        <pt x="486" y="160" on="0"/>
        <pt x="476" y="103" on="0"/>
        <pt x="470" y="64" on="0"/>
        <pt x="470" y="63" on="1"/>
        <pt x="470" y="44" on="0"/>
        <pt x="498" y="37" on="0"/>
        <pt x="514" y="35" on="1"/>
        <pt x="532" y="33" on="0"/>
        <pt x="564" y="33" on="0"/>
        <pt x="590" y="33" on="1"/>
        <pt x="585" y="0" on="1"/>
        <pt x="568" y="1" on="0"/>
        <pt x="524" y="2" on="0"/>
        <pt x="477" y="3" on="0"/>
        <pt x="431" y="3" on="0"/>
        <pt x="413" y="3" on="1"/>
        <pt x="396" y="3" on="0"/>
        <pt x="350" y="3" on="0"/>
        <pt x="301" y="2" on="0"/>
        <pt x="256" y="1" on="0"/>
        <pt x="241" y="0" on="1"/>
        <pt x="247" y="33" on="1"/>
        <pt x="277" y="33" on="0"/>
        <pt x="335" y="34" on="0"/>
        <pt x="354" y="39" on="1"/>
        <pt x="369" y="44" on="0"/>
        <pt x="379" y="71" on="0"/>
        <pt x="385" y="106" on="1"/>
      </contour>
    </TTGlyph>
    <TTGlyph name="V" xMin="130" yMin="-21" xMax="887" yMax="683">
      <contour>
        <pt x="423" y="-1" on="1"/>
        <pt x="418" y="-9" on="0"/>
        <pt x="408" y="-21" on="0"/>
        <pt x="394" y="-21" on="1"/>
        <pt x="381" y="-21" on="0"/>
        <pt x="373" y="-9" on="0"/>
        <pt x="370" y="3" on="1"/>
        <pt x="223" y="608" on="1"/>
        <pt x="219" y="624" on="0"/>
        <pt x="208" y="641" on="0"/>
        <pt x="187" y="649" on="0"/>
        <pt x="154" y="650" on="0"/>
        <pt x="130" y="650" on="1"/>
        <pt x="136" y="683" on="1"/>
        <pt x="170" y="681" on="0"/>
        <pt x="237" y="680" on="0"/>
        <pt x="264" y="680" on="1"/>
        <pt x="284" y="680" on="0"/>
        <pt x="309" y="680" on="0"/>
        <pt x="336" y="681" on="0"/>
        <pt x="373" y="682" on="0"/>
        <pt x="405" y="683" on="1"/>
        <pt x="400" y="650" on="1"/>
        <pt x="390" y="650" on="0"/>
        <pt x="361" y="649" on="0"/>
        <pt x="335" y="643" on="0"/>
        <pt x="317" y="629" on="0"/>
        <pt x="317" y="617" on="1"/>
        <pt x="443" y="95" on="1"/>
        <pt x="723" y="579" on="1"/>
        <pt x="726" y="584" on="0"/>
        <pt x="733" y="599" on="0"/>
        <pt x="733" y="608" on="1"/>
        <pt x="733" y="622" on="0"/>
        <pt x="717" y="639" on="0"/>
        <pt x="697" y="648" on="0"/>
        <pt x="677" y="651" on="0"/>
        <pt x="672" y="651" on="1"/>
        <pt x="678" y="683" on="1"/>
        <pt x="710" y="681" on="0"/>
        <pt x="772" y="680" on="0"/>
        <pt x="787" y="680" on="1"/>
        <pt x="794" y="680" on="0"/>
        <pt x="819" y="680" on="0"/>
        <pt x="847" y="681" on="0"/>
        <pt x="876" y="682" on="0"/>
        <pt x="887" y="683" on="1"/>
        <pt x="882" y="650" on="1"/>
        <pt x="874" y="650" on="0"/>
        <pt x="845" y="648" on="0"/>
        <pt x="810" y="635" on="0"/>
        <pt x="775" y="608" on="0"/>
        <pt x="761" y="584" on="1"/>
      </contour>
    </TTGlyph>
    <TTGlyph name="W" xMin="129" yMin="-21" xMax="1183" yMax="683">
      <contour>
        <pt x="770" y="2" on="1"/>
        <pt x="765" y="-8" on="0"/>
        <pt x="754" y="-21" on="0"/>
        <pt x="742" y="-21" on="1"/>
        <pt x="730" y="-21" on="0"/>
        <pt x="723" y="-8" on="0"/>
        <pt x="721" y="6" on="1"/>
        <pt x="630" y="512" on="1"/>
        <pt x="368" y="0" on="1"/>
        <pt x="363" y="-8" on="0"/>
        <pt x="353" y="-21" on="0"/>
        <pt x="341" y="-21" on="1"/>
        <pt x="329" y="-21" on="0"/>
        <pt x="322" y="-7" on="0"/>
        <pt x="320" y="6" on="1"/>
        <pt x="213" y="604" on="1"/>
        <pt x="210" y="619" on="0"/>
        <pt x="204" y="638" on="0"/>
        <pt x="188" y="647" on="0"/>
        <pt x="156" y="650" on="0"/>
        <pt x="129" y="650" on="1"/>
        <pt x="134" y="683" on="1"/>
        <pt x="168" y="681" on="0"/>
        <pt x="230" y="680" on="0"/>
        <pt x="259" y="680" on="1"/>
        <pt x="278" y="680" on="0"/>
        <pt x="302" y="680" on="0"/>
        <pt x="328" y="681" on="0"/>
        <pt x="365" y="682" on="0"/>
        <pt x="397" y="683" on="1"/>
        <pt x="392" y="650" on="1"/>
        <pt x="383" y="650" on="0"/>
        <pt x="353" y="649" on="0"/>
        <pt x="325" y="643" on="0"/>
        <pt x="305" y="629" on="0"/>
        <pt x="305" y="616" on="1"/>
        <pt x="305" y="612" on="0"/>
        <pt x="305" y="607" on="0"/>
        <pt x="307" y="600" on="1"/>
        <pt x="394" y="115" on="1"/>
        <pt x="615" y="547" on="1"/>
        <pt x="620" y="555" on="0"/>
        <pt x="621" y="560" on="0"/>
        <pt x="621" y="561" on="1"/>
        <pt x="621" y="566" on="0"/>
        <pt x="618" y="587" on="0"/>
        <pt x="612" y="611" on="0"/>
        <pt x="606" y="632" on="0"/>
        <pt x="603" y="636" on="1"/>
        <pt x="595" y="647" on="0"/>
        <pt x="556" y="650" on="0"/>
        <pt x="530" y="650" on="1"/>
        <pt x="535" y="683" on="1"/>
        <pt x="565" y="681" on="0"/>
        <pt x="637" y="680" on="0"/>
        <pt x="659" y="680" on="1"/>
        <pt x="679" y="680" on="0"/>
        <pt x="703" y="680" on="0"/>
        <pt x="729" y="681" on="0"/>
        <pt x="766" y="682" on="0"/>
        <pt x="798" y="683" on="1"/>
        <pt x="793" y="650" on="1"/>
        <pt x="783" y="650" on="0"/>
        <pt x="754" y="649" on="0"/>
        <pt x="726" y="643" on="0"/>
        <pt x="706" y="629" on="0"/>
        <pt x="706" y="616" on="1"/>
        <pt x="706" y="615" on="0"/>
        <pt x="709" y="601" on="0"/>
        <pt x="709" y="599" on="1"/>
        <pt x="795" y="115" on="1"/>
        <pt x="1032" y="577" on="1"/>
        <pt x="1038" y="588" on="0"/>
        <pt x="1040" y="600" on="0"/>
        <pt x="1040" y="603" on="1"/>
        <pt x="1040" y="623" on="0"/>
        <pt x="1002" y="649" on="0"/>
        <pt x="966" y="650" on="1"/>
        <pt x="971" y="683" on="1"/>
        <pt x="993" y="682" on="0"/>
        <pt x="1023" y="681" on="0"/>
        <pt x="1047" y="680" on="0"/>
        <pt x="1071" y="680" on="0"/>
        <pt x="1086" y="680" on="1"/>
        <pt x="1118" y="680" on="0"/>
        <pt x="1157" y="681" on="0"/>
        <pt x="1183" y="683" on="1"/>
        <pt x="1178" y="650" on="1"/>
        <pt x="1169" y="650" on="0"/>
        <pt x="1141" y="647" on="0"/>
        <pt x="1110" y="634" on="0"/>
        <pt x="1079" y="607" on="0"/>
        <pt x="1067" y="583" on="1"/>
      </contour>
    </TTGlyph>
    <TTGlyph name="X" xMin="29" yMin="0" xMax="836" yMax="683">
      <contour>
        <pt x="665" y="70" on="1"/>
        <pt x="679" y="45" on="0"/>
        <pt x="717" y="33" on="0"/>
        <pt x="755" y="33" on="1"/>
        <pt x="772" y="33" on="1"/>
        <pt x="767" y="0" on="1"/>
        <pt x="745" y="1" on="0"/>
        <pt x="716" y="2" on="0"/>
        <pt x="689" y="3" on="0"/>
        <pt x="658" y="3" on="0"/>
        <pt x="635" y="3" on="1"/>
        <pt x="614" y="3" on="0"/>
        <pt x="589" y="3" on="0"/>
        <pt x="562" y="2" on="0"/>
        <pt x="524" y="1" on="0"/>
        <pt x="492" y="0" on="1"/>
        <pt x="498" y="33" on="1"/>
        <pt x="532" y="35" on="0"/>
        <pt x="562" y="56" on="0"/>
        <pt x="562" y="65" on="1"/>
        <pt x="562" y="66" on="0"/>
        <pt x="560" y="71" on="0"/>
        <pt x="555" y="79" on="1"/>
        <pt x="426" y="312" on="1"/>
        <pt x="236" y="102" on="1"/>
        <pt x="231" y="97" on="0"/>
        <pt x="221" y="80" on="0"/>
        <pt x="221" y="71" on="1"/>
        <pt x="221" y="58" on="0"/>
        <pt x="236" y="42" on="0"/>
        <pt x="254" y="34" on="0"/>
        <pt x="270" y="32" on="0"/>
        <pt x="270" y="32" on="1"/>
        <pt x="264" y="0" on="1"/>
        <pt x="242" y="1" on="0"/>
        <pt x="211" y="2" on="0"/>
        <pt x="185" y="3" on="0"/>
        <pt x="159" y="3" on="0"/>
        <pt x="142" y="3" on="1"/>
        <pt x="119" y="3" on="0"/>
        <pt x="58" y="2" on="0"/>
        <pt x="29" y="0" on="1"/>
        <pt x="30" y="5" on="0"/>
        <pt x="33" y="30" on="0"/>
        <pt x="34" y="33" on="1"/>
        <pt x="42" y="33" on="0"/>
        <pt x="77" y="35" on="0"/>
        <pt x="121" y="47" on="0"/>
        <pt x="168" y="72" on="0"/>
        <pt x="189" y="95" on="1"/>
        <pt x="410" y="340" on="1"/>
        <pt x="259" y="612" on="1"/>
        <pt x="246" y="636" on="0"/>
        <pt x="209" y="650" on="0"/>
        <pt x="168" y="650" on="1"/>
        <pt x="151" y="650" on="1"/>
        <pt x="157" y="683" on="1"/>
        <pt x="176" y="682" on="0"/>
        <pt x="208" y="681" on="0"/>
        <pt x="238" y="680" on="0"/>
        <pt x="270" y="680" on="0"/>
        <pt x="288" y="680" on="1"/>
        <pt x="309" y="680" on="0"/>
        <pt x="334" y="680" on="0"/>
        <pt x="361" y="681" on="0"/>
        <pt x="399" y="682" on="0"/>
        <pt x="431" y="683" on="1"/>
        <pt x="430" y="678" on="0"/>
        <pt x="427" y="653" on="0"/>
        <pt x="426" y="650" on="1"/>
        <pt x="397" y="649" on="0"/>
        <pt x="362" y="629" on="0"/>
        <pt x="362" y="618" on="1"/>
        <pt x="362" y="616" on="0"/>
        <pt x="364" y="611" on="0"/>
        <pt x="369" y="603" on="1"/>
        <pt x="475" y="412" on="1"/>
        <pt x="626" y="579" on="1"/>
        <pt x="633" y="587" on="0"/>
        <pt x="643" y="601" on="0"/>
        <pt x="643" y="612" on="1"/>
        <pt x="643" y="626" on="0"/>
        <pt x="629" y="641" on="0"/>
        <pt x="611" y="649" on="0"/>
        <pt x="595" y="651" on="0"/>
        <pt x="594" y="651" on="1"/>
        <pt x="600" y="683" on="1"/>
        <pt x="624" y="682" on="0"/>
        <pt x="653" y="681" on="0"/>
        <pt x="677" y="680" on="0"/>
        <pt x="702" y="680" on="0"/>
        <pt x="723" y="680" on="1"/>
        <pt x="731" y="680" on="0"/>
        <pt x="758" y="680" on="0"/>
        <pt x="790" y="681" on="0"/>
        <pt x="823" y="682" on="0"/>
        <pt x="836" y="683" on="1"/>
        <pt x="831" y="650" on="1"/>
        <pt x="786" y="650" on="0"/>
        <pt x="703" y="620" on="0"/>
        <pt x="674" y="587" on="1"/>
        <pt x="491" y="384" on="1"/>
      </contour>
    </TTGlyph>
    <TTGlyph name="Xi" xMin="53" yMin="0" xMax="761" yMax="676">
      <contour>
        <pt x="743" y="517" on="1"/>
        <pt x="712" y="517" on="1"/>
        <pt x="714" y="534" on="0"/>
        <pt x="716" y="557" on="0"/>
        <pt x="716" y="567" on="1"/>
        <pt x="716" y="590" on="0"/>
        <pt x="707" y="600" on="0"/>
        <pt x="690" y="601" on="1"/>
        <pt x="676" y="603" on="0"/>
        <pt x="650" y="603" on="0"/>
        <pt x="636" y="603" on="1"/>
        <pt x="272" y="603" on="1"/>
        <pt x="247" y="603" on="0"/>
        <pt x="197" y="600" on="0"/>
        <pt x="191" y="591" on="1"/>
        <pt x="186" y="583" on="0"/>
        <pt x="174" y="549" on="0"/>
        <pt x="167" y="517" on="1"/>
        <pt x="136" y="517" on="1"/>
        <pt x="172" y="676" on="1"/>
        <pt x="761" y="676" on="1"/>
      </contour>
      <contour>
        <pt x="72" y="170" on="1"/>
        <pt x="103" y="170" on="1"/>
        <pt x="101" y="154" on="0"/>
        <pt x="98" y="122" on="0"/>
        <pt x="98" y="108" on="1"/>
        <pt x="98" y="86" on="0"/>
        <pt x="109" y="77" on="0"/>
        <pt x="125" y="75" on="1"/>
        <pt x="127" y="75" on="0"/>
        <pt x="141" y="74" on="0"/>
        <pt x="159" y="74" on="0"/>
        <pt x="178" y="73" on="0"/>
        <pt x="183" y="73" on="1"/>
        <pt x="549" y="73" on="1"/>
        <pt x="559" y="73" on="0"/>
        <pt x="586" y="73" on="0"/>
        <pt x="611" y="76" on="0"/>
        <pt x="631" y="81" on="0"/>
        <pt x="634" y="85" on="1"/>
        <pt x="639" y="92" on="0"/>
        <pt x="647" y="114" on="0"/>
        <pt x="653" y="139" on="0"/>
        <pt x="659" y="162" on="0"/>
        <pt x="660" y="170" on="1"/>
        <pt x="691" y="170" on="1"/>
        <pt x="654" y="0" on="1"/>
        <pt x="53" y="0" on="1"/>
      </contour>
      <contour>
        <pt x="603" y="265" on="1"/>
        <pt x="572" y="265" on="1"/>
        <pt x="580" y="315" on="1"/>
        <pt x="231" y="315" on="1"/>
        <pt x="223" y="265" on="1"/>
        <pt x="192" y="265" on="1"/>
        <pt x="221" y="438" on="1"/>
        <pt x="252" y="438" on="1"/>
        <pt x="244" y="388" on="1"/>
        <pt x="593" y="388" on="1"/>
        <pt x="601" y="438" on="1"/>
        <pt x="632" y="438" on="1"/>
      </contour>
    </TTGlyph>
    <TTGlyph name="Y" xMin="124" yMin="0" xMax="894" yMax="683">
      <contour>
        <pt x="487" y="273" on="1"/>
        <pt x="455" y="79" on="1"/>
        <pt x="455" y="77" on="0"/>
        <pt x="452" y="63" on="0"/>
        <pt x="452" y="62" on="1"/>
        <pt x="452" y="46" on="0"/>
        <pt x="480" y="33" on="0"/>
        <pt x="526" y="33" on="1"/>
        <pt x="548" y="33" on="1"/>
        <pt x="542" y="0" on="1"/>
        <pt x="512" y="1" on="0"/>
        <pt x="478" y="2" on="0"/>
        <pt x="450" y="3" on="0"/>
        <pt x="421" y="3" on="0"/>
        <pt x="397" y="3" on="1"/>
        <pt x="375" y="3" on="0"/>
        <pt x="348" y="3" on="0"/>
        <pt x="321" y="2" on="0"/>
        <pt x="284" y="1" on="0"/>
        <pt x="252" y="0" on="1"/>
        <pt x="258" y="33" on="1"/>
        <pt x="280" y="33" on="1"/>
        <pt x="306" y="33" on="0"/>
        <pt x="337" y="37" on="0"/>
        <pt x="355" y="46" on="0"/>
        <pt x="364" y="63" on="0"/>
        <pt x="366" y="76" on="1"/>
        <pt x="399" y="273" on="1"/>
        <pt x="228" y="613" on="1"/>
        <pt x="221" y="627" on="0"/>
        <pt x="204" y="642" on="0"/>
        <pt x="180" y="649" on="0"/>
        <pt x="147" y="650" on="0"/>
        <pt x="124" y="650" on="1"/>
        <pt x="125" y="655" on="0"/>
        <pt x="128" y="680" on="0"/>
        <pt x="129" y="683" on="1"/>
        <pt x="151" y="682" on="0"/>
        <pt x="179" y="681" on="0"/>
        <pt x="206" y="680" on="0"/>
        <pt x="238" y="680" on="0"/>
        <pt x="262" y="680" on="1"/>
        <pt x="283" y="680" on="0"/>
        <pt x="309" y="680" on="0"/>
        <pt x="336" y="681" on="0"/>
        <pt x="374" y="682" on="0"/>
        <pt x="406" y="683" on="1"/>
        <pt x="401" y="650" on="1"/>
        <pt x="375" y="650" on="0"/>
        <pt x="332" y="642" on="0"/>
        <pt x="332" y="623" on="1"/>
        <pt x="332" y="618" on="0"/>
        <pt x="334" y="613" on="0"/>
        <pt x="338" y="605" on="1"/>
        <pt x="483" y="316" on="1"/>
        <pt x="708" y="584" on="1"/>
        <pt x="716" y="594" on="0"/>
        <pt x="724" y="613" on="0"/>
        <pt x="724" y="619" on="1"/>
        <pt x="724" y="635" on="0"/>
        <pt x="695" y="651" on="0"/>
        <pt x="678" y="651" on="1"/>
        <pt x="684" y="683" on="1"/>
        <pt x="716" y="681" on="0"/>
        <pt x="777" y="680" on="0"/>
        <pt x="794" y="680" on="1"/>
        <pt x="801" y="680" on="0"/>
        <pt x="826" y="680" on="0"/>
        <pt x="854" y="681" on="0"/>
        <pt x="883" y="682" on="0"/>
        <pt x="894" y="683" on="1"/>
        <pt x="888" y="650" on="1"/>
        <pt x="840" y="649" on="0"/>
        <pt x="775" y="616" on="0"/>
        <pt x="749" y="585" on="1"/>
      </contour>
    </TTGlyph>
    <TTGlyph name="Z" xMin="61" yMin="0" xMax="700" yMax="683">
      <contour>
        <pt x="174" y="36" on="1"/>
        <pt x="351" y="36" on="1"/>
        <pt x="424" y="36" on="0"/>
        <pt x="514" y="72" on="0"/>
        <pt x="569" y="134" on="0"/>
        <pt x="597" y="220" on="0"/>
        <pt x="609" y="269" on="1"/>
        <pt x="640" y="269" on="1"/>
        <pt x="577" y="0" on="1"/>
        <pt x="87" y="0" on="1"/>
        <pt x="75" y="0" on="0"/>
        <pt x="61" y="3" on="0"/>
        <pt x="61" y="12" on="1"/>
        <pt x="61" y="21" on="0"/>
        <pt x="68" y="34" on="0"/>
        <pt x="73" y="40" on="1"/>
        <pt x="589" y="650" on="1"/>
        <pt x="422" y="650" on="1"/>
        <pt x="377" y="650" on="0"/>
        <pt x="300" y="634" on="0"/>
        <pt x="238" y="590" on="0"/>
        <pt x="193" y="515" on="0"/>
        <pt x="181" y="456" on="1"/>
        <pt x="150" y="456" on="1"/>
        <pt x="200" y="683" on="1"/>
        <pt x="674" y="683" on="1"/>
        <pt x="686" y="683" on="0"/>
        <pt x="700" y="680" on="0"/>
        <pt x="700" y="671" on="1"/>
        <pt x="700" y="663" on="0"/>
        <pt x="695" y="653" on="0"/>
        <pt x="689" y="646" on="1"/>
      </contour>
    </TTGlyph>
    <TTGlyph name="a" xMin="60" yMin="-10" xMax="548" yMax="446">
      <contour>
        <pt x="548" y="145" on="1"/>
        <pt x="546" y="133" on="0"/>
        <pt x="544" y="120" on="0"/>
        <pt x="542" y="109" on="0"/>
        <pt x="541" y="99" on="0"/>
        <pt x="539" y="91" on="1"/>
        <pt x="533" y="55" on="0"/>
        <pt x="498" y="16" on="0"/>
        <pt x="460" y="-2" on="0"/>
        <pt x="430" y="-5" on="0"/>
        <pt x="429" y="-5" on="1"/>
        <pt x="405" y="-5" on="0"/>
        <pt x="366" y="28" on="0"/>
        <pt x="366" y="70" on="1"/>
        <pt x="361" y="63" on="0"/>
        <pt x="337" y="36" on="0"/>
        <pt x="299" y="9" on="0"/>
        <pt x="247" y="-10" on="0"/>
        <pt x="214" y="-10" on="1"/>
        <pt x="196" y="-10" on="0"/>
        <pt x="143" y="-3" on="0"/>
        <pt x="94" y="18" on="0"/>
        <pt x="60" y="57" on="0"/>
        <pt x="60" y="88" on="1"/>
        <pt x="60" y="118" on="0"/>
        <pt x="96" y="179" on="0"/>
        <pt x="171" y="229" on="0"/>
        <pt x="289" y="262" on="0"/>
        <pt x="370" y="265" on="1"/>
        <pt x="388" y="265" on="0"/>
        <pt x="389" y="271" on="1"/>
        <pt x="391" y="282" on="0"/>
        <pt x="397" y="318" on="0"/>
        <pt x="397" y="326" on="1"/>
        <pt x="397" y="342" on="0"/>
        <pt x="387" y="374" on="0"/>
        <pt x="364" y="401" on="0"/>
        <pt x="329" y="418" on="0"/>
        <pt x="304" y="418" on="1"/>
        <pt x="301" y="418" on="0"/>
        <pt x="279" y="417" on="0"/>
        <pt x="249" y="412" on="0"/>
        <pt x="215" y="402" on="0"/>
        <pt x="200" y="392" on="1"/>
        <pt x="212" y="389" on="0"/>
        <pt x="229" y="370" on="0"/>
        <pt x="229" y="353" on="1"/>
        <pt x="229" y="330" on="0"/>
        <pt x="199" y="300" on="0"/>
        <pt x="176" y="300" on="1"/>
        <pt x="153" y="300" on="0"/>
        <pt x="134" y="326" on="0"/>
        <pt x="134" y="340" on="1"/>
        <pt x="134" y="360" on="0"/>
        <pt x="157" y="398" on="0"/>
        <pt x="200" y="428" on="0"/>
        <pt x="264" y="446" on="0"/>
        <pt x="306" y="446" on="1"/>
        <pt x="344" y="446" on="0"/>
        <pt x="406" y="426" on="0"/>
        <pt x="449" y="392" on="0"/>
        <pt x="472" y="346" on="0"/>
        <pt x="472" y="320" on="1"/>
        <pt x="472" y="312" on="0"/>
        <pt x="464" y="259" on="0"/>
        <pt x="454" y="196" on="0"/>
        <pt x="443" y="138" on="0"/>
        <pt x="441" y="126" on="1"/>
        <pt x="438" y="109" on="0"/>
        <pt x="433" y="78" on="0"/>
        <pt x="433" y="70" on="1"/>
        <pt x="433" y="50" on="0"/>
        <pt x="450" y="33" on="0"/>
        <pt x="462" y="33" on="1"/>
        <pt x="472" y="33" on="0"/>
        <pt x="487" y="42" on="0"/>
        <pt x="497" y="54" on="0"/>
        <pt x="504" y="68" on="0"/>
        <pt x="505" y="73" on="1"/>
        <pt x="506" y="78" on="0"/>
        <pt x="512" y="115" on="0"/>
        <pt x="517" y="145" on="1"/>
      </contour>
      <contour>
        <pt x="384" y="240" on="1"/>
        <pt x="304" y="236" on="0"/>
        <pt x="209" y="197" on="0"/>
        <pt x="158" y="148" on="0"/>
        <pt x="142" y="100" on="0"/>
        <pt x="142" y="87" on="1"/>
        <pt x="142" y="52" on="0"/>
        <pt x="193" y="18" on="0"/>
        <pt x="223" y="18" on="1"/>
        <pt x="253" y="18" on="0"/>
        <pt x="305" y="42" on="0"/>
        <pt x="320" y="56" on="1"/>
        <pt x="349" y="82" on="0"/>
        <pt x="365" y="129" on="0"/>
        <pt x="369" y="150" on="1"/>
      </contour>
    </TTGlyph>
    <TTGlyph name="acute" xMin="306" yMin="507" xMax="526" yMax="698">
      <contour>
        <pt x="324" y="507" on="1"/>
        <pt x="306" y="530" on="1"/>
        <pt x="460" y="681" on="1"/>
        <pt x="468" y="688" on="0"/>
        <pt x="481" y="698" on="0"/>
        <pt x="493" y="698" on="1"/>
        <pt x="507" y="698" on="0"/>
        <pt x="526" y="678" on="0"/>
        <pt x="526" y="664" on="1"/>
        <pt x="526" y="648" on="0"/>
        <pt x="509" y="631" on="0"/>
        <pt x="498" y="624" on="1"/>
      </contour>
    </TTGlyph>
    <TTGlyph name="ae" xMin="63" yMin="-10" xMax="781" yMax="446">
      <contour>
        <pt x="459" y="228" on="1"/>
        <pt x="454" y="205" on="0"/>
        <pt x="453" y="167" on="0"/>
        <pt x="453" y="166" on="1"/>
        <pt x="453" y="123" on="0"/>
        <pt x="478" y="67" on="0"/>
        <pt x="516" y="34" on="0"/>
        <pt x="560" y="21" on="0"/>
        <pt x="578" y="21" on="1"/>
        <pt x="620" y="21" on="0"/>
        <pt x="698" y="71" on="0"/>
        <pt x="720" y="113" on="1"/>
        <pt x="727" y="126" on="0"/>
        <pt x="733" y="134" on="0"/>
        <pt x="741" y="134" on="1"/>
        <pt x="748" y="134" on="0"/>
        <pt x="756" y="125" on="0"/>
        <pt x="756" y="120" on="1"/>
        <pt x="756" y="113" on="0"/>
        <pt x="732" y="70" on="0"/>
        <pt x="686" y="25" on="0"/>
        <pt x="618" y="-10" on="0"/>
        <pt x="573" y="-10" on="1"/>
        <pt x="542" y="-10" on="0"/>
        <pt x="490" y="6" on="0"/>
        <pt x="448" y="30" on="0"/>
        <pt x="418" y="61" on="0"/>
        <pt x="409" y="76" on="1"/>
        <pt x="397" y="60" on="0"/>
        <pt x="360" y="29" on="0"/>
        <pt x="311" y="5" on="0"/>
        <pt x="251" y="-10" on="0"/>
        <pt x="216" y="-10" on="1"/>
        <pt x="191" y="-10" on="0"/>
        <pt x="136" y="-1" on="0"/>
        <pt x="92" y="21" on="0"/>
        <pt x="63" y="57" on="0"/>
        <pt x="63" y="84" on="1"/>
        <pt x="63" y="89" on="0"/>
        <pt x="67" y="117" on="0"/>
        <pt x="86" y="152" on="0"/>
        <pt x="125" y="191" on="0"/>
        <pt x="197" y="226" on="0"/>
        <pt x="307" y="250" on="0"/>
        <pt x="387" y="253" on="1"/>
        <pt x="389" y="262" on="0"/>
        <pt x="392" y="285" on="0"/>
        <pt x="396" y="306" on="0"/>
        <pt x="398" y="323" on="0"/>
        <pt x="398" y="326" on="1"/>
        <pt x="398" y="340" on="0"/>
        <pt x="389" y="372" on="0"/>
        <pt x="367" y="399" on="0"/>
        <pt x="331" y="418" on="0"/>
        <pt x="304" y="418" on="1"/>
        <pt x="302" y="418" on="0"/>
        <pt x="280" y="417" on="0"/>
        <pt x="249" y="412" on="0"/>
        <pt x="215" y="402" on="0"/>
        <pt x="200" y="392" on="1"/>
        <pt x="212" y="389" on="0"/>
        <pt x="229" y="370" on="0"/>
        <pt x="229" y="353" on="1"/>
        <pt x="229" y="330" on="0"/>
        <pt x="199" y="300" on="0"/>
        <pt x="176" y="300" on="1"/>
        <pt x="153" y="300" on="0"/>
        <pt x="134" y="326" on="0"/>
        <pt x="134" y="340" on="1"/>
        <pt x="134" y="360" on="0"/>
        <pt x="156" y="398" on="0"/>
        <pt x="200" y="428" on="0"/>
        <pt x="265" y="446" on="0"/>
        <pt x="307" y="446" on="1"/>
        <pt x="368" y="446" on="0"/>
        <pt x="443" y="401" on="0"/>
        <pt x="460" y="371" on="1"/>
        <pt x="467" y="378" on="0"/>
        <pt x="498" y="403" on="0"/>
        <pt x="541" y="428" on="0"/>
        <pt x="597" y="446" on="0"/>
        <pt x="630" y="446" on="1"/>
        <pt x="661" y="446" on="0"/>
        <pt x="716" y="429" on="0"/>
        <pt x="757" y="392" on="0"/>
        <pt x="781" y="334" on="0"/>
        <pt x="781" y="293" on="1"/>
        <pt x="781" y="269" on="0"/>
        <pt x="778" y="242" on="0"/>
        <pt x="770" y="230" on="0"/>
        <pt x="757" y="228" on="0"/>
        <pt x="748" y="228" on="1"/>
      </contour>
      <contour>
        <pt x="710" y="254" on="1"/>
        <pt x="713" y="272" on="0"/>
        <pt x="714" y="297" on="0"/>
        <pt x="714" y="305" on="1"/>
        <pt x="714" y="313" on="0"/>
        <pt x="711" y="350" on="0"/>
        <pt x="696" y="389" on="0"/>
        <pt x="662" y="418" on="0"/>
        <pt x="630" y="418" on="1"/>
        <pt x="610" y="418" on="0"/>
        <pt x="562" y="401" on="0"/>
        <pt x="516" y="362" on="0"/>
        <pt x="477" y="299" on="0"/>
        <pt x="465" y="254" on="1"/>
      </contour>
      <contour>
        <pt x="382" y="226" on="1"/>
        <pt x="323" y="223" on="0"/>
        <pt x="242" y="200" on="0"/>
        <pt x="189" y="169" on="0"/>
        <pt x="160" y="135" on="0"/>
        <pt x="147" y="105" on="0"/>
        <pt x="145" y="84" on="0"/>
        <pt x="145" y="83" on="1"/>
        <pt x="145" y="54" on="0"/>
        <pt x="190" y="18" on="0"/>
        <pt x="224" y="18" on="1"/>
        <pt x="254" y="18" on="0"/>
        <pt x="311" y="40" on="0"/>
        <pt x="355" y="77" on="0"/>
        <pt x="381" y="124" on="0"/>
        <pt x="381" y="149" on="1"/>
        <pt x="381" y="157" on="0"/>
        <pt x="378" y="175" on="0"/>
        <pt x="378" y="183" on="1"/>
        <pt x="378" y="194" on="0"/>
        <pt x="379" y="211" on="0"/>
      </contour>
    </TTGlyph>
    <TTGlyph name="ampersand" xMin="64" yMin="-21" xMax="844" yMax="715">
      <contour>
        <pt x="838" y="398" on="1"/>
        <pt x="810" y="398" on="0"/>
        <pt x="768" y="387" on="0"/>
        <pt x="733" y="366" on="0"/>
        <pt x="703" y="335" on="0"/>
        <pt x="686" y="314" on="1"/>
        <pt x="646" y="264" on="0"/>
        <pt x="595" y="202" on="0"/>
        <pt x="556" y="159" on="0"/>
        <pt x="522" y="125" on="0"/>
        <pt x="498" y="102" on="1"/>
        <pt x="496" y="98" on="0"/>
        <pt x="492" y="94" on="1"/>
        <pt x="532" y="44" on="0"/>
        <pt x="593" y="12" on="0"/>
        <pt x="621" y="12" on="1"/>
        <pt x="638" y="12" on="0"/>
        <pt x="680" y="24" on="0"/>
        <pt x="719" y="50" on="0"/>
        <pt x="749" y="91" on="0"/>
        <pt x="755" y="121" on="1"/>
        <pt x="786" y="121" on="1"/>
        <pt x="780" y="89" on="0"/>
        <pt x="747" y="37" on="0"/>
        <pt x="700" y="-1" on="0"/>
        <pt x="643" y="-21" on="0"/>
        <pt x="613" y="-21" on="1"/>
        <pt x="581" y="-21" on="0"/>
        <pt x="526" y="-5" on="0"/>
        <pt x="482" y="18" on="0"/>
        <pt x="450" y="44" on="0"/>
        <pt x="439" y="53" on="1"/>
        <pt x="426" y="44" on="0"/>
        <pt x="386" y="18" on="0"/>
        <pt x="334" y="-5" on="0"/>
        <pt x="272" y="-21" on="0"/>
        <pt x="236" y="-21" on="1"/>
        <pt x="199" y="-21" on="0"/>
        <pt x="135" y="-1" on="0"/>
        <pt x="90" y="34" on="0"/>
        <pt x="64" y="83" on="0"/>
        <pt x="64" y="112" on="1"/>
        <pt x="64" y="137" on="0"/>
        <pt x="79" y="176" on="0"/>
        <pt x="102" y="208" on="0"/>
        <pt x="131" y="235" on="0"/>
        <pt x="146" y="247" on="1"/>
        <pt x="272" y="352" on="1"/>
        <pt x="261" y="399" on="0"/>
        <pt x="258" y="460" on="0"/>
        <pt x="258" y="474" on="1"/>
        <pt x="258" y="531" on="0"/>
        <pt x="275" y="602" on="0"/>
        <pt x="292" y="628" on="1"/>
        <pt x="307" y="652" on="0"/>
        <pt x="344" y="685" on="0"/>
        <pt x="382" y="706" on="0"/>
        <pt x="420" y="715" on="0"/>
        <pt x="436" y="715" on="1"/>
        <pt x="461" y="715" on="0"/>
        <pt x="492" y="692" on="0"/>
        <pt x="508" y="660" on="0"/>
        <pt x="514" y="625" on="0"/>
        <pt x="514" y="613" on="1"/>
        <pt x="514" y="589" on="0"/>
        <pt x="502" y="545" on="0"/>
        <pt x="466" y="493" on="0"/>
        <pt x="400" y="426" on="0"/>
        <pt x="346" y="379" on="1"/>
        <pt x="355" y="339" on="0"/>
        <pt x="391" y="258" on="0"/>
        <pt x="429" y="188" on="0"/>
        <pt x="464" y="133" on="0"/>
        <pt x="473" y="120" on="1"/>
        <pt x="495" y="139" on="0"/>
        <pt x="546" y="193" on="0"/>
        <pt x="595" y="250" on="0"/>
        <pt x="641" y="306" on="0"/>
        <pt x="658" y="328" on="1"/>
        <pt x="669" y="341" on="0"/>
        <pt x="676" y="353" on="0"/>
        <pt x="676" y="363" on="1"/>
        <pt x="676" y="368" on="0"/>
        <pt x="671" y="380" on="0"/>
        <pt x="658" y="390" on="0"/>
        <pt x="634" y="398" on="0"/>
        <pt x="616" y="398" on="1"/>
        <pt x="622" y="431" on="1"/>
        <pt x="645" y="430" on="0"/>
        <pt x="675" y="429" on="0"/>
        <pt x="700" y="428" on="0"/>
        <pt x="725" y="428" on="0"/>
        <pt x="741" y="428" on="1"/>
        <pt x="758" y="428" on="0"/>
        <pt x="821" y="429" on="0"/>
        <pt x="844" y="431" on="1"/>
      </contour>
      <contour>
        <pt x="339" y="410" on="1"/>
        <pt x="393" y="457" on="0"/>
        <pt x="452" y="522" on="0"/>
        <pt x="479" y="569" on="0"/>
        <pt x="483" y="601" on="0"/>
        <pt x="483" y="615" on="1"/>
        <pt x="483" y="624" on="0"/>
        <pt x="480" y="648" on="0"/>
        <pt x="471" y="671" on="0"/>
        <pt x="452" y="687" on="0"/>
        <pt x="437" y="687" on="1"/>
        <pt x="427" y="687" on="0"/>
        <pt x="392" y="676" on="0"/>
        <pt x="357" y="637" on="0"/>
        <pt x="331" y="561" on="0"/>
        <pt x="331" y="497" on="1"/>
        <pt x="331" y="482" on="0"/>
        <pt x="332" y="460" on="0"/>
        <pt x="334" y="441" on="0"/>
        <pt x="337" y="422" on="0"/>
      </contour>
      <contour>
        <pt x="234" y="284" on="1"/>
        <pt x="207" y="262" on="0"/>
        <pt x="176" y="215" on="0"/>
        <pt x="160" y="172" on="0"/>
        <pt x="156" y="134" on="0"/>
        <pt x="156" y="122" on="1"/>
        <pt x="156" y="115" on="0"/>
        <pt x="160" y="79" on="0"/>
        <pt x="177" y="41" on="0"/>
        <pt x="211" y="12" on="0"/>
        <pt x="242" y="12" on="1"/>
        <pt x="287" y="12" on="0"/>
        <pt x="376" y="46" on="0"/>
        <pt x="417" y="75" on="1"/>
        <pt x="402" y="92" on="0"/>
        <pt x="364" y="145" on="0"/>
        <pt x="325" y="210" on="0"/>
        <pt x="291" y="285" on="0"/>
        <pt x="280" y="323" on="1"/>
      </contour>
    </TTGlyph>
    <TTGlyph name="asterisk" xMin="143" yMin="319" xMax="566" yMax="750">
      <contour>
        <pt x="354" y="357" on="1"/>
        <pt x="353" y="343" on="0"/>
        <pt x="343" y="327" on="0"/>
        <pt x="331" y="320" on="0"/>
        <pt x="320" y="319" on="0"/>
        <pt x="319" y="319" on="1"/>
        <pt x="305" y="319" on="0"/>
        <pt x="292" y="334" on="0"/>
        <pt x="292" y="343" on="1"/>
        <pt x="292" y="345" on="0"/>
        <pt x="294" y="354" on="0"/>
        <pt x="295" y="356" on="1"/>
        <pt x="336" y="510" on="1"/>
        <pt x="189" y="418" on="1"/>
        <pt x="184" y="415" on="0"/>
        <pt x="176" y="411" on="0"/>
        <pt x="168" y="411" on="1"/>
        <pt x="155" y="411" on="0"/>
        <pt x="143" y="428" on="0"/>
        <pt x="143" y="438" on="1"/>
        <pt x="143" y="454" on="0"/>
        <pt x="161" y="466" on="0"/>
        <pt x="172" y="471" on="1"/>
        <pt x="325" y="535" on="1"/>
        <pt x="192" y="598" on="1"/>
        <pt x="185" y="601" on="0"/>
        <pt x="173" y="611" on="0"/>
        <pt x="173" y="622" on="1"/>
        <pt x="173" y="634" on="0"/>
        <pt x="194" y="658" on="0"/>
        <pt x="209" y="658" on="1"/>
        <pt x="215" y="658" on="0"/>
        <pt x="222" y="654" on="0"/>
        <pt x="230" y="648" on="1"/>
        <pt x="344" y="559" on="1"/>
        <pt x="354" y="711" on="1"/>
        <pt x="355" y="724" on="0"/>
        <pt x="364" y="740" on="0"/>
        <pt x="375" y="748" on="0"/>
        <pt x="387" y="750" on="0"/>
        <pt x="390" y="750" on="1"/>
        <pt x="401" y="750" on="0"/>
        <pt x="416" y="737" on="0"/>
        <pt x="416" y="726" on="1"/>
        <pt x="416" y="725" on="0"/>
        <pt x="415" y="719" on="0"/>
        <pt x="412" y="708" on="1"/>
        <pt x="373" y="559" on="1"/>
        <pt x="520" y="650" on="1"/>
        <pt x="529" y="656" on="0"/>
        <pt x="535" y="658" on="0"/>
        <pt x="540" y="658" on="1"/>
        <pt x="555" y="658" on="0"/>
        <pt x="566" y="639" on="0"/>
        <pt x="566" y="631" on="1"/>
        <pt x="566" y="616" on="0"/>
        <pt x="547" y="603" on="0"/>
        <pt x="538" y="599" on="1"/>
        <pt x="384" y="535" on="1"/>
        <pt x="516" y="471" on="1"/>
        <pt x="524" y="467" on="0"/>
        <pt x="535" y="458" on="0"/>
        <pt x="535" y="447" on="1"/>
        <pt x="535" y="434" on="0"/>
        <pt x="514" y="411" on="0"/>
        <pt x="500" y="411" on="1"/>
        <pt x="493" y="411" on="0"/>
        <pt x="486" y="415" on="0"/>
        <pt x="478" y="421" on="1"/>
        <pt x="364" y="510" on="1"/>
      </contour>
    </TTGlyph>
    <TTGlyph name="at" xMin="112" yMin="-10" xMax="829" yMax="704">
      <contour>
        <pt x="674" y="483" on="1"/>
        <pt x="688" y="483" on="0"/>
        <pt x="702" y="480" on="0"/>
        <pt x="702" y="469" on="1"/>
        <pt x="702" y="467" on="0"/>
        <pt x="697" y="432" on="0"/>
        <pt x="690" y="390" on="0"/>
        <pt x="683" y="353" on="0"/>
        <pt x="682" y="347" on="1"/>
        <pt x="679" y="330" on="0"/>
        <pt x="670" y="281" on="0"/>
        <pt x="663" y="233" on="0"/>
        <pt x="657" y="196" on="0"/>
        <pt x="657" y="192" on="1"/>
        <pt x="657" y="189" on="0"/>
        <pt x="658" y="177" on="0"/>
        <pt x="663" y="164" on="0"/>
        <pt x="674" y="155" on="0"/>
        <pt x="683" y="155" on="1"/>
        <pt x="709" y="155" on="0"/>
        <pt x="746" y="192" on="0"/>
        <pt x="772" y="247" on="0"/>
        <pt x="787" y="311" on="0"/>
        <pt x="795" y="366" on="0"/>
        <pt x="798" y="404" on="0"/>
        <pt x="798" y="404" on="1"/>
        <pt x="798" y="461" on="0"/>
        <pt x="759" y="560" on="0"/>
        <pt x="687" y="634" on="0"/>
        <pt x="587" y="676" on="0"/>
        <pt x="527" y="676" on="1"/>
        <pt x="452" y="676" on="0"/>
        <pt x="313" y="612" on="0"/>
        <pt x="207" y="505" on="0"/>
        <pt x="143" y="365" on="0"/>
        <pt x="143" y="290" on="1"/>
        <pt x="143" y="235" on="0"/>
        <pt x="180" y="137" on="0"/>
        <pt x="251" y="62" on="0"/>
        <pt x="353" y="18" on="0"/>
        <pt x="418" y="18" on="1"/>
        <pt x="439" y="18" on="0"/>
        <pt x="499" y="22" on="0"/>
        <pt x="572" y="34" on="0"/>
        <pt x="658" y="57" on="0"/>
        <pt x="704" y="75" on="1"/>
        <pt x="712" y="78" on="0"/>
        <pt x="722" y="82" on="0"/>
        <pt x="730" y="84" on="0"/>
        <pt x="737" y="84" on="0"/>
        <pt x="743" y="84" on="1"/>
        <pt x="752" y="84" on="1"/>
        <pt x="763" y="84" on="0"/>
        <pt x="778" y="81" on="0"/>
        <pt x="778" y="72" on="1"/>
        <pt x="778" y="65" on="0"/>
        <pt x="770" y="61" on="1"/>
        <pt x="768" y="60" on="0"/>
        <pt x="756" y="55" on="0"/>
        <pt x="742" y="50" on="0"/>
        <pt x="729" y="45" on="0"/>
        <pt x="726" y="44" on="1"/>
        <pt x="636" y="13" on="0"/>
        <pt x="477" y="-10" on="0"/>
        <pt x="419" y="-10" on="1"/>
        <pt x="345" y="-10" on="0"/>
        <pt x="231" y="39" on="0"/>
        <pt x="153" y="122" on="0"/>
        <pt x="112" y="231" on="0"/>
        <pt x="112" y="290" on="1"/>
        <pt x="112" y="371" on="0"/>
        <pt x="181" y="521" on="0"/>
        <pt x="296" y="636" on="0"/>
        <pt x="446" y="704" on="0"/>
        <pt x="527" y="704" on="1"/>
        <pt x="595" y="704" on="0"/>
        <pt x="706" y="657" on="0"/>
        <pt x="785" y="576" on="0"/>
        <pt x="829" y="467" on="0"/>
        <pt x="829" y="404" on="1"/>
        <pt x="829" y="388" on="0"/>
        <pt x="824" y="343" on="0"/>
        <pt x="814" y="293" on="0"/>
        <pt x="799" y="242" on="0"/>
        <pt x="790" y="219" on="1"/>
        <pt x="775" y="182" on="0"/>
        <pt x="721" y="127" on="0"/>
        <pt x="677" y="127" on="1"/>
        <pt x="667" y="127" on="0"/>
        <pt x="637" y="132" on="0"/>
        <pt x="608" y="147" on="0"/>
        <pt x="585" y="172" on="0"/>
        <pt x="582" y="193" on="1"/>
        <pt x="573" y="184" on="0"/>
        <pt x="544" y="161" on="0"/>
        <pt x="506" y="141" on="0"/>
        <pt x="461" y="127" on="0"/>
        <pt x="435" y="127" on="1"/>
        <pt x="399" y="127" on="0"/>
        <pt x="334" y="153" on="0"/>
        <pt x="285" y="201" on="0"/>
        <pt x="256" y="269" on="0"/>
        <pt x="256" y="312" on="1"/>
        <pt x="256" y="363" on="0"/>
        <pt x="298" y="455" on="0"/>
        <pt x="367" y="526" on="0"/>
        <pt x="456" y="567" on="0"/>
        <pt x="504" y="567" on="1"/>
        <pt x="552" y="567" on="0"/>
        <pt x="623" y="519" on="0"/>
        <pt x="640" y="483" on="1"/>
      </contour>
      <contour>
        <pt x="620" y="433" on="1"/>
        <pt x="621" y="438" on="0"/>
        <pt x="622" y="444" on="0"/>
        <pt x="622" y="446" on="1"/>
        <pt x="622" y="451" on="0"/>
        <pt x="609" y="481" on="0"/>
        <pt x="580" y="514" on="0"/>
        <pt x="536" y="539" on="0"/>
        <pt x="505" y="539" on="1"/>
        <pt x="473" y="539" on="0"/>
        <pt x="411" y="501" on="0"/>
        <pt x="361" y="435" on="0"/>
        <pt x="331" y="348" on="0"/>
        <pt x="331" y="300" on="1"/>
        <pt x="331" y="235" on="0"/>
        <pt x="391" y="155" on="0"/>
        <pt x="437" y="155" on="1"/>
        <pt x="469" y="155" on="0"/>
        <pt x="520" y="180" on="0"/>
        <pt x="537" y="192" on="1"/>
        <pt x="542" y="196" on="0"/>
        <pt x="559" y="211" on="0"/>
        <pt x="576" y="231" on="0"/>
        <pt x="590" y="253" on="0"/>
        <pt x="592" y="263" on="1"/>
      </contour>
    </TTGlyph>
    <TTGlyph name="b" xMin="111" yMin="-10" xMax="593" yMax="694">
      <contour>
        <pt x="248" y="382" on="1"/>
        <pt x="290" y="418" on="0"/>
        <pt x="370" y="441" on="0"/>
        <pt x="400" y="441" on="1"/>
        <pt x="442" y="441" on="0"/>
        <pt x="512" y="412" on="0"/>
        <pt x="564" y="361" on="0"/>
        <pt x="593" y="291" on="0"/>
        <pt x="593" y="250" on="1"/>
        <pt x="593" y="198" on="0"/>
        <pt x="547" y="104" on="0"/>
        <pt x="470" y="32" on="0"/>
        <pt x="371" y="-10" on="0"/>
        <pt x="318" y="-10" on="1"/>
        <pt x="268" y="-10" on="0"/>
        <pt x="205" y="34" on="0"/>
        <pt x="188" y="63" on="1"/>
        <pt x="187" y="62" on="0"/>
        <pt x="174" y="43" on="0"/>
        <pt x="158" y="22" on="0"/>
        <pt x="144" y="3" on="0"/>
        <pt x="142" y="2" on="1"/>
        <pt x="140" y="0" on="0"/>
        <pt x="119" y="0" on="0"/>
        <pt x="111" y="0" on="1"/>
        <pt x="210" y="595" on="1"/>
        <pt x="211" y="600" on="0"/>
        <pt x="213" y="613" on="0"/>
        <pt x="213" y="618" on="1"/>
        <pt x="213" y="640" on="0"/>
        <pt x="181" y="650" on="0"/>
        <pt x="143" y="650" on="1"/>
        <pt x="149" y="683" on="1"/>
        <pt x="300" y="694" on="1"/>
      </contour>
      <contour>
        <pt x="204" y="101" on="1"/>
        <pt x="209" y="87" on="0"/>
        <pt x="225" y="58" on="0"/>
        <pt x="252" y="34" on="0"/>
        <pt x="289" y="18" on="0"/>
        <pt x="314" y="18" on="1"/>
        <pt x="356" y="18" on="0"/>
        <pt x="436" y="64" on="0"/>
        <pt x="460" y="102" on="1"/>
        <pt x="477" y="127" on="0"/>
        <pt x="495" y="185" on="0"/>
        <pt x="505" y="236" on="0"/>
        <pt x="507" y="275" on="0"/>
        <pt x="507" y="281" on="1"/>
        <pt x="507" y="325" on="0"/>
        <pt x="480" y="378" on="0"/>
        <pt x="443" y="405" on="0"/>
        <pt x="405" y="413" on="0"/>
        <pt x="394" y="413" on="1"/>
        <pt x="354" y="413" on="0"/>
        <pt x="281" y="377" on="0"/>
        <pt x="258" y="351" on="1"/>
        <pt x="247" y="339" on="0"/>
        <pt x="242" y="329" on="0"/>
        <pt x="240" y="316" on="1"/>
      </contour>
    </TTGlyph>
    <TTGlyph name="bracketleft" xMin="82" yMin="-250" xMax="396" yMax="750">
      <contour>
        <pt x="136" y="-204" on="1"/>
        <pt x="237" y="-204" on="1"/>
        <pt x="229" y="-250" on="1"/>
        <pt x="82" y="-250" on="1"/>
        <pt x="249" y="750" on="1"/>
        <pt x="396" y="750" on="1"/>
        <pt x="388" y="704" on="1"/>
        <pt x="287" y="704" on="1"/>
      </contour>
    </TTGlyph>
    <TTGlyph name="bracketright" xMin="-19" yMin="-250" xMax="295" yMax="750">
      <contour>
        <pt x="128" y="-250" on="1"/>
        <pt x="-19" y="-250" on="1"/>
        <pt x="-11" y="-204" on="1"/>
        <pt x="90" y="-204" on="1"/>
        <pt x="241" y="704" on="1"/>
        <pt x="140" y="704" on="1"/>
        <pt x="148" y="750" on="1"/>
        <pt x="295" y="750" on="1"/>
      </contour>
    </TTGlyph>
    <TTGlyph name="breve" xMin="217" yMin="518" xMax="542" yMax="694">
      <contour>
        <pt x="542" y="694" on="1"/>
        <pt x="536" y="657" on="0"/>
        <pt x="500" y="593" on="0"/>
        <pt x="448" y="545" on="0"/>
        <pt x="385" y="518" on="0"/>
        <pt x="352" y="518" on="1"/>
        <pt x="320" y="518" on="0"/>
        <pt x="270" y="541" on="0"/>
        <pt x="235" y="581" on="0"/>
        <pt x="217" y="633" on="0"/>
        <pt x="217" y="662" on="1"/>
        <pt x="217" y="670" on="0"/>
        <pt x="218" y="685" on="0"/>
        <pt x="220" y="690" on="1"/>
        <pt x="221" y="692" on="0"/>
        <pt x="228" y="694" on="0"/>
        <pt x="248" y="694" on="1"/>
        <pt x="246" y="687" on="0"/>
        <pt x="246" y="677" on="0"/>
        <pt x="246" y="672" on="1"/>
        <pt x="246" y="625" on="0"/>
        <pt x="309" y="562" on="0"/>
        <pt x="359" y="562" on="1"/>
        <pt x="385" y="562" on="0"/>
        <pt x="436" y="582" on="0"/>
        <pt x="479" y="617" on="0"/>
        <pt x="509" y="665" on="0"/>
        <pt x="514" y="694" on="1"/>
      </contour>
    </TTGlyph>
    <TTGlyph name="c" xMin="68" yMin="-10" xMax="490" yMax="446">
      <contour>
        <pt x="434" y="398" on="1"/>
        <pt x="422" y="404" on="0"/>
        <pt x="393" y="411" on="0"/>
        <pt x="366" y="414" on="0"/>
        <pt x="345" y="415" on="0"/>
        <pt x="342" y="415" on="1"/>
        <pt x="294" y="415" on="0"/>
        <pt x="224" y="366" on="0"/>
        <pt x="177" y="292" on="0"/>
        <pt x="155" y="203" on="0"/>
        <pt x="155" y="164" on="1"/>
        <pt x="155" y="128" on="0"/>
        <pt x="175" y="74" on="0"/>
        <pt x="209" y="38" on="0"/>
        <pt x="253" y="21" on="0"/>
        <pt x="277" y="21" on="1"/>
        <pt x="303" y="21" on="0"/>
        <pt x="349" y="36" on="0"/>
        <pt x="386" y="61" on="0"/>
        <pt x="415" y="93" on="0"/>
        <pt x="424" y="111" on="1"/>
        <pt x="432" y="125" on="0"/>
        <pt x="438" y="132" on="0"/>
        <pt x="446" y="132" on="1"/>
        <pt x="452" y="132" on="0"/>
        <pt x="461" y="126" on="0"/>
        <pt x="461" y="120" on="1"/>
        <pt x="461" y="116" on="0"/>
        <pt x="440" y="74" on="0"/>
        <pt x="393" y="28" on="0"/>
        <pt x="318" y="-10" on="0"/>
        <pt x="265" y="-10" on="1"/>
        <pt x="224" y="-10" on="0"/>
        <pt x="152" y="18" on="0"/>
        <pt x="99" y="69" on="0"/>
        <pt x="68" y="139" on="0"/>
        <pt x="68" y="182" on="1"/>
        <pt x="68" y="230" on="0"/>
        <pt x="109" y="324" on="0"/>
        <pt x="183" y="399" on="0"/>
        <pt x="283" y="446" on="0"/>
        <pt x="341" y="446" on="1"/>
        <pt x="349" y="446" on="0"/>
        <pt x="398" y="443" on="0"/>
        <pt x="450" y="428" on="0"/>
        <pt x="490" y="394" on="0"/>
        <pt x="490" y="364" on="1"/>
        <pt x="490" y="338" on="0"/>
        <pt x="459" y="306" on="0"/>
        <pt x="436" y="306" on="1"/>
        <pt x="413" y="306" on="0"/>
        <pt x="394" y="332" on="0"/>
        <pt x="394" y="346" on="1"/>
        <pt x="394" y="356" on="0"/>
        <pt x="408" y="390" on="0"/>
      </contour>
    </TTGlyph>
    <TTGlyph name="caron" xMin="227" yMin="515" xMax="508" yMax="641">
      <contour>
        <pt x="495" y="641" on="1"/>
        <pt x="508" y="615" on="1"/>
        <pt x="351" y="515" on="1"/>
        <pt x="227" y="615" on="1"/>
        <pt x="248" y="641" on="1"/>
        <pt x="361" y="573" on="1"/>
      </contour>
    </TTGlyph>
    <TTGlyph name="cedilla" xMin="104" yMin="-205" xMax="372" yMax="-21">
      <contour>
        <pt x="223" y="-21" on="1"/>
        <pt x="299" y="-21" on="1"/>
        <pt x="298" y="-26" on="0"/>
        <pt x="296" y="-44" on="0"/>
        <pt x="295" y="-48" on="1"/>
        <pt x="308" y="-50" on="0"/>
        <pt x="335" y="-59" on="0"/>
        <pt x="358" y="-74" on="0"/>
        <pt x="372" y="-96" on="0"/>
        <pt x="372" y="-112" on="1"/>
        <pt x="372" y="-161" on="0"/>
        <pt x="260" y="-205" on="0"/>
        <pt x="151" y="-205" on="1"/>
        <pt x="104" y="-205" on="1"/>
        <pt x="109" y="-177" on="1"/>
        <pt x="143" y="-177" on="1"/>
        <pt x="177" y="-177" on="0"/>
        <pt x="233" y="-171" on="0"/>
        <pt x="274" y="-157" on="0"/>
        <pt x="296" y="-133" on="0"/>
        <pt x="296" y="-116" on="1"/>
        <pt x="296" y="-97" on="0"/>
        <pt x="257" y="-71" on="0"/>
        <pt x="215" y="-70" on="1"/>
      </contour>
    </TTGlyph>
    <TTGlyph name="circumflex" xMin="216" yMin="536" xMax="500" yMax="694">
      <contour>
        <pt x="500" y="560" on="1"/>
        <pt x="476" y="536" on="1"/>
        <pt x="371" y="635" on="1"/>
        <pt x="232" y="536" on="1"/>
        <pt x="216" y="560" on="1"/>
        <pt x="381" y="694" on="1"/>
      </contour>
    </TTGlyph>
    <TTGlyph name="colon" xMin="101" yMin="0" xMax="266" yMax="431">
      <contour>
        <pt x="266" y="382" on="1"/>
        <pt x="266" y="358" on="0"/>
        <pt x="229" y="320" on="0"/>
        <pt x="203" y="320" on="1"/>
        <pt x="182" y="320" on="0"/>
        <pt x="154" y="347" on="0"/>
        <pt x="154" y="369" on="1"/>
        <pt x="154" y="392" on="0"/>
        <pt x="191" y="431" on="0"/>
        <pt x="217" y="431" on="1"/>
        <pt x="237" y="431" on="0"/>
        <pt x="266" y="405" on="0"/>
      </contour>
      <contour>
        <pt x="213" y="62" on="1"/>
        <pt x="213" y="38" on="0"/>
        <pt x="175" y="0" on="0"/>
        <pt x="150" y="0" on="1"/>
        <pt x="133" y="0" on="0"/>
        <pt x="101" y="23" on="0"/>
        <pt x="101" y="49" on="1"/>
        <pt x="101" y="75" on="0"/>
        <pt x="141" y="111" on="0"/>
        <pt x="164" y="111" on="1"/>
        <pt x="185" y="111" on="0"/>
        <pt x="213" y="83" on="0"/>
      </contour>
    </TTGlyph>
    <TTGlyph name="comma" xMin="75" yMin="-194" xMax="218" yMax="111">
      <contour>
        <pt x="189" y="13" on="1"/>
        <pt x="184" y="8" on="0"/>
        <pt x="168" y="0" on="0"/>
        <pt x="150" y="0" on="1"/>
        <pt x="133" y="0" on="0"/>
        <pt x="101" y="22" on="0"/>
        <pt x="101" y="48" on="1"/>
        <pt x="101" y="74" on="0"/>
        <pt x="137" y="111" on="0"/>
        <pt x="164" y="111" on="1"/>
        <pt x="184" y="111" on="0"/>
        <pt x="206" y="91" on="0"/>
        <pt x="216" y="65" on="0"/>
        <pt x="218" y="39" on="0"/>
        <pt x="218" y="34" on="1"/>
        <pt x="218" y="-13" on="0"/>
        <pt x="182" y="-96" on="0"/>
        <pt x="137" y="-158" on="0"/>
        <pt x="95" y="-194" on="0"/>
        <pt x="89" y="-194" on="1"/>
        <pt x="84" y="-194" on="0"/>
        <pt x="75" y="-185" on="0"/>
        <pt x="75" y="-179" on="1"/>
        <pt x="75" y="-174" on="0"/>
        <pt x="79" y="-171" on="0"/>
        <pt x="84" y="-166" on="1"/>
        <pt x="93" y="-158" on="0"/>
        <pt x="123" y="-129" on="0"/>
        <pt x="155" y="-86" on="0"/>
        <pt x="183" y="-26" on="0"/>
      </contour>
    </TTGlyph>
    <TTGlyph name="d" xMin="68" yMin="-10" xMax="594" yMax="694">
      <contour>
        <pt x="493" y="90" on="1"/>
        <pt x="492" y="84" on="0"/>
        <pt x="490" y="71" on="0"/>
        <pt x="490" y="65" on="1"/>
        <pt x="490" y="45" on="0"/>
        <pt x="518" y="33" on="0"/>
        <pt x="560" y="33" on="1"/>
        <pt x="554" y="0" on="1"/>
        <pt x="400" y="-10" on="1"/>
        <pt x="410" y="51" on="1"/>
        <pt x="377" y="22" on="0"/>
        <pt x="303" y="-10" on="0"/>
        <pt x="261" y="-10" on="1"/>
        <pt x="221" y="-10" on="0"/>
        <pt x="150" y="18" on="0"/>
        <pt x="98" y="68" on="0"/>
        <pt x="68" y="139" on="0"/>
        <pt x="68" y="181" on="1"/>
        <pt x="68" y="234" on="0"/>
        <pt x="114" y="328" on="0"/>
        <pt x="191" y="399" on="0"/>
        <pt x="290" y="441" on="0"/>
        <pt x="343" y="441" on="1"/>
        <pt x="374" y="441" on="0"/>
        <pt x="419" y="424" on="0"/>
        <pt x="450" y="403" on="0"/>
        <pt x="467" y="384" on="0"/>
        <pt x="469" y="382" on="1"/>
        <pt x="504" y="595" on="1"/>
        <pt x="505" y="600" on="0"/>
        <pt x="507" y="613" on="0"/>
        <pt x="507" y="618" on="1"/>
        <pt x="507" y="640" on="0"/>
        <pt x="475" y="650" on="0"/>
        <pt x="437" y="650" on="1"/>
        <pt x="443" y="683" on="1"/>
        <pt x="594" y="694" on="1"/>
      </contour>
      <contour>
        <pt x="455" y="317" on="1"/>
        <pt x="457" y="328" on="0"/>
        <pt x="458" y="334" on="0"/>
        <pt x="458" y="336" on="1"/>
        <pt x="458" y="340" on="0"/>
        <pt x="446" y="365" on="0"/>
        <pt x="420" y="392" on="0"/>
        <pt x="378" y="413" on="0"/>
        <pt x="347" y="413" on="1"/>
        <pt x="310" y="413" on="0"/>
        <pt x="237" y="376" on="0"/>
        <pt x="210" y="343" on="1"/>
        <pt x="193" y="321" on="0"/>
        <pt x="171" y="266" on="0"/>
        <pt x="159" y="212" on="0"/>
        <pt x="154" y="165" on="0"/>
        <pt x="154" y="150" on="1"/>
        <pt x="154" y="105" on="0"/>
        <pt x="181" y="53" on="0"/>
        <pt x="219" y="26" on="0"/>
        <pt x="257" y="18" on="0"/>
        <pt x="267" y="18" on="1"/>
        <pt x="311" y="18" on="0"/>
        <pt x="383" y="61" on="0"/>
        <pt x="404" y="87" on="1"/>
        <pt x="415" y="100" on="0"/>
        <pt x="420" y="110" on="0"/>
        <pt x="422" y="124" on="1"/>
      </contour>
    </TTGlyph>
    <TTGlyph name="dieresis" xMin="213" yMin="568" xMax="524" yMax="672">
      <contour>
        <pt x="318" y="626" on="1"/>
        <pt x="318" y="601" on="0"/>
        <pt x="281" y="568" on="0"/>
        <pt x="260" y="568" on="1"/>
        <pt x="237" y="568" on="0"/>
        <pt x="213" y="596" on="0"/>
        <pt x="213" y="614" on="1"/>
        <pt x="213" y="636" on="0"/>
        <pt x="247" y="672" on="0"/>
        <pt x="272" y="672" on="1"/>
        <pt x="290" y="672" on="0"/>
        <pt x="318" y="648" on="0"/>
      </contour>
      <contour>
        <pt x="524" y="626" on="1"/>
        <pt x="524" y="605" on="0"/>
        <pt x="490" y="568" on="0"/>
        <pt x="465" y="568" on="1"/>
        <pt x="443" y="568" on="0"/>
        <pt x="418" y="596" on="0"/>
        <pt x="418" y="614" on="1"/>
        <pt x="418" y="636" on="0"/>
        <pt x="453" y="672" on="0"/>
        <pt x="477" y="672" on="1"/>
        <pt x="500" y="672" on="0"/>
        <pt x="524" y="643" on="0"/>
      </contour>
    </TTGlyph>
    <TTGlyph name="dollar" xMin="86" yMin="-56" xMax="561" yMax="750">
      <contour>
        <pt x="349" y="404" on="1"/>
        <pt x="378" y="397" on="0"/>
        <pt x="434" y="377" on="0"/>
        <pt x="460" y="350" on="1"/>
        <pt x="491" y="317" on="0"/>
        <pt x="506" y="251" on="0"/>
        <pt x="506" y="228" on="1"/>
        <pt x="506" y="183" on="0"/>
        <pt x="470" y="100" on="0"/>
        <pt x="408" y="35" on="0"/>
        <pt x="326" y="-6" on="0"/>
        <pt x="280" y="-9" on="1"/>
        <pt x="273" y="-56" on="1"/>
        <pt x="240" y="-56" on="1"/>
        <pt x="247" y="-9" on="1"/>
        <pt x="165" y="-4" on="0"/>
        <pt x="86" y="84" on="0"/>
        <pt x="86" y="147" on="1"/>
        <pt x="86" y="154" on="0"/>
        <pt x="88" y="182" on="0"/>
        <pt x="98" y="210" on="0"/>
        <pt x="121" y="231" on="0"/>
        <pt x="142" y="231" on="1"/>
        <pt x="148" y="231" on="0"/>
        <pt x="162" y="227" on="0"/>
        <pt x="175" y="218" on="0"/>
        <pt x="184" y="202" on="0"/>
        <pt x="184" y="190" on="1"/>
        <pt x="184" y="168" on="0"/>
        <pt x="154" y="137" on="0"/>
        <pt x="131" y="137" on="1"/>
        <pt x="121" y="137" on="0"/>
        <pt x="118" y="138" on="1"/>
        <pt x="120" y="107" on="0"/>
        <pt x="145" y="64" on="0"/>
        <pt x="184" y="37" on="0"/>
        <pt x="230" y="24" on="0"/>
        <pt x="253" y="23" on="1"/>
        <pt x="302" y="318" on="1"/>
        <pt x="282" y="323" on="0"/>
        <pt x="251" y="331" on="0"/>
        <pt x="224" y="343" on="0"/>
        <pt x="201" y="359" on="0"/>
        <pt x="188" y="372" on="1"/>
        <pt x="163" y="397" on="0"/>
        <pt x="142" y="455" on="0"/>
        <pt x="142" y="484" on="1"/>
        <pt x="142" y="519" on="0"/>
        <pt x="170" y="590" on="0"/>
        <pt x="224" y="651" on="0"/>
        <pt x="303" y="695" on="0"/>
        <pt x="354" y="702" on="1"/>
        <pt x="362" y="704" on="0"/>
        <pt x="367" y="709" on="0"/>
        <pt x="369" y="720" on="1"/>
        <pt x="374" y="750" on="1"/>
        <pt x="407" y="750" on="1"/>
        <pt x="399" y="703" on="1"/>
        <pt x="433" y="702" on="0"/>
        <pt x="492" y="682" on="0"/>
        <pt x="536" y="646" on="0"/>
        <pt x="561" y="592" on="0"/>
        <pt x="561" y="556" on="1"/>
        <pt x="561" y="550" on="0"/>
        <pt x="559" y="523" on="0"/>
        <pt x="549" y="497" on="0"/>
        <pt x="527" y="477" on="0"/>
        <pt x="506" y="477" on="1"/>
        <pt x="502" y="477" on="0"/>
        <pt x="487" y="480" on="0"/>
        <pt x="474" y="489" on="0"/>
        <pt x="464" y="505" on="0"/>
        <pt x="464" y="518" on="1"/>
        <pt x="464" y="540" on="0"/>
        <pt x="494" y="571" on="0"/>
        <pt x="517" y="571" on="1"/>
        <pt x="526" y="571" on="0"/>
        <pt x="529" y="570" on="1"/>
        <pt x="525" y="597" on="0"/>
        <pt x="501" y="634" on="0"/>
        <pt x="465" y="658" on="0"/>
        <pt x="419" y="670" on="0"/>
        <pt x="394" y="671" on="1"/>
      </contour>
      <contour>
        <pt x="361" y="670" on="1"/>
        <pt x="325" y="666" on="0"/>
        <pt x="266" y="637" on="0"/>
        <pt x="225" y="597" on="0"/>
        <pt x="202" y="547" on="0"/>
        <pt x="202" y="522" on="1"/>
        <pt x="202" y="491" on="0"/>
        <pt x="228" y="451" on="0"/>
        <pt x="264" y="427" on="0"/>
        <pt x="303" y="414" on="0"/>
        <pt x="317" y="411" on="1"/>
      </contour>
      <contour>
        <pt x="286" y="24" on="1"/>
        <pt x="321" y="28" on="0"/>
        <pt x="380" y="60" on="0"/>
        <pt x="423" y="107" on="0"/>
        <pt x="447" y="162" on="0"/>
        <pt x="447" y="190" on="1"/>
        <pt x="447" y="226" on="0"/>
        <pt x="418" y="271" on="0"/>
        <pt x="380" y="297" on="0"/>
        <pt x="342" y="308" on="0"/>
        <pt x="334" y="310" on="1"/>
      </contour>
    </TTGlyph>
    <TTGlyph name="dotaccent" xMin="194" yMin="561" xMax="306" yMax="672">
      <contour>
        <pt x="306" y="623" on="1"/>
        <pt x="306" y="600" on="0"/>
        <pt x="269" y="561" on="0"/>
        <pt x="243" y="561" on="1"/>
        <pt x="224" y="561" on="0"/>
        <pt x="194" y="586" on="0"/>
        <pt x="194" y="610" on="1"/>
        <pt x="194" y="636" on="0"/>
        <pt x="233" y="672" on="0"/>
        <pt x="257" y="672" on="1"/>
        <pt x="277" y="672" on="0"/>
        <pt x="306" y="644" on="0"/>
      </contour>
    </TTGlyph>
    <TTGlyph name="dotlessi" xMin="42" yMin="0" xMax="265" yMax="441">
      <contour>
        <pt x="204" y="76" on="1"/>
        <pt x="202" y="66" on="0"/>
        <pt x="201" y="59" on="0"/>
        <pt x="201" y="57" on="1"/>
        <pt x="201" y="39" on="0"/>
        <pt x="233" y="33" on="0"/>
        <pt x="265" y="33" on="1"/>
        <pt x="259" y="0" on="1"/>
        <pt x="246" y="1" on="0"/>
        <pt x="215" y="2" on="0"/>
        <pt x="185" y="3" on="0"/>
        <pt x="160" y="3" on="0"/>
        <pt x="153" y="3" on="1"/>
        <pt x="136" y="3" on="0"/>
        <pt x="74" y="2" on="0"/>
        <pt x="42" y="0" on="1"/>
        <pt x="47" y="33" on="1"/>
        <pt x="69" y="33" on="0"/>
        <pt x="99" y="34" on="0"/>
        <pt x="118" y="42" on="0"/>
        <pt x="128" y="57" on="0"/>
        <pt x="130" y="72" on="1"/>
        <pt x="175" y="345" on="1"/>
        <pt x="177" y="356" on="0"/>
        <pt x="178" y="363" on="0"/>
        <pt x="178" y="366" on="1"/>
        <pt x="178" y="386" on="0"/>
        <pt x="149" y="397" on="0"/>
        <pt x="112" y="397" on="1"/>
        <pt x="112" y="399" on="0"/>
        <pt x="115" y="420" on="0"/>
        <pt x="116" y="422" on="1"/>
        <pt x="118" y="427" on="0"/>
        <pt x="123" y="430" on="0"/>
        <pt x="135" y="431" on="1"/>
        <pt x="265" y="441" on="1"/>
      </contour>
    </TTGlyph>
    <TTGlyph name="e" xMin="64" yMin="-10" xMax="486" yMax="446">
      <contour>
        <pt x="157" y="228" on="1"/>
        <pt x="155" y="218" on="0"/>
        <pt x="152" y="203" on="0"/>
        <pt x="151" y="188" on="0"/>
        <pt x="150" y="171" on="0"/>
        <pt x="150" y="158" on="1"/>
        <pt x="150" y="112" on="0"/>
        <pt x="179" y="58" on="0"/>
        <pt x="218" y="30" on="0"/>
        <pt x="259" y="21" on="0"/>
        <pt x="271" y="21" on="1"/>
        <pt x="283" y="21" on="0"/>
        <pt x="322" y="28" on="0"/>
        <pt x="367" y="49" on="0"/>
        <pt x="412" y="88" on="0"/>
        <pt x="429" y="120" on="1"/>
        <pt x="432" y="127" on="0"/>
        <pt x="438" y="134" on="0"/>
        <pt x="446" y="134" on="1"/>
        <pt x="453" y="134" on="0"/>
        <pt x="461" y="125" on="0"/>
        <pt x="461" y="120" on="1"/>
        <pt x="461" y="113" on="0"/>
        <pt x="436" y="70" on="0"/>
        <pt x="387" y="25" on="0"/>
        <pt x="313" y="-10" on="0"/>
        <pt x="265" y="-10" on="1"/>
        <pt x="225" y="-10" on="0"/>
        <pt x="152" y="17" on="0"/>
        <pt x="97" y="67" on="0"/>
        <pt x="64" y="140" on="0"/>
        <pt x="64" y="185" on="1"/>
        <pt x="64" y="236" on="0"/>
        <pt x="106" y="330" on="0"/>
        <pt x="178" y="403" on="0"/>
        <pt x="272" y="446" on="0"/>
        <pt x="323" y="446" on="1"/>
        <pt x="358" y="446" on="0"/>
        <pt x="417" y="428" on="0"/>
        <pt x="461" y="389" on="0"/>
        <pt x="486" y="330" on="0"/>
        <pt x="486" y="289" on="1"/>
        <pt x="486" y="266" on="0"/>
        <pt x="483" y="241" on="0"/>
        <pt x="475" y="230" on="0"/>
        <pt x="462" y="228" on="0"/>
        <pt x="453" y="228" on="1"/>
      </contour>
      <contour>
        <pt x="415" y="254" on="1"/>
        <pt x="417" y="265" on="0"/>
        <pt x="419" y="290" on="0"/>
        <pt x="419" y="301" on="1"/>
        <pt x="419" y="357" on="0"/>
        <pt x="369" y="418" on="0"/>
        <pt x="322" y="418" on="1"/>
        <pt x="306" y="418" on="0"/>
        <pt x="260" y="403" on="0"/>
        <pt x="214" y="366" on="0"/>
        <pt x="174" y="303" on="0"/>
        <pt x="163" y="254" on="1"/>
      </contour>
    </TTGlyph>
    <TTGlyph name="eight" xMin="67" yMin="-21" xMax="544" yMax="665">
      <contour>
        <pt x="392" y="360" on="1"/>
        <pt x="418" y="343" on="0"/>
        <pt x="463" y="311" on="0"/>
        <pt x="497" y="274" on="0"/>
        <pt x="516" y="226" on="0"/>
        <pt x="516" y="194" on="1"/>
        <pt x="516" y="149" on="0"/>
        <pt x="474" y="71" on="0"/>
        <pt x="403" y="13" on="0"/>
        <pt x="312" y="-21" on="0"/>
        <pt x="263" y="-21" on="1"/>
        <pt x="223" y="-21" on="0"/>
        <pt x="152" y="0" on="0"/>
        <pt x="98" y="39" on="0"/>
        <pt x="67" y="95" on="0"/>
        <pt x="67" y="129" on="1"/>
        <pt x="67" y="176" on="0"/>
        <pt x="110" y="246" on="0"/>
        <pt x="170" y="297" on="0"/>
        <pt x="232" y="329" on="0"/>
        <pt x="251" y="338" on="1"/>
        <pt x="233" y="350" on="0"/>
        <pt x="199" y="374" on="0"/>
        <pt x="172" y="406" on="0"/>
        <pt x="155" y="448" on="0"/>
        <pt x="155" y="476" on="1"/>
        <pt x="155" y="514" on="0"/>
        <pt x="191" y="582" on="0"/>
        <pt x="251" y="634" on="0"/>
        <pt x="331" y="665" on="0"/>
        <pt x="374" y="665" on="1"/>
        <pt x="410" y="665" on="0"/>
        <pt x="472" y="646" on="0"/>
        <pt x="518" y="612" on="0"/>
        <pt x="544" y="565" on="0"/>
        <pt x="544" y="536" on="1"/>
        <pt x="544" y="497" on="0"/>
        <pt x="507" y="438" on="0"/>
        <pt x="458" y="395" on="0"/>
        <pt x="407" y="367" on="0"/>
      </contour>
      <contour>
        <pt x="353" y="386" on="1"/>
        <pt x="355" y="385" on="0"/>
        <pt x="362" y="380" on="0"/>
        <pt x="364" y="380" on="1"/>
        <pt x="365" y="380" on="0"/>
        <pt x="385" y="390" on="0"/>
        <pt x="414" y="408" on="0"/>
        <pt x="447" y="435" on="0"/>
        <pt x="475" y="469" on="0"/>
        <pt x="494" y="512" on="0"/>
        <pt x="494" y="536" on="1"/>
        <pt x="494" y="583" on="0"/>
        <pt x="424" y="639" on="0"/>
        <pt x="373" y="639" on="1"/>
        <pt x="340" y="639" on="0"/>
        <pt x="282" y="620" on="0"/>
        <pt x="238" y="588" on="0"/>
        <pt x="212" y="545" on="0"/>
        <pt x="212" y="522" on="1"/>
        <pt x="212" y="496" on="0"/>
        <pt x="238" y="465" on="0"/>
        <pt x="252" y="455" on="1"/>
      </contour>
      <contour>
        <pt x="281" y="318" on="1"/>
        <pt x="222" y="291" on="0"/>
        <pt x="158" y="229" on="0"/>
        <pt x="129" y="175" on="0"/>
        <pt x="124" y="135" on="0"/>
        <pt x="124" y="129" on="1"/>
        <pt x="124" y="103" on="0"/>
        <pt x="146" y="59" on="0"/>
        <pt x="183" y="27" on="0"/>
        <pt x="235" y="9" on="0"/>
        <pt x="265" y="9" on="1"/>
        <pt x="303" y="9" on="0"/>
        <pt x="371" y="32" on="0"/>
        <pt x="423" y="71" on="0"/>
        <pt x="453" y="123" on="0"/>
        <pt x="453" y="151" on="1"/>
        <pt x="453" y="169" on="0"/>
        <pt x="442" y="197" on="0"/>
        <pt x="424" y="219" on="0"/>
        <pt x="399" y="237" on="0"/>
        <pt x="384" y="247" on="1"/>
        <pt x="365" y="261" on="0"/>
        <pt x="337" y="279" on="0"/>
        <pt x="315" y="294" on="0"/>
        <pt x="294" y="309" on="0"/>
      </contour>
    </TTGlyph>
    <TTGlyph name="emdash" xMin="42" yMin="252" xMax="1109" yMax="280">
      <contour>
        <pt x="1104" y="252" on="1"/>
        <pt x="42" y="252" on="1"/>
        <pt x="47" y="280" on="1"/>
        <pt x="1109" y="280" on="1"/>
      </contour>
    </TTGlyph>
    <TTGlyph name="endash" xMin="42" yMin="252" xMax="577" yMax="280">
      <contour>
        <pt x="572" y="252" on="1"/>
        <pt x="42" y="252" on="1"/>
        <pt x="47" y="280" on="1"/>
        <pt x="577" y="280" on="1"/>
      </contour>
    </TTGlyph>
    <TTGlyph name="equal" xMin="83" yMin="121" xMax="825" yMax="379">
      <contour>
        <pt x="153" y="333" on="1"/>
        <pt x="142" y="333" on="0"/>
        <pt x="118" y="339" on="0"/>
        <pt x="118" y="356" on="1"/>
        <pt x="118" y="365" on="0"/>
        <pt x="126" y="374" on="0"/>
        <pt x="138" y="378" on="0"/>
        <pt x="152" y="379" on="0"/>
        <pt x="158" y="379" on="1"/>
        <pt x="786" y="379" on="1"/>
        <pt x="798" y="379" on="0"/>
        <pt x="825" y="373" on="0"/>
        <pt x="825" y="356" on="1"/>
        <pt x="825" y="339" on="0"/>
        <pt x="802" y="333" on="0"/>
        <pt x="791" y="333" on="1"/>
      </contour>
      <contour>
        <pt x="123" y="121" on="1"/>
        <pt x="117" y="121" on="0"/>
        <pt x="103" y="122" on="0"/>
        <pt x="91" y="126" on="0"/>
        <pt x="83" y="135" on="0"/>
        <pt x="83" y="144" on="1"/>
        <pt x="83" y="161" on="0"/>
        <pt x="107" y="167" on="0"/>
        <pt x="118" y="167" on="1"/>
        <pt x="756" y="167" on="1"/>
        <pt x="767" y="167" on="0"/>
        <pt x="790" y="161" on="0"/>
        <pt x="790" y="144" on="1"/>
        <pt x="790" y="135" on="0"/>
        <pt x="782" y="126" on="0"/>
        <pt x="770" y="122" on="0"/>
        <pt x="757" y="121" on="0"/>
        <pt x="751" y="121" on="1"/>
      </contour>
    </TTGlyph>
    <TTGlyph name="exclam" xMin="101" yMin="0" xMax="314" yMax="715">
      <contour>
        <pt x="199" y="209" on="1"/>
        <pt x="196" y="197" on="0"/>
        <pt x="190" y="191" on="0"/>
        <pt x="181" y="191" on="1"/>
        <pt x="168" y="191" on="0"/>
        <pt x="166" y="206" on="0"/>
        <pt x="167" y="207" on="1"/>
        <pt x="168" y="208" on="0"/>
        <pt x="167" y="211" on="0"/>
        <pt x="167" y="212" on="1"/>
        <pt x="201" y="654" on="1"/>
        <pt x="203" y="672" on="0"/>
        <pt x="217" y="696" on="0"/>
        <pt x="237" y="709" on="0"/>
        <pt x="257" y="715" on="0"/>
        <pt x="264" y="715" on="1"/>
        <pt x="287" y="715" on="0"/>
        <pt x="314" y="689" on="0"/>
        <pt x="314" y="669" on="1"/>
        <pt x="314" y="664" on="0"/>
        <pt x="313" y="658" on="0"/>
        <pt x="310" y="647" on="1"/>
      </contour>
      <contour>
        <pt x="213" y="62" on="1"/>
        <pt x="213" y="39" on="0"/>
        <pt x="176" y="0" on="0"/>
        <pt x="150" y="0" on="1"/>
        <pt x="131" y="0" on="0"/>
        <pt x="101" y="25" on="0"/>
        <pt x="101" y="49" on="1"/>
        <pt x="101" y="75" on="0"/>
        <pt x="140" y="111" on="0"/>
        <pt x="164" y="111" on="1"/>
        <pt x="184" y="111" on="0"/>
        <pt x="213" y="83" on="0"/>
      </contour>
    </TTGlyph>
    <TTGlyph name="exclamdown" xMin="64" yMin="-215" xMax="278" yMax="500">
      <contour>
        <pt x="278" y="451" on="1"/>
        <pt x="278" y="440" on="0"/>
        <pt x="268" y="418" on="0"/>
        <pt x="251" y="400" on="0"/>
        <pt x="228" y="389" on="0"/>
        <pt x="215" y="389" on="1"/>
        <pt x="198" y="389" on="0"/>
        <pt x="166" y="412" on="0"/>
        <pt x="166" y="438" on="1"/>
        <pt x="166" y="466" on="0"/>
        <pt x="206" y="500" on="0"/>
        <pt x="228" y="500" on="1"/>
        <pt x="252" y="500" on="0"/>
        <pt x="278" y="469" on="0"/>
      </contour>
      <contour>
        <pt x="179" y="290" on="1"/>
        <pt x="182" y="303" on="0"/>
        <pt x="189" y="309" on="0"/>
        <pt x="197" y="309" on="1"/>
        <pt x="200" y="309" on="0"/>
        <pt x="212" y="306" on="0"/>
        <pt x="212" y="296" on="1"/>
        <pt x="177" y="-149" on="1"/>
        <pt x="175" y="-164" on="0"/>
        <pt x="171" y="-184" on="0"/>
        <pt x="160" y="-196" on="1"/>
        <pt x="157" y="-199" on="0"/>
        <pt x="132" y="-215" on="0"/>
        <pt x="114" y="-215" on="1"/>
        <pt x="89" y="-215" on="0"/>
        <pt x="64" y="-185" on="0"/>
        <pt x="64" y="-169" on="1"/>
        <pt x="64" y="-166" on="0"/>
        <pt x="65" y="-160" on="0"/>
        <pt x="68" y="-149" on="1"/>
      </contour>
    </TTGlyph>
    <TTGlyph name="f" xMin="42" yMin="0" xMax="483" yMax="704">
      <contour>
        <pt x="205" y="82" on="1"/>
        <pt x="203" y="70" on="0"/>
        <pt x="202" y="64" on="0"/>
        <pt x="202" y="61" on="1"/>
        <pt x="202" y="54" on="0"/>
        <pt x="206" y="43" on="0"/>
        <pt x="221" y="36" on="0"/>
        <pt x="248" y="33" on="0"/>
        <pt x="272" y="33" on="1"/>
        <pt x="292" y="33" on="1"/>
        <pt x="291" y="30" on="0"/>
        <pt x="288" y="5" on="0"/>
        <pt x="287" y="0" on="1"/>
        <pt x="262" y="1" on="0"/>
        <pt x="231" y="2" on="0"/>
        <pt x="207" y="3" on="0"/>
        <pt x="181" y="3" on="0"/>
        <pt x="160" y="3" on="1"/>
        <pt x="136" y="3" on="0"/>
        <pt x="74" y="2" on="0"/>
        <pt x="42" y="0" on="1"/>
        <pt x="47" y="33" on="1"/>
        <pt x="69" y="33" on="0"/>
        <pt x="99" y="34" on="0"/>
        <pt x="118" y="42" on="0"/>
        <pt x="128" y="57" on="0"/>
        <pt x="130" y="72" on="1"/>
        <pt x="184" y="398" on="1"/>
        <pt x="102" y="398" on="1"/>
        <pt x="108" y="431" on="1"/>
        <pt x="190" y="431" on="1"/>
        <pt x="209" y="548" on="1"/>
        <pt x="215" y="583" on="0"/>
        <pt x="251" y="640" on="0"/>
        <pt x="303" y="681" on="0"/>
        <pt x="366" y="704" on="0"/>
        <pt x="397" y="704" on="1"/>
        <pt x="437" y="704" on="0"/>
        <pt x="483" y="667" on="0"/>
        <pt x="483" y="640" on="1"/>
        <pt x="483" y="617" on="0"/>
        <pt x="454" y="587" on="0"/>
        <pt x="432" y="587" on="1"/>
        <pt x="415" y="587" on="0"/>
        <pt x="392" y="607" on="0"/>
        <pt x="392" y="626" on="1"/>
        <pt x="392" y="647" on="0"/>
        <pt x="415" y="670" on="0"/>
        <pt x="420" y="672" on="1"/>
        <pt x="415" y="674" on="0"/>
        <pt x="405" y="676" on="0"/>
        <pt x="396" y="676" on="1"/>
        <pt x="378" y="676" on="0"/>
        <pt x="340" y="657" on="0"/>
        <pt x="308" y="623" on="0"/>
        <pt x="284" y="574" on="0"/>
        <pt x="279" y="545" on="1"/>
        <pt x="260" y="431" on="1"/>
        <pt x="383" y="431" on="1"/>
        <pt x="377" y="398" on="1"/>
        <pt x="258" y="398" on="1"/>
      </contour>
    </TTGlyph>
    <TTGlyph name="f_f" xMin="35" yMin="0" xMax="771" yMax="704">
      <contour>
        <pt x="492" y="82" on="1"/>
        <pt x="490" y="70" on="0"/>
        <pt x="489" y="64" on="0"/>
        <pt x="489" y="61" on="1"/>
        <pt x="489" y="54" on="0"/>
        <pt x="493" y="43" on="0"/>
        <pt x="508" y="36" on="0"/>
        <pt x="535" y="33" on="0"/>
        <pt x="559" y="33" on="1"/>
        <pt x="579" y="33" on="1"/>
        <pt x="578" y="30" on="0"/>
        <pt x="575" y="5" on="0"/>
        <pt x="574" y="0" on="1"/>
        <pt x="549" y="1" on="0"/>
        <pt x="518" y="2" on="0"/>
        <pt x="494" y="3" on="0"/>
        <pt x="468" y="3" on="0"/>
        <pt x="447" y="3" on="1"/>
        <pt x="423" y="3" on="0"/>
        <pt x="361" y="2" on="0"/>
        <pt x="329" y="0" on="1"/>
        <pt x="334" y="33" on="1"/>
        <pt x="356" y="33" on="0"/>
        <pt x="386" y="34" on="0"/>
        <pt x="405" y="42" on="0"/>
        <pt x="415" y="57" on="0"/>
        <pt x="417" y="72" on="1"/>
        <pt x="471" y="398" on="1"/>
        <pt x="251" y="398" on="1"/>
        <pt x="197" y="73" on="1"/>
        <pt x="197" y="71" on="0"/>
        <pt x="195" y="59" on="0"/>
        <pt x="195" y="58" on="1"/>
        <pt x="195" y="39" on="0"/>
        <pt x="229" y="33" on="0"/>
        <pt x="266" y="33" on="1"/>
        <pt x="260" y="0" on="1"/>
        <pt x="245" y="1" on="0"/>
        <pt x="212" y="2" on="0"/>
        <pt x="181" y="3" on="0"/>
        <pt x="156" y="3" on="0"/>
        <pt x="148" y="3" on="1"/>
        <pt x="128" y="3" on="0"/>
        <pt x="67" y="2" on="0"/>
        <pt x="35" y="0" on="1"/>
        <pt x="40" y="33" on="1"/>
        <pt x="62" y="33" on="0"/>
        <pt x="92" y="34" on="0"/>
        <pt x="111" y="42" on="0"/>
        <pt x="121" y="57" on="0"/>
        <pt x="123" y="72" on="1"/>
        <pt x="177" y="398" on="1"/>
        <pt x="95" y="398" on="1"/>
        <pt x="101" y="431" on="1"/>
        <pt x="183" y="431" on="1"/>
        <pt x="202" y="548" on="1"/>
        <pt x="208" y="583" on="0"/>
        <pt x="254" y="640" on="0"/>
        <pt x="323" y="681" on="0"/>
        <pt x="408" y="704" on="0"/>
        <pt x="453" y="704" on="1"/>
        <pt x="481" y="704" on="0"/>
        <pt x="546" y="689" on="0"/>
        <pt x="566" y="663" on="1"/>
        <pt x="571" y="667" on="0"/>
        <pt x="593" y="681" on="0"/>
        <pt x="624" y="694" on="0"/>
        <pt x="663" y="704" on="0"/>
        <pt x="685" y="704" on="1"/>
        <pt x="722" y="704" on="0"/>
        <pt x="771" y="669" on="0"/>
        <pt x="771" y="640" on="1"/>
        <pt x="771" y="617" on="0"/>
        <pt x="742" y="587" on="0"/>
        <pt x="720" y="587" on="1"/>
        <pt x="703" y="587" on="0"/>
        <pt x="680" y="607" on="0"/>
        <pt x="680" y="626" on="1"/>
        <pt x="680" y="647" on="0"/>
        <pt x="703" y="670" on="0"/>
        <pt x="708" y="672" on="1"/>
        <pt x="705" y="673" on="0"/>
        <pt x="693" y="676" on="0"/>
        <pt x="684" y="676" on="1"/>
        <pt x="665" y="676" on="0"/>
        <pt x="627" y="657" on="0"/>
        <pt x="595" y="622" on="0"/>
        <pt x="571" y="574" on="0"/>
        <pt x="566" y="545" on="1"/>
        <pt x="547" y="431" on="1"/>
        <pt x="671" y="431" on="1"/>
        <pt x="665" y="398" on="1"/>
        <pt x="545" y="398" on="1"/>
      </contour>
      <contour>
        <pt x="253" y="431" on="1"/>
        <pt x="477" y="431" on="1"/>
        <pt x="496" y="549" on="1"/>
        <pt x="499" y="562" on="0"/>
        <pt x="504" y="578" on="1"/>
        <pt x="499" y="581" on="0"/>
        <pt x="485" y="594" on="0"/>
        <pt x="485" y="612" on="1"/>
        <pt x="485" y="624" on="0"/>
        <pt x="494" y="642" on="0"/>
        <pt x="507" y="654" on="0"/>
        <pt x="519" y="661" on="0"/>
        <pt x="522" y="662" on="1"/>
        <pt x="512" y="667" on="0"/>
        <pt x="488" y="673" on="0"/>
        <pt x="468" y="676" on="0"/>
        <pt x="453" y="676" on="0"/>
        <pt x="451" y="676" on="1"/>
        <pt x="417" y="676" on="0"/>
        <pt x="356" y="655" on="0"/>
        <pt x="308" y="619" on="0"/>
        <pt x="276" y="570" on="0"/>
        <pt x="271" y="542" on="1"/>
      </contour>
    </TTGlyph>
    <TTGlyph name="f_f_i" xMin="35" yMin="0" xMax="872" yMax="704">
      <contour>
        <pt x="786" y="73" on="1"/>
        <pt x="786" y="71" on="0"/>
        <pt x="784" y="59" on="0"/>
        <pt x="784" y="58" on="1"/>
        <pt x="784" y="39" on="0"/>
        <pt x="818" y="33" on="0"/>
        <pt x="855" y="33" on="1"/>
        <pt x="849" y="0" on="1"/>
        <pt x="834" y="1" on="0"/>
        <pt x="801" y="2" on="0"/>
        <pt x="770" y="3" on="0"/>
        <pt x="745" y="3" on="0"/>
        <pt x="737" y="3" on="1"/>
        <pt x="717" y="3" on="0"/>
        <pt x="656" y="2" on="0"/>
        <pt x="624" y="0" on="1"/>
        <pt x="629" y="33" on="1"/>
        <pt x="651" y="33" on="0"/>
        <pt x="681" y="34" on="0"/>
        <pt x="700" y="42" on="0"/>
        <pt x="710" y="57" on="0"/>
        <pt x="712" y="72" on="1"/>
        <pt x="757" y="343" on="1"/>
        <pt x="759" y="356" on="0"/>
        <pt x="760" y="363" on="0"/>
        <pt x="760" y="367" on="1"/>
        <pt x="760" y="388" on="0"/>
        <pt x="738" y="398" on="0"/>
        <pt x="717" y="398" on="1"/>
        <pt x="546" y="398" on="1"/>
        <pt x="492" y="73" on="1"/>
        <pt x="492" y="71" on="0"/>
        <pt x="490" y="59" on="0"/>
        <pt x="490" y="58" on="1"/>
        <pt x="490" y="39" on="0"/>
        <pt x="524" y="33" on="0"/>
        <pt x="561" y="33" on="1"/>
        <pt x="555" y="0" on="1"/>
        <pt x="540" y="1" on="0"/>
        <pt x="507" y="2" on="0"/>
        <pt x="476" y="3" on="0"/>
        <pt x="451" y="3" on="0"/>
        <pt x="443" y="3" on="1"/>
        <pt x="423" y="3" on="0"/>
        <pt x="362" y="2" on="0"/>
        <pt x="330" y="0" on="1"/>
        <pt x="335" y="33" on="1"/>
        <pt x="357" y="33" on="0"/>
        <pt x="387" y="34" on="0"/>
        <pt x="406" y="42" on="0"/>
        <pt x="416" y="57" on="0"/>
        <pt x="418" y="72" on="1"/>
        <pt x="472" y="398" on="1"/>
        <pt x="251" y="398" on="1"/>
        <pt x="197" y="73" on="1"/>
        <pt x="197" y="71" on="0"/>
        <pt x="195" y="59" on="0"/>
        <pt x="195" y="58" on="1"/>
        <pt x="195" y="39" on="0"/>
        <pt x="229" y="33" on="0"/>
        <pt x="266" y="33" on="1"/>
        <pt x="260" y="0" on="1"/>
        <pt x="245" y="1" on="0"/>
        <pt x="212" y="2" on="0"/>
        <pt x="181" y="3" on="0"/>
        <pt x="156" y="3" on="0"/>
        <pt x="148" y="3" on="1"/>
        <pt x="128" y="3" on="0"/>
        <pt x="67" y="2" on="0"/>
        <pt x="35" y="0" on="1"/>
        <pt x="40" y="33" on="1"/>
        <pt x="62" y="33" on="0"/>
        <pt x="92" y="34" on="0"/>
        <pt x="111" y="42" on="0"/>
        <pt x="121" y="57" on="0"/>
        <pt x="123" y="72" on="1"/>
        <pt x="177" y="398" on="1"/>
        <pt x="95" y="398" on="1"/>
        <pt x="101" y="431" on="1"/>
        <pt x="183" y="431" on="1"/>
        <pt x="202" y="548" on="1"/>
        <pt x="208" y="583" on="0"/>
        <pt x="255" y="640" on="0"/>
        <pt x="324" y="681" on="0"/>
        <pt x="409" y="704" on="0"/>
        <pt x="452" y="704" on="1"/>
        <pt x="479" y="704" on="0"/>
        <pt x="519" y="692" on="0"/>
        <pt x="547" y="676" on="0"/>
        <pt x="563" y="657" on="0"/>
        <pt x="567" y="650" on="1"/>
        <pt x="597" y="670" on="0"/>
        <pt x="689" y="704" on="0"/>
        <pt x="749" y="704" on="1"/>
        <pt x="804" y="704" on="0"/>
        <pt x="872" y="655" on="0"/>
        <pt x="872" y="614" on="1"/>
        <pt x="872" y="592" on="0"/>
        <pt x="856" y="568" on="0"/>
        <pt x="837" y="556" on="0"/>
        <pt x="819" y="553" on="0"/>
        <pt x="817" y="553" on="1"/>
        <pt x="817" y="553" on="0"/>
        <pt x="803" y="554" on="0"/>
        <pt x="788" y="562" on="0"/>
        <pt x="775" y="579" on="0"/>
        <pt x="775" y="595" on="1"/>
        <pt x="775" y="610" on="0"/>
        <pt x="796" y="646" on="0"/>
        <pt x="826" y="649" on="1"/>
        <pt x="808" y="666" on="0"/>
        <pt x="763" y="676" on="0"/>
        <pt x="746" y="676" on="1"/>
        <pt x="715" y="676" on="0"/>
        <pt x="654" y="656" on="0"/>
        <pt x="605" y="620" on="0"/>
        <pt x="571" y="571" on="0"/>
        <pt x="566" y="542" on="1"/>
        <pt x="548" y="431" on="1"/>
        <pt x="678" y="431" on="1"/>
        <pt x="689" y="431" on="0"/>
        <pt x="694" y="431" on="0"/>
        <pt x="696" y="432" on="1"/>
        <pt x="697" y="432" on="0"/>
        <pt x="714" y="434" on="1"/>
        <pt x="847" y="443" on="1"/>
      </contour>
      <contour>
        <pt x="253" y="431" on="1"/>
        <pt x="478" y="431" on="1"/>
        <pt x="496" y="542" on="1"/>
        <pt x="496" y="543" on="0"/>
        <pt x="499" y="556" on="0"/>
        <pt x="499" y="558" on="1"/>
        <pt x="492" y="561" on="0"/>
        <pt x="477" y="579" on="0"/>
        <pt x="477" y="595" on="1"/>
        <pt x="477" y="595" on="0"/>
        <pt x="479" y="611" on="0"/>
        <pt x="488" y="630" on="0"/>
        <pt x="510" y="647" on="0"/>
        <pt x="529" y="649" on="1"/>
        <pt x="500" y="676" on="0"/>
        <pt x="449" y="676" on="1"/>
        <pt x="419" y="676" on="0"/>
        <pt x="359" y="656" on="0"/>
        <pt x="310" y="621" on="0"/>
        <pt x="276" y="572" on="0"/>
        <pt x="271" y="542" on="1"/>
      </contour>
    </TTGlyph>
    <TTGlyph name="f_f_l" xMin="35" yMin="0" xMax="889" yMax="704">
      <contour>
        <pt x="786" y="73" on="1"/>
        <pt x="786" y="71" on="0"/>
        <pt x="784" y="59" on="0"/>
        <pt x="784" y="58" on="1"/>
        <pt x="784" y="39" on="0"/>
        <pt x="818" y="33" on="0"/>
        <pt x="855" y="33" on="1"/>
        <pt x="849" y="0" on="1"/>
        <pt x="834" y="1" on="0"/>
        <pt x="801" y="2" on="0"/>
        <pt x="770" y="3" on="0"/>
        <pt x="745" y="3" on="0"/>
        <pt x="737" y="3" on="1"/>
        <pt x="717" y="3" on="0"/>
        <pt x="656" y="2" on="0"/>
        <pt x="624" y="0" on="1"/>
        <pt x="629" y="33" on="1"/>
        <pt x="651" y="33" on="0"/>
        <pt x="681" y="34" on="0"/>
        <pt x="700" y="42" on="0"/>
        <pt x="710" y="57" on="0"/>
        <pt x="712" y="72" on="1"/>
        <pt x="766" y="398" on="1"/>
        <pt x="546" y="398" on="1"/>
        <pt x="492" y="73" on="1"/>
        <pt x="492" y="71" on="0"/>
        <pt x="490" y="59" on="0"/>
        <pt x="490" y="58" on="1"/>
        <pt x="490" y="39" on="0"/>
        <pt x="524" y="33" on="0"/>
        <pt x="561" y="33" on="1"/>
        <pt x="555" y="0" on="1"/>
        <pt x="540" y="1" on="0"/>
        <pt x="507" y="2" on="0"/>
        <pt x="476" y="3" on="0"/>
        <pt x="451" y="3" on="0"/>
        <pt x="443" y="3" on="1"/>
        <pt x="423" y="3" on="0"/>
        <pt x="362" y="2" on="0"/>
        <pt x="330" y="0" on="1"/>
        <pt x="335" y="33" on="1"/>
        <pt x="357" y="33" on="0"/>
        <pt x="387" y="34" on="0"/>
        <pt x="406" y="42" on="0"/>
        <pt x="416" y="57" on="0"/>
        <pt x="418" y="72" on="1"/>
        <pt x="472" y="398" on="1"/>
        <pt x="251" y="398" on="1"/>
        <pt x="197" y="73" on="1"/>
        <pt x="197" y="71" on="0"/>
        <pt x="195" y="59" on="0"/>
        <pt x="195" y="58" on="1"/>
        <pt x="195" y="39" on="0"/>
        <pt x="229" y="33" on="0"/>
        <pt x="266" y="33" on="1"/>
        <pt x="260" y="0" on="1"/>
        <pt x="245" y="1" on="0"/>
        <pt x="212" y="2" on="0"/>
        <pt x="181" y="3" on="0"/>
        <pt x="156" y="3" on="0"/>
        <pt x="148" y="3" on="1"/>
        <pt x="128" y="3" on="0"/>
        <pt x="67" y="2" on="0"/>
        <pt x="35" y="0" on="1"/>
        <pt x="40" y="33" on="1"/>
        <pt x="62" y="33" on="0"/>
        <pt x="92" y="34" on="0"/>
        <pt x="111" y="42" on="0"/>
        <pt x="121" y="57" on="0"/>
        <pt x="123" y="72" on="1"/>
        <pt x="177" y="398" on="1"/>
        <pt x="95" y="398" on="1"/>
        <pt x="101" y="431" on="1"/>
        <pt x="183" y="431" on="1"/>
        <pt x="202" y="548" on="1"/>
        <pt x="208" y="582" on="0"/>
        <pt x="254" y="639" on="0"/>
        <pt x="323" y="681" on="0"/>
        <pt x="408" y="704" on="0"/>
        <pt x="453" y="704" on="1"/>
        <pt x="501" y="704" on="0"/>
        <pt x="562" y="677" on="0"/>
        <pt x="573" y="653" on="1"/>
        <pt x="599" y="671" on="0"/>
        <pt x="652" y="691" on="0"/>
        <pt x="700" y="702" on="0"/>
        <pt x="739" y="704" on="0"/>
        <pt x="751" y="704" on="1"/>
        <pt x="761" y="704" on="0"/>
        <pt x="811" y="701" on="0"/>
        <pt x="835" y="692" on="1"/>
        <pt x="840" y="690" on="0"/>
        <pt x="844" y="688" on="0"/>
        <pt x="847" y="688" on="1"/>
        <pt x="850" y="688" on="0"/>
        <pt x="861" y="690" on="0"/>
        <pt x="874" y="692" on="0"/>
        <pt x="886" y="694" on="0"/>
        <pt x="889" y="694" on="1"/>
      </contour>
      <contour>
        <pt x="253" y="431" on="1"/>
        <pt x="478" y="431" on="1"/>
        <pt x="497" y="548" on="1"/>
        <pt x="500" y="565" on="0"/>
        <pt x="506" y="578" on="1"/>
        <pt x="486" y="587" on="0"/>
        <pt x="486" y="612" on="1"/>
        <pt x="486" y="621" on="0"/>
        <pt x="500" y="653" on="0"/>
        <pt x="523" y="661" on="1"/>
        <pt x="502" y="672" on="0"/>
        <pt x="459" y="676" on="0"/>
        <pt x="451" y="676" on="1"/>
        <pt x="418" y="676" on="0"/>
        <pt x="357" y="656" on="0"/>
        <pt x="308" y="620" on="0"/>
        <pt x="276" y="571" on="0"/>
        <pt x="271" y="542" on="1"/>
      </contour>
      <contour>
        <pt x="548" y="431" on="1"/>
        <pt x="772" y="431" on="1"/>
        <pt x="799" y="593" on="1"/>
        <pt x="793" y="597" on="0"/>
        <pt x="782" y="614" on="0"/>
        <pt x="782" y="625" on="1"/>
        <pt x="782" y="642" on="0"/>
        <pt x="799" y="665" on="0"/>
        <pt x="807" y="670" on="1"/>
        <pt x="783" y="676" on="0"/>
        <pt x="749" y="676" on="1"/>
        <pt x="711" y="676" on="0"/>
        <pt x="647" y="653" on="0"/>
        <pt x="600" y="615" on="0"/>
        <pt x="570" y="567" on="0"/>
        <pt x="566" y="542" on="1"/>
      </contour>
    </TTGlyph>
    <TTGlyph name="fi" xMin="35" yMin="0" xMax="577" yMax="704">
      <contour>
        <pt x="491" y="73" on="1"/>
        <pt x="491" y="71" on="0"/>
        <pt x="489" y="59" on="0"/>
        <pt x="489" y="58" on="1"/>
        <pt x="489" y="39" on="0"/>
        <pt x="523" y="33" on="0"/>
        <pt x="560" y="33" on="1"/>
        <pt x="554" y="0" on="1"/>
        <pt x="539" y="1" on="0"/>
        <pt x="506" y="2" on="0"/>
        <pt x="475" y="3" on="0"/>
        <pt x="450" y="3" on="0"/>
        <pt x="442" y="3" on="1"/>
        <pt x="422" y="3" on="0"/>
        <pt x="361" y="2" on="0"/>
        <pt x="329" y="0" on="1"/>
        <pt x="334" y="33" on="1"/>
        <pt x="356" y="33" on="0"/>
        <pt x="386" y="34" on="0"/>
        <pt x="405" y="42" on="0"/>
        <pt x="415" y="57" on="0"/>
        <pt x="417" y="72" on="1"/>
        <pt x="462" y="343" on="1"/>
        <pt x="464" y="356" on="0"/>
        <pt x="465" y="363" on="0"/>
        <pt x="465" y="367" on="1"/>
        <pt x="465" y="388" on="0"/>
        <pt x="443" y="398" on="0"/>
        <pt x="422" y="398" on="1"/>
        <pt x="251" y="398" on="1"/>
        <pt x="197" y="73" on="1"/>
        <pt x="197" y="71" on="0"/>
        <pt x="195" y="59" on="0"/>
        <pt x="195" y="58" on="1"/>
        <pt x="195" y="39" on="0"/>
        <pt x="229" y="33" on="0"/>
        <pt x="266" y="33" on="1"/>
        <pt x="260" y="0" on="1"/>
        <pt x="245" y="1" on="0"/>
        <pt x="212" y="2" on="0"/>
        <pt x="181" y="3" on="0"/>
        <pt x="156" y="3" on="0"/>
        <pt x="148" y="3" on="1"/>
        <pt x="128" y="3" on="0"/>
        <pt x="67" y="2" on="0"/>
        <pt x="35" y="0" on="1"/>
        <pt x="40" y="33" on="1"/>
        <pt x="62" y="33" on="0"/>
        <pt x="92" y="34" on="0"/>
        <pt x="111" y="42" on="0"/>
        <pt x="121" y="57" on="0"/>
        <pt x="123" y="72" on="1"/>
        <pt x="177" y="398" on="1"/>
        <pt x="95" y="398" on="1"/>
        <pt x="101" y="431" on="1"/>
        <pt x="183" y="431" on="1"/>
        <pt x="202" y="548" on="1"/>
        <pt x="208" y="583" on="0"/>
        <pt x="255" y="640" on="0"/>
        <pt x="325" y="681" on="0"/>
        <pt x="410" y="704" on="0"/>
        <pt x="454" y="704" on="1"/>
        <pt x="509" y="704" on="0"/>
        <pt x="577" y="655" on="0"/>
        <pt x="577" y="614" on="1"/>
        <pt x="577" y="592" on="0"/>
        <pt x="561" y="568" on="0"/>
        <pt x="542" y="556" on="0"/>
        <pt x="524" y="553" on="0"/>
        <pt x="522" y="553" on="1"/>
        <pt x="522" y="553" on="0"/>
        <pt x="508" y="554" on="0"/>
        <pt x="493" y="562" on="0"/>
        <pt x="480" y="579" on="0"/>
        <pt x="480" y="595" on="1"/>
        <pt x="480" y="610" on="0"/>
        <pt x="501" y="646" on="0"/>
        <pt x="531" y="649" on="1"/>
        <pt x="513" y="666" on="0"/>
        <pt x="468" y="676" on="0"/>
        <pt x="451" y="676" on="1"/>
        <pt x="420" y="676" on="0"/>
        <pt x="359" y="656" on="0"/>
        <pt x="310" y="620" on="0"/>
        <pt x="276" y="571" on="0"/>
        <pt x="271" y="542" on="1"/>
        <pt x="253" y="431" on="1"/>
        <pt x="383" y="431" on="1"/>
        <pt x="394" y="431" on="0"/>
        <pt x="399" y="431" on="0"/>
        <pt x="401" y="432" on="1"/>
        <pt x="402" y="432" on="0"/>
        <pt x="419" y="434" on="1"/>
        <pt x="552" y="443" on="1"/>
      </contour>
    </TTGlyph>
    <TTGlyph name="five" xMin="78" yMin="-21" xMax="545" yMax="665">
      <contour>
        <pt x="203" y="371" on="1"/>
        <pt x="237" y="398" on="0"/>
        <pt x="310" y="419" on="0"/>
        <pt x="343" y="419" on="1"/>
        <pt x="380" y="419" on="0"/>
        <pt x="442" y="393" on="0"/>
        <pt x="487" y="345" on="0"/>
        <pt x="513" y="278" on="0"/>
        <pt x="513" y="237" on="1"/>
        <pt x="513" y="181" on="0"/>
        <pt x="466" y="86" on="0"/>
        <pt x="389" y="17" on="0"/>
        <pt x="293" y="-21" on="0"/>
        <pt x="245" y="-21" on="1"/>
        <pt x="207" y="-21" on="0"/>
        <pt x="145" y="4" on="0"/>
        <pt x="102" y="46" on="0"/>
        <pt x="78" y="103" on="0"/>
        <pt x="78" y="136" on="1"/>
        <pt x="78" y="141" on="0"/>
        <pt x="80" y="167" on="0"/>
        <pt x="91" y="193" on="0"/>
        <pt x="114" y="213" on="0"/>
        <pt x="136" y="213" on="1"/>
        <pt x="153" y="213" on="0"/>
        <pt x="180" y="192" on="0"/>
        <pt x="180" y="170" on="1"/>
        <pt x="180" y="148" on="0"/>
        <pt x="149" y="114" on="0"/>
        <pt x="123" y="114" on="1"/>
        <pt x="114" y="114" on="0"/>
        <pt x="111" y="115" on="1"/>
        <pt x="116" y="88" on="0"/>
        <pt x="141" y="49" on="0"/>
        <pt x="177" y="22" on="0"/>
        <pt x="221" y="9" on="0"/>
        <pt x="243" y="9" on="1"/>
        <pt x="281" y="9" on="0"/>
        <pt x="358" y="51" on="0"/>
        <pt x="384" y="96" on="1"/>
        <pt x="399" y="121" on="0"/>
        <pt x="416" y="184" on="0"/>
        <pt x="425" y="240" on="0"/>
        <pt x="427" y="278" on="0"/>
        <pt x="427" y="279" on="1"/>
        <pt x="427" y="327" on="0"/>
        <pt x="384" y="391" on="0"/>
        <pt x="342" y="391" on="1"/>
        <pt x="291" y="391" on="0"/>
        <pt x="219" y="351" on="0"/>
        <pt x="200" y="330" on="1"/>
        <pt x="189" y="318" on="0"/>
        <pt x="182" y="313" on="0"/>
        <pt x="177" y="313" on="1"/>
        <pt x="171" y="313" on="0"/>
        <pt x="162" y="321" on="0"/>
        <pt x="162" y="328" on="1"/>
        <pt x="162" y="330" on="0"/>
        <pt x="164" y="338" on="0"/>
        <pt x="164" y="340" on="1"/>
        <pt x="214" y="643" on="1"/>
        <pt x="218" y="665" on="0"/>
        <pt x="229" y="665" on="1"/>
        <pt x="231" y="665" on="0"/>
        <pt x="235" y="664" on="0"/>
        <pt x="243" y="659" on="1"/>
        <pt x="266" y="649" on="0"/>
        <pt x="332" y="633" on="0"/>
        <pt x="376" y="633" on="1"/>
        <pt x="408" y="633" on="0"/>
        <pt x="481" y="646" on="0"/>
        <pt x="519" y="660" on="1"/>
        <pt x="527" y="664" on="0"/>
        <pt x="531" y="665" on="0"/>
        <pt x="532" y="665" on="1"/>
        <pt x="539" y="665" on="0"/>
        <pt x="545" y="657" on="0"/>
        <pt x="545" y="653" on="1"/>
        <pt x="545" y="645" on="0"/>
        <pt x="533" y="632" on="0"/>
        <pt x="520" y="621" on="1"/>
        <pt x="471" y="580" on="0"/>
        <pt x="373" y="548" on="0"/>
        <pt x="328" y="548" on="1"/>
        <pt x="305" y="548" on="0"/>
        <pt x="256" y="555" on="0"/>
        <pt x="234" y="563" on="1"/>
      </contour>
    </TTGlyph>
    <TTGlyph name="fl" xMin="35" yMin="0" xMax="594" yMax="704">
      <contour>
        <pt x="491" y="73" on="1"/>
        <pt x="491" y="71" on="0"/>
        <pt x="489" y="59" on="0"/>
        <pt x="489" y="58" on="1"/>
        <pt x="489" y="39" on="0"/>
        <pt x="523" y="33" on="0"/>
        <pt x="560" y="33" on="1"/>
        <pt x="554" y="0" on="1"/>
        <pt x="539" y="1" on="0"/>
        <pt x="506" y="2" on="0"/>
        <pt x="475" y="3" on="0"/>
        <pt x="450" y="3" on="0"/>
        <pt x="442" y="3" on="1"/>
        <pt x="422" y="3" on="0"/>
        <pt x="361" y="2" on="0"/>
        <pt x="329" y="0" on="1"/>
        <pt x="334" y="33" on="1"/>
        <pt x="356" y="33" on="0"/>
        <pt x="386" y="34" on="0"/>
        <pt x="405" y="42" on="0"/>
        <pt x="415" y="57" on="0"/>
        <pt x="417" y="72" on="1"/>
        <pt x="471" y="398" on="1"/>
        <pt x="251" y="398" on="1"/>
        <pt x="197" y="73" on="1"/>
        <pt x="197" y="71" on="0"/>
        <pt x="195" y="59" on="0"/>
        <pt x="195" y="58" on="1"/>
        <pt x="195" y="39" on="0"/>
        <pt x="229" y="33" on="0"/>
        <pt x="266" y="33" on="1"/>
        <pt x="260" y="0" on="1"/>
        <pt x="245" y="1" on="0"/>
        <pt x="212" y="2" on="0"/>
        <pt x="181" y="3" on="0"/>
        <pt x="156" y="3" on="0"/>
        <pt x="148" y="3" on="1"/>
        <pt x="128" y="3" on="0"/>
        <pt x="67" y="2" on="0"/>
        <pt x="35" y="0" on="1"/>
        <pt x="40" y="33" on="1"/>
        <pt x="62" y="33" on="0"/>
        <pt x="92" y="34" on="0"/>
        <pt x="111" y="42" on="0"/>
        <pt x="121" y="57" on="0"/>
        <pt x="123" y="72" on="1"/>
        <pt x="177" y="398" on="1"/>
        <pt x="95" y="398" on="1"/>
        <pt x="101" y="431" on="1"/>
        <pt x="183" y="431" on="1"/>
        <pt x="202" y="548" on="1"/>
        <pt x="207" y="581" on="0"/>
        <pt x="251" y="638" on="0"/>
        <pt x="319" y="680" on="0"/>
        <pt x="407" y="704" on="0"/>
        <pt x="456" y="704" on="1"/>
        <pt x="466" y="704" on="0"/>
        <pt x="516" y="701" on="0"/>
        <pt x="540" y="692" on="1"/>
        <pt x="545" y="690" on="0"/>
        <pt x="549" y="688" on="0"/>
        <pt x="552" y="688" on="1"/>
        <pt x="555" y="688" on="0"/>
        <pt x="566" y="690" on="0"/>
        <pt x="579" y="692" on="0"/>
        <pt x="591" y="694" on="0"/>
        <pt x="594" y="694" on="1"/>
      </contour>
      <contour>
        <pt x="253" y="431" on="1"/>
        <pt x="477" y="431" on="1"/>
        <pt x="504" y="593" on="1"/>
        <pt x="498" y="597" on="0"/>
        <pt x="487" y="614" on="0"/>
        <pt x="487" y="625" on="1"/>
        <pt x="487" y="642" on="0"/>
        <pt x="504" y="665" on="0"/>
        <pt x="512" y="670" on="1"/>
        <pt x="488" y="676" on="0"/>
        <pt x="454" y="676" on="1"/>
        <pt x="416" y="676" on="0"/>
        <pt x="352" y="653" on="0"/>
        <pt x="305" y="615" on="0"/>
        <pt x="275" y="567" on="0"/>
        <pt x="271" y="542" on="1"/>
      </contour>
    </TTGlyph>
    <TTGlyph name="four" xMin="57" yMin="0" xMax="533" yMax="675">
      <contour>
        <pt x="427" y="197" on="1"/>
        <pt x="533" y="197" on="1"/>
        <pt x="527" y="164" on="1"/>
        <pt x="422" y="164" on="1"/>
        <pt x="422" y="162" on="0"/>
        <pt x="416" y="131" on="0"/>
        <pt x="410" y="95" on="0"/>
        <pt x="405" y="64" on="0"/>
        <pt x="405" y="61" on="1"/>
        <pt x="405" y="54" on="0"/>
        <pt x="410" y="43" on="0"/>
        <pt x="426" y="36" on="0"/>
        <pt x="456" y="33" on="0"/>
        <pt x="480" y="33" on="1"/>
        <pt x="503" y="33" on="1"/>
        <pt x="497" y="0" on="1"/>
        <pt x="465" y="1" on="0"/>
        <pt x="428" y="2" on="0"/>
        <pt x="401" y="3" on="0"/>
        <pt x="374" y="3" on="0"/>
        <pt x="353" y="3" on="1"/>
        <pt x="329" y="3" on="0"/>
        <pt x="301" y="3" on="0"/>
        <pt x="273" y="2" on="0"/>
        <pt x="239" y="1" on="0"/>
        <pt x="209" y="0" on="1"/>
        <pt x="214" y="33" on="1"/>
        <pt x="237" y="33" on="1"/>
        <pt x="261" y="33" on="0"/>
        <pt x="291" y="36" on="0"/>
        <pt x="309" y="42" on="0"/>
        <pt x="318" y="52" on="0"/>
        <pt x="321" y="59" on="1"/>
        <pt x="322" y="62" on="0"/>
        <pt x="326" y="83" on="0"/>
        <pt x="331" y="113" on="0"/>
        <pt x="336" y="148" on="0"/>
        <pt x="339" y="164" on="1"/>
        <pt x="57" y="164" on="1"/>
        <pt x="59" y="182" on="0"/>
        <pt x="65" y="199" on="0"/>
        <pt x="71" y="206" on="1"/>
        <pt x="459" y="660" on="1"/>
        <pt x="468" y="671" on="0"/>
        <pt x="475" y="675" on="0"/>
        <pt x="486" y="675" on="1"/>
        <pt x="492" y="675" on="0"/>
        <pt x="504" y="672" on="0"/>
        <pt x="504" y="662" on="1"/>
        <pt x="504" y="660" on="0"/>
        <pt x="504" y="656" on="0"/>
        <pt x="502" y="649" on="1"/>
      </contour>
      <contour>
        <pt x="98" y="197" on="1"/>
        <pt x="352" y="197" on="1"/>
        <pt x="413" y="566" on="1"/>
      </contour>
    </TTGlyph>
    <TTGlyph name="g" xMin="16" yMin="-205" xMax="582" yMax="452">
      <contour>
        <pt x="244" y="69" on="1"/>
        <pt x="284" y="69" on="0"/>
        <pt x="370" y="65" on="0"/>
        <pt x="442" y="42" on="0"/>
        <pt x="489" y="-9" on="0"/>
        <pt x="489" y="-56" on="1"/>
        <pt x="489" y="-97" on="0"/>
        <pt x="437" y="-154" on="0"/>
        <pt x="360" y="-189" on="0"/>
        <pt x="271" y="-205" on="0"/>
        <pt x="233" y="-205" on="1"/>
        <pt x="184" y="-205" on="0"/>
        <pt x="103" y="-186" on="0"/>
        <pt x="47" y="-153" on="0"/>
        <pt x="16" y="-111" on="0"/>
        <pt x="16" y="-87" on="1"/>
        <pt x="16" y="-71" on="0"/>
        <pt x="32" y="-37" on="0"/>
        <pt x="61" y="-7" on="0"/>
        <pt x="102" y="16" on="0"/>
        <pt x="127" y="23" on="1"/>
        <pt x="117" y="31" on="0"/>
        <pt x="98" y="67" on="0"/>
        <pt x="98" y="93" on="1"/>
        <pt x="98" y="122" on="0"/>
        <pt x="123" y="174" on="0"/>
        <pt x="143" y="194" on="1"/>
        <pt x="123" y="217" on="0"/>
        <pt x="111" y="262" on="0"/>
        <pt x="111" y="276" on="1"/>
        <pt x="111" y="307" on="0"/>
        <pt x="142" y="366" on="0"/>
        <pt x="195" y="413" on="0"/>
        <pt x="266" y="441" on="0"/>
        <pt x="307" y="441" on="1"/>
        <pt x="333" y="441" on="0"/>
        <pt x="388" y="426" on="0"/>
        <pt x="413" y="406" on="1"/>
        <pt x="445" y="432" on="0"/>
        <pt x="510" y="452" on="0"/>
        <pt x="532" y="452" on="1"/>
        <pt x="559" y="452" on="0"/>
        <pt x="582" y="422" on="0"/>
        <pt x="582" y="407" on="1"/>
        <pt x="582" y="395" on="0"/>
        <pt x="574" y="380" on="0"/>
        <pt x="563" y="372" on="0"/>
        <pt x="551" y="369" on="0"/>
        <pt x="548" y="369" on="1"/>
        <pt x="539" y="369" on="0"/>
        <pt x="519" y="381" on="0"/>
        <pt x="519" y="397" on="1"/>
        <pt x="519" y="410" on="0"/>
        <pt x="528" y="422" on="0"/>
        <pt x="531" y="424" on="1"/>
        <pt x="520" y="423" on="0"/>
        <pt x="466" y="413" on="0"/>
        <pt x="431" y="389" on="1"/>
        <pt x="431" y="389" on="0"/>
        <pt x="440" y="377" on="0"/>
        <pt x="450" y="356" on="0"/>
        <pt x="458" y="329" on="0"/>
        <pt x="458" y="312" on="1"/>
        <pt x="458" y="281" on="0"/>
        <pt x="427" y="222" on="0"/>
        <pt x="374" y="176" on="0"/>
        <pt x="303" y="147" on="0"/>
        <pt x="262" y="147" on="1"/>
        <pt x="221" y="147" on="0"/>
        <pt x="170" y="171" on="0"/>
        <pt x="162" y="177" on="1"/>
        <pt x="145" y="159" on="0"/>
        <pt x="138" y="126" on="0"/>
        <pt x="138" y="122" on="1"/>
        <pt x="138" y="96" on="0"/>
        <pt x="167" y="70" on="0"/>
        <pt x="185" y="69" on="1"/>
      </contour>
      <contour>
        <pt x="263" y="176" on="1"/>
        <pt x="292" y="176" on="0"/>
        <pt x="336" y="202" on="0"/>
        <pt x="366" y="245" on="0"/>
        <pt x="381" y="303" on="0"/>
        <pt x="381" y="335" on="1"/>
        <pt x="381" y="360" on="0"/>
        <pt x="364" y="390" on="0"/>
        <pt x="341" y="407" on="0"/>
        <pt x="315" y="412" on="0"/>
        <pt x="306" y="412" on="1"/>
        <pt x="277" y="412" on="0"/>
        <pt x="233" y="387" on="0"/>
        <pt x="203" y="343" on="0"/>
        <pt x="188" y="285" on="0"/>
        <pt x="188" y="253" on="1"/>
        <pt x="188" y="228" on="0"/>
        <pt x="205" y="198" on="0"/>
        <pt x="228" y="181" on="0"/>
        <pt x="254" y="176" on="0"/>
      </contour>
      <contour>
        <pt x="234" y="-176" on="1"/>
        <pt x="274" y="-176" on="0"/>
        <pt x="345" y="-158" on="0"/>
        <pt x="398" y="-127" on="0"/>
        <pt x="429" y="-87" on="0"/>
        <pt x="429" y="-65" on="1"/>
        <pt x="429" y="-39" on="0"/>
        <pt x="395" y="-11" on="0"/>
        <pt x="341" y="2" on="0"/>
        <pt x="273" y="4" on="0"/>
        <pt x="238" y="4" on="1"/>
        <pt x="210" y="4" on="0"/>
        <pt x="175" y="4" on="0"/>
        <pt x="152" y="1" on="0"/>
        <pt x="135" y="-6" on="0"/>
        <pt x="125" y="-12" on="1"/>
        <pt x="95" y="-30" on="0"/>
        <pt x="75" y="-75" on="0"/>
        <pt x="75" y="-88" on="1"/>
        <pt x="75" y="-105" on="0"/>
        <pt x="97" y="-136" on="0"/>
        <pt x="137" y="-161" on="0"/>
        <pt x="197" y="-176" on="0"/>
      </contour>
    </TTGlyph>
</ttFont>
